STARTFONT 2.1
COMMENT
COMMENT Converted from OpenType font "ipam.ttf" by "..\otf2bdf.exe 3.0".
COMMENT
FONT -FreeType-IPAMincho-Medium-R-Normal--32-320-72-72-P-282-ISO10646-1
SIZE 32 72 72
FONTBOUNDINGBOX 32 32 0 -4
STARTPROPERTIES 19
FOUNDRY "FreeType"
FAMILY_NAME "IPAMincho"
WEIGHT_NAME "Medium"
SLANT "R"
SETWIDTH_NAME "Normal"
ADD_STYLE_NAME ""
PIXEL_SIZE 32
POINT_SIZE 320
RESOLUTION_X 72
RESOLUTION_Y 72
SPACING "P"
AVERAGE_WIDTH 282
CHARSET_REGISTRY "ISO10646"
CHARSET_ENCODING "1"
FONT_ASCENT 28
FONT_DESCENT 3
COPYRIGHT "Copyright(c) Information-technology Promotion Agency, Japan (IPA), 2003-2011. You must accept "http://ipafont.ipa.go.jp/ipa_font_license_v1.html" to use this product."
_OTF_FONTFILE "ipam.ttf"
_OTF_PSNAME "IPAMincho"
ENDPROPERTIES
CHARS 11158
STARTCHAR 0020
ENCODING 32
SWIDTH 500 0
DWIDTH 16 0
BBX 0 0 0 0
BITMAP
ENDCHAR
STARTCHAR 0021
ENCODING 33
SWIDTH 500 0
DWIDTH 16 0
BBX 4 27 6 -1
BITMAP
F0
F0
F0
F0
F0
F0
F0
F0
E0
60
60
60
60
60
60
60
60
60
60
40
00
00
00
60
F0
F0
60
ENDCHAR
STARTCHAR 0022
ENCODING 34
SWIDTH 500 0
DWIDTH 16 0
BBX 11 9 2 17
BITMAP
30C0
79E0
79E0
38E0
1060
3040
2080
4100
8000
ENDCHAR
STARTCHAR 0023
ENCODING 35
SWIDTH 500 0
DWIDTH 16 0
BBX 12 27 2 -1
BITMAP
0840
0840
0840
0840
0840
0840
0840
0840
FFF0
FFF0
1080
1080
1080
1080
1080
1080
1080
1080
FFF0
FFF0
2100
2100
2100
2100
2100
2100
2100
ENDCHAR
STARTCHAR 0024
ENCODING 36
SWIDTH 500 0
DWIDTH 16 0
BBX 13 28 1 -1
BITMAP
0200
0200
0200
1FC0
3260
6230
6270
6270
6270
7200
3200
1E00
0E00
0780
03E0
0270
0230
E218
E218
E218
C218
4218
6230
3260
0F80
0200
0200
0200
ENDCHAR
STARTCHAR 0025
ENCODING 37
SWIDTH 500 0
DWIDTH 16 0
BBX 14 29 1 -2
BITMAP
000C
3C08
6608
4210
C310
C330
C320
C360
C340
C340
4280
2680
1D00
0100
0300
0200
02F0
0598
0508
0B0C
0B0C
1B0C
130C
130C
230C
2108
4198
40F0
C000
ENDCHAR
STARTCHAR 0026
ENCODING 38
SWIDTH 500 0
DWIDTH 16 0
BBX 14 23 1 1
BITMAP
0700
0D80
18C0
18C0
18C0
18C0
1980
1B00
1E00
0C00
1C7C
3C10
6610
6610
C610
C310
C330
C1A0
C1A4
60E4
6064
31FC
1F38
ENDCHAR
STARTCHAR 0027
ENCODING 39
SWIDTH 500 0
DWIDTH 16 0
BBX 5 9 2 17
BITMAP
30
78
78
38
10
30
20
40
80
ENDCHAR
STARTCHAR 0028
ENCODING 40
SWIDTH 500 0
DWIDTH 16 0
BBX 8 29 5 -2
BITMAP
03
06
0C
18
10
30
20
60
60
60
C0
C0
C0
C0
C0
C0
C0
C0
C0
40
60
60
20
30
10
18
0C
06
03
ENDCHAR
STARTCHAR 0029
ENCODING 41
SWIDTH 500 0
DWIDTH 16 0
BBX 8 29 3 -2
BITMAP
C0
60
30
18
08
0C
04
06
06
06
03
03
03
03
03
03
03
03
03
06
06
06
04
0C
08
18
30
60
C0
ENDCHAR
STARTCHAR 002A
ENCODING 42
SWIDTH 500 0
DWIDTH 16 0
BBX 12 14 2 5
BITMAP
0600
0600
C630
E670
76E0
3DC0
0600
1D80
76E0
E670
C630
0600
0600
0600
ENDCHAR
STARTCHAR 002B
ENCODING 43
SWIDTH 500 0
DWIDTH 16 0
BBX 12 18 2 3
BITMAP
0600
0600
0600
0600
0600
0600
0600
0600
FFF0
0600
0600
0600
0600
0600
0600
0600
0600
0600
ENDCHAR
STARTCHAR 002C
ENCODING 44
SWIDTH 500 0
DWIDTH 16 0
BBX 5 9 2 -4
BITMAP
30
78
78
38
18
10
20
60
80
ENDCHAR
STARTCHAR 002D
ENCODING 45
SWIDTH 500 0
DWIDTH 16 0
BBX 12 1 2 12
BITMAP
FFF0
ENDCHAR
STARTCHAR 002E
ENCODING 46
SWIDTH 500 0
DWIDTH 16 0
BBX 5 5 3 0
BITMAP
70
F8
F8
F8
70
ENDCHAR
STARTCHAR 002F
ENCODING 47
SWIDTH 500 0
DWIDTH 16 0
BBX 12 28 2 -2
BITMAP
0010
0030
0020
0020
0060
0040
00C0
0080
0180
0100
0100
0300
0200
0600
0400
0400
0C00
0800
1800
1000
1000
3000
2000
6000
4000
C000
C000
8000
ENDCHAR
STARTCHAR 0030
ENCODING 48
SWIDTH 500 0
DWIDTH 16 0
BBX 12 23 2 1
BITMAP
0F00
1880
30C0
6060
6060
6060
C020
C030
C030
C030
C030
C030
C030
C030
C030
C030
C030
4020
6060
6060
30C0
1080
0F00
ENDCHAR
STARTCHAR 0031
ENCODING 49
SWIDTH 500 0
DWIDTH 16 0
BBX 8 23 4 3
BITMAP
08
F8
38
18
18
18
18
18
18
18
18
18
18
18
18
18
18
18
18
18
18
18
FF
ENDCHAR
STARTCHAR 0032
ENCODING 50
SWIDTH 500 0
DWIDTH 16 0
BBX 12 22 2 2
BITMAP
1F80
70E0
6060
C030
E030
E030
E030
0060
0060
00C0
0180
0100
0200
0400
0C00
0800
1010
2010
6010
4030
FFF0
FFF0
ENDCHAR
STARTCHAR 0033
ENCODING 51
SWIDTH 500 0
DWIDTH 16 0
BBX 12 23 2 1
BITMAP
0F80
30E0
2060
7030
7030
7030
0030
0030
0060
00C0
0F00
01C0
0060
0020
0030
0030
0030
6030
E030
E060
E060
70C0
1F00
ENDCHAR
STARTCHAR 0034
ENCODING 52
SWIDTH 500 0
DWIDTH 16 0
BBX 14 22 1 2
BITMAP
0060
00E0
00E0
01E0
0360
0260
0660
0460
0C60
1860
1060
3060
2060
4060
C060
FFFC
0060
0060
0060
0060
0060
03FC
ENDCHAR
STARTCHAR 0035
ENCODING 53
SWIDTH 500 0
DWIDTH 16 0
BBX 12 23 2 1
BITMAP
7FE0
7FE0
6000
6000
4000
4000
4000
4000
4000
4F80
70C0
4060
0060
0030
0030
0030
0030
E030
E030
E060
C0E0
61C0
1F00
ENDCHAR
STARTCHAR 0036
ENCODING 54
SWIDTH 500 0
DWIDTH 16 0
BBX 12 23 2 1
BITMAP
07C0
0C60
1070
3070
6070
6000
6000
E000
C000
CF80
D0C0
E060
C060
C030
C030
C030
C030
4030
6030
6060
3060
18C0
0F00
ENDCHAR
STARTCHAR 0037
ENCODING 55
SWIDTH 500 0
DWIDTH 16 0
BBX 12 23 2 1
BITMAP
FFF0
FFF0
C020
8020
8040
8040
8080
0080
0180
0100
0100
0300
0300
0600
0600
0600
0600
0E00
0E00
0E00
0C00
0C00
0C00
ENDCHAR
STARTCHAR 0038
ENCODING 56
SWIDTH 500 0
DWIDTH 16 0
BBX 12 23 2 1
BITMAP
0F00
39C0
30C0
6060
6060
6060
6060
3040
30C0
1900
0F00
1B80
31C0
60E0
6070
C030
C030
C030
C030
C030
6060
30C0
1F80
ENDCHAR
STARTCHAR 0039
ENCODING 57
SWIDTH 500 0
DWIDTH 16 0
BBX 12 23 2 1
BITMAP
0F00
30C0
6040
6060
C060
C030
C030
C030
C030
C030
6030
6070
30B0
1F30
0070
0070
0060
E060
E060
E0C0
E0C0
6180
1E00
ENDCHAR
STARTCHAR 003A
ENCODING 58
SWIDTH 500 0
DWIDTH 16 0
BBX 4 15 6 2
BITMAP
60
F0
F0
60
00
00
00
00
00
00
00
60
F0
F0
60
ENDCHAR
STARTCHAR 003B
ENCODING 59
SWIDTH 500 0
DWIDTH 16 0
BBX 4 19 6 -3
BITMAP
60
F0
F0
60
00
00
00
00
00
00
00
60
F0
F0
F0
30
20
40
80
ENDCHAR
STARTCHAR 003C
ENCODING 60
SWIDTH 500 0
DWIDTH 16 0
BBX 11 20 2 3
BITMAP
0020
0060
00C0
0180
0300
0600
0C00
1800
3000
6000
E000
3000
1800
0C00
0600
0300
01C0
00E0
0020
0020
ENDCHAR
STARTCHAR 003D
ENCODING 61
SWIDTH 500 0
DWIDTH 16 0
BBX 12 7 2 9
BITMAP
FFF0
0000
0000
0000
0000
0000
FFF0
ENDCHAR
STARTCHAR 003E
ENCODING 62
SWIDTH 500 0
DWIDTH 16 0
BBX 11 19 3 3
BITMAP
8000
C000
6000
3000
1800
0C00
0600
0300
0180
00C0
00E0
0180
0300
0600
0C00
3800
7000
E000
8000
ENDCHAR
STARTCHAR 003F
ENCODING 63
SWIDTH 500 0
DWIDTH 16 0
BBX 13 28 2 -2
BITMAP
0F80
3060
6030
4018
C018
F018
F018
F018
7030
0030
0060
00C0
0080
0100
0100
0300
0200
0200
0200
0200
0200
0000
0000
0000
0600
0F00
0F00
0600
ENDCHAR
STARTCHAR 0040
ENCODING 64
SWIDTH 500 0
DWIDTH 16 0
BBX 14 25 1 0
BITMAP
07C0
0C20
1810
3008
3008
6008
63A4
6664
C664
C464
CC44
CC44
CC44
CC44
CC44
CC48
CCC8
C6C8
6730
6000
7004
3004
1808
0C30
07E0
ENDCHAR
STARTCHAR 0041
ENCODING 65
SWIDTH 500 0
DWIDTH 16 0
BBX 14 23 1 2
BITMAP
0200
0300
0300
0300
0700
0580
0580
0580
0C80
08C0
08C0
08C0
1840
1060
1FE0
1060
2030
2030
2030
4010
4018
4018
F07C
ENDCHAR
STARTCHAR 0042
ENCODING 66
SWIDTH 500 0
DWIDTH 16 0
BBX 13 22 1 2
BITMAP
FF80
30E0
3060
3030
3030
3030
3030
3030
3060
30C0
3F00
3060
3030
3010
3018
3018
3018
3018
3018
3030
3060
FF80
ENDCHAR
STARTCHAR 0043
ENCODING 67
SWIDTH 500 0
DWIDTH 16 0
BBX 12 23 3 1
BITMAP
0F20
10E0
2060
2060
6020
4020
4020
C000
C000
C000
C000
C000
C000
C000
C000
C010
C020
6020
6020
6060
3040
1880
0F00
ENDCHAR
STARTCHAR 0044
ENCODING 68
SWIDTH 500 0
DWIDTH 16 0
BBX 13 22 1 2
BITMAP
FF00
30C0
3060
3030
3030
3030
3018
3018
3018
3018
3018
3018
3018
3018
3018
3018
3030
3030
3020
3060
30C0
FF00
ENDCHAR
STARTCHAR 0045
ENCODING 69
SWIDTH 500 0
DWIDTH 16 0
BBX 13 22 1 2
BITMAP
FFF8
3038
3018
3008
3008
3008
3000
3040
3040
30C0
3FC0
30C0
3040
3040
3000
3000
3008
3008
3008
3008
3018
FFF8
ENDCHAR
STARTCHAR 0046
ENCODING 70
SWIDTH 500 0
DWIDTH 16 0
BBX 13 22 1 2
BITMAP
FFF8
3018
3008
3008
3008
3008
3000
3020
3020
3060
3FE0
3060
3020
3020
3000
3000
3000
3000
3000
3000
3000
FE00
ENDCHAR
STARTCHAR 0047
ENCODING 71
SWIDTH 500 0
DWIDTH 16 0
BBX 14 23 1 1
BITMAP
0F90
18F0
3030
2030
6010
6010
C000
C000
C000
C000
C000
C000
C0FC
C030
C030
C030
C030
6030
6030
2030
3070
18D0
0F10
ENDCHAR
STARTCHAR 0048
ENCODING 72
SWIDTH 500 0
DWIDTH 16 0
BBX 14 22 1 2
BITMAP
FCFC
3030
3030
3030
3030
3030
3030
3030
3030
3030
3FF0
3030
3030
3030
3030
3030
3030
3030
3030
3030
3030
FCFC
ENDCHAR
STARTCHAR 0049
ENCODING 73
SWIDTH 500 0
DWIDTH 16 0
BBX 6 22 5 2
BITMAP
FC
30
30
30
30
30
30
30
30
30
30
30
30
30
30
30
30
30
30
30
30
FC
ENDCHAR
STARTCHAR 004A
ENCODING 74
SWIDTH 500 0
DWIDTH 16 0
BBX 12 23 2 1
BITMAP
07F0
00C0
00C0
00C0
00C0
00C0
00C0
00C0
00C0
00C0
00C0
00C0
00C0
00C0
00C0
00C0
00C0
E0C0
E0C0
E080
C180
6300
1E00
ENDCHAR
STARTCHAR 004B
ENCODING 75
SWIDTH 500 0
DWIDTH 16 0
BBX 15 22 1 2
BITMAP
FCF8
3030
3020
3040
3040
3080
3080
3100
3300
3300
3700
3580
3980
38C0
30C0
3060
3060
3030
3030
3018
3018
FC7E
ENDCHAR
STARTCHAR 004C
ENCODING 76
SWIDTH 500 0
DWIDTH 16 0
BBX 12 22 2 2
BITMAP
FC00
3000
3000
3000
3000
3000
3000
3000
3000
3000
3000
3000
3000
3000
3000
3000
3010
3010
3010
3030
3070
FFF0
ENDCHAR
STARTCHAR 004D
ENCODING 77
SWIDTH 500 0
DWIDTH 16 0
BBX 16 22 0 2
BITMAP
F81F
381C
381C
381C
282C
2C2C
2C2C
2C2C
2C2C
244C
264C
264C
264C
268C
228C
238C
238C
238C
230C
210C
210C
F83F
ENDCHAR
STARTCHAR 004E
ENCODING 78
SWIDTH 500 0
DWIDTH 16 0
BBX 14 23 1 1
BITMAP
F07C
3810
3810
3810
2C10
2C10
2610
2610
2610
2310
2310
2190
2190
2190
20D0
20D0
2070
2070
2030
2030
2030
F810
0010
ENDCHAR
STARTCHAR 004F
ENCODING 79
SWIDTH 500 0
DWIDTH 16 0
BBX 12 23 2 1
BITMAP
0F00
1880
3040
6060
6060
6020
C030
C030
C030
C030
C030
C030
C030
C030
C030
C030
C030
4060
6060
6060
30C0
1180
0F00
ENDCHAR
STARTCHAR 0050
ENCODING 80
SWIDTH 500 0
DWIDTH 16 0
BBX 14 22 1 2
BITMAP
FFC0
3070
3018
300C
300C
300C
300C
300C
301C
3018
3070
3FC0
3000
3000
3000
3000
3000
3000
3000
3000
3000
FC00
ENDCHAR
STARTCHAR 0051
ENCODING 81
SWIDTH 500 0
DWIDTH 16 0
BBX 13 25 2 -1
BITMAP
0F00
3980
70C0
6060
6060
E060
C030
C030
C030
C030
C030
C030
C030
C030
C030
CE30
DF30
5320
7360
71E0
31C0
19C0
0F88
00C8
0070
ENDCHAR
STARTCHAR 0052
ENCODING 82
SWIDTH 500 0
DWIDTH 16 0
BBX 14 22 1 2
BITMAP
FF80
3060
3030
3018
3018
3018
3018
3018
3030
3060
3F80
3300
3180
3180
30C0
30C0
3060
3060
3070
3030
3038
FC1C
ENDCHAR
STARTCHAR 0053
ENCODING 83
SWIDTH 500 0
DWIDTH 16 0
BBX 12 23 2 1
BITMAP
1F20
61E0
C060
C060
C020
C020
E000
6000
7000
3C00
0F00
0780
01C0
00E0
0060
8030
8030
8030
C030
C030
E060
B0C0
8F80
ENDCHAR
STARTCHAR 0054
ENCODING 84
SWIDTH 500 0
DWIDTH 16 0
BBX 12 22 2 2
BITMAP
FFF0
C630
8610
8610
8610
8610
0600
0600
0600
0600
0600
0600
0600
0600
0600
0600
0600
0600
0600
0600
0600
1F80
ENDCHAR
STARTCHAR 0055
ENCODING 85
SWIDTH 500 0
DWIDTH 16 0
BBX 16 23 0 1
BITMAP
FC1F
3004
3004
3004
3004
3004
3004
3004
3004
3004
3004
3004
3004
3004
3004
3004
3004
3004
3004
3008
1808
0C30
07E0
ENDCHAR
STARTCHAR 0056
ENCODING 86
SWIDTH 500 0
DWIDTH 16 0
BBX 14 23 1 1
BITMAP
F87C
7018
3018
3010
3010
3830
1830
1820
1820
1C60
0C60
0C40
0C40
0C40
06C0
0680
0680
0680
0300
0300
0300
0300
0200
ENDCHAR
STARTCHAR 0057
ENCODING 87
SWIDTH 500 0
DWIDTH 16 0
BBX 16 23 0 1
BITMAP
FBCF
6186
2084
2184
2184
21C4
31C4
31C4
3148
1248
1248
1268
1A68
1A68
1A68
1C28
0C30
0C30
0C30
0C30
0C30
0C30
0810
ENDCHAR
STARTCHAR 0058
ENCODING 88
SWIDTH 500 0
DWIDTH 16 0
BBX 14 22 1 2
BITMAP
FCFC
3030
3020
1860
1840
0C40
0C80
0680
0700
0300
0300
0380
0580
05C0
08C0
08C0
1860
1060
3070
2030
6038
F87C
ENDCHAR
STARTCHAR 0059
ENCODING 89
SWIDTH 500 0
DWIDTH 16 0
BBX 16 22 0 2
BITMAP
FC3F
300C
1008
1808
1818
0C10
0C10
0420
0620
0640
0340
03C0
0180
0180
0180
0180
0180
0180
0180
0180
0180
07E0
ENDCHAR
STARTCHAR 005A
ENCODING 90
SWIDTH 500 0
DWIDTH 16 0
BBX 12 22 2 2
BITMAP
7FF0
6030
4060
4060
40C0
40C0
0180
0180
0300
0300
0600
0600
0C00
0C00
1800
1800
3010
3010
7010
6010
E070
FFF0
ENDCHAR
STARTCHAR 005B
ENCODING 91
SWIDTH 500 0
DWIDTH 16 0
BBX 8 28 5 -2
BITMAP
FF
C0
C0
C0
C0
C0
C0
C0
C0
C0
C0
C0
C0
C0
C0
C0
C0
C0
C0
C0
C0
C0
C0
C0
C0
C0
C0
FF
ENDCHAR
STARTCHAR 005C
ENCODING 92
SWIDTH 500 0
DWIDTH 16 0
BBX 14 22 1 2
BITMAP
F87C
6018
2010
3010
3030
1820
1820
0840
0C40
7FF8
0480
0680
0780
0300
7FF8
0300
0300
0300
0300
0300
0300
0FC0
ENDCHAR
STARTCHAR 005D
ENCODING 93
SWIDTH 500 0
DWIDTH 16 0
BBX 8 28 3 -2
BITMAP
FF
03
03
03
03
03
03
03
03
03
03
03
03
03
03
03
03
03
03
03
03
03
03
03
03
03
03
FF
ENDCHAR
STARTCHAR 005E
ENCODING 94
SWIDTH 500 0
DWIDTH 16 0
BBX 10 4 3 20
BITMAP
1E00
3F00
6180
C0C0
ENDCHAR
STARTCHAR 005F
ENCODING 95
SWIDTH 500 0
DWIDTH 16 0
BBX 16 1 0 -4
BITMAP
FFFF
ENDCHAR
STARTCHAR 0060
ENCODING 96
SWIDTH 500 0
DWIDTH 16 0
BBX 10 4 2 20
BITMAP
FC00
1E00
0700
00C0
ENDCHAR
STARTCHAR 0061
ENCODING 97
SWIDTH 500 0
DWIDTH 16 0
BBX 13 16 2 1
BITMAP
3F00
6180
E180
E0C0
E0C0
00C0
07C0
18C0
70C0
60C0
C0C0
C0C0
C0C0
C1C8
63D0
3C60
ENDCHAR
STARTCHAR 0062
ENCODING 98
SWIDTH 500 0
DWIDTH 16 0
BBX 13 24 1 0
BITMAP
3000
F000
3000
3000
3000
3000
3000
3000
37C0
3860
3030
3030
3018
3018
3018
3018
3018
3018
3018
3030
3030
3030
3860
2780
ENDCHAR
STARTCHAR 0063
ENCODING 99
SWIDTH 500 0
DWIDTH 16 0
BBX 11 16 3 1
BITMAP
1F00
3080
60C0
E0C0
C0C0
C000
C000
C000
C000
C000
C000
4020
6020
6040
3080
0F00
ENDCHAR
STARTCHAR 0064
ENCODING 100
SWIDTH 500 0
DWIDTH 16 0
BBX 13 24 2 1
BITMAP
0020
01E0
0060
0060
0060
0060
0060
0060
1F60
30E0
6060
6060
E060
C060
C060
C060
C060
C060
C060
C060
6060
60E0
3178
1E40
ENDCHAR
STARTCHAR 0065
ENCODING 101
SWIDTH 500 0
DWIDTH 16 0
BBX 12 16 2 1
BITMAP
0F00
30C0
6040
6060
E060
C020
FFF0
C000
C000
C000
E000
6020
6020
3040
38C0
0F00
ENDCHAR
STARTCHAR 0066
ENCODING 102
SWIDTH 500 0
DWIDTH 16 0
BBX 12 22 2 2
BITMAP
03C0
0630
0C30
0C30
0C00
0C00
0C00
FFC0
0C00
0C00
0C00
0C00
0C00
0C00
0C00
0C00
0C00
0C00
0C00
0C00
0C00
3F00
ENDCHAR
STARTCHAR 0067
ENCODING 103
SWIDTH 500 0
DWIDTH 16 0
BBX 14 20 1 -3
BITMAP
0FFC
38EC
3070
6030
6030
6030
7060
38E0
1F80
2000
6000
7800
3FE0
31F8
C01C
C00C
C00C
E00C
7038
1FE0
ENDCHAR
STARTCHAR 0068
ENCODING 104
SWIDTH 500 0
DWIDTH 16 0
BBX 14 23 1 2
BITMAP
1000
F000
3000
3000
3000
3000
3000
3000
33C0
3C60
3830
3030
3030
3030
3030
3030
3030
3030
3030
3030
3030
3030
FCFC
ENDCHAR
STARTCHAR 0069
ENCODING 105
SWIDTH 500 0
DWIDTH 16 0
BBX 6 22 5 2
BITMAP
70
70
70
00
00
00
10
F0
30
30
30
30
30
30
30
30
30
30
30
30
30
FC
ENDCHAR
STARTCHAR 006A
ENCODING 106
SWIDTH 500 0
DWIDTH 16 0
BBX 8 27 3 -3
BITMAP
07
07
07
00
00
00
00
0F
07
03
03
03
03
03
03
03
03
03
03
03
03
03
C3
C3
C3
46
3C
ENDCHAR
STARTCHAR 006B
ENCODING 107
SWIDTH 500 0
DWIDTH 16 0
BBX 15 23 1 2
BITMAP
1000
F000
3000
3000
3000
3000
3000
3000
31F8
3060
3040
3080
3100
3200
3700
3980
3180
30C0
3060
3060
3030
3038
FCFE
ENDCHAR
STARTCHAR 006C
ENCODING 108
SWIDTH 500 0
DWIDTH 16 0
BBX 6 23 5 3
BITMAP
30
F0
30
30
30
30
30
30
30
30
30
30
30
30
30
30
30
30
30
30
30
30
FC
ENDCHAR
STARTCHAR 006D
ENCODING 109
SWIDTH 500 0
DWIDTH 16 0
BBX 14 16 1 2
BITMAP
4000
DE70
7398
6318
6318
6318
6318
6318
6318
6318
6318
6318
6318
6318
6318
F7BC
ENDCHAR
STARTCHAR 006E
ENCODING 110
SWIDTH 500 0
DWIDTH 16 0
BBX 14 16 1 2
BITMAP
1000
F3C0
3C60
3830
3030
3030
3030
3030
3030
3030
3030
3030
3030
3030
3030
FCFC
ENDCHAR
STARTCHAR 006F
ENCODING 111
SWIDTH 500 0
DWIDTH 16 0
BBX 12 16 2 1
BITMAP
0F00
30C0
6060
6060
C020
C030
C030
C030
C030
C030
C030
4020
6060
2060
30C0
0F00
ENDCHAR
STARTCHAR 0070
ENCODING 112
SWIDTH 500 0
DWIDTH 16 0
BBX 13 21 2 -3
BITMAP
2000
E780
3860
3030
3030
3018
3018
3018
3018
3018
3018
3030
3030
3860
37C0
3000
3000
3000
3000
3000
FC00
ENDCHAR
STARTCHAR 0071
ENCODING 113
SWIDTH 500 0
DWIDTH 16 0
BBX 13 21 2 -3
BITMAP
0020
1FA0
30E0
6060
6060
C060
C060
C060
C060
C060
C060
6060
6060
30E0
1F60
0060
0060
0060
0060
0060
01F8
ENDCHAR
STARTCHAR 0072
ENCODING 114
SWIDTH 500 0
DWIDTH 16 0
BBX 11 16 3 2
BITMAP
1000
F1C0
36E0
34E0
3800
3000
3000
3000
3000
3000
3000
3000
3000
3000
3000
FC00
ENDCHAR
STARTCHAR 0073
ENCODING 115
SWIDTH 500 0
DWIDTH 16 0
BBX 11 16 3 1
BITMAP
3F40
61C0
C0C0
C040
C040
E000
7800
1E00
0780
01C0
80E0
8060
C060
C060
F0C0
9F00
ENDCHAR
STARTCHAR 0074
ENCODING 116
SWIDTH 500 0
DWIDTH 16 0
BBX 10 21 3 1
BITMAP
0800
0800
1800
1800
7800
FF80
1800
1800
1800
1800
1800
1800
1800
1800
1800
1800
1800
1840
1840
1C80
0F00
ENDCHAR
STARTCHAR 0075
ENCODING 117
SWIDTH 500 0
DWIDTH 16 0
BBX 14 17 1 1
BITMAP
1010
F0F0
3030
3030
3030
3030
3030
3030
3030
3030
3030
3030
3030
3030
1070
18BC
0F20
ENDCHAR
STARTCHAR 0076
ENCODING 118
SWIDTH 500 0
DWIDTH 16 0
BBX 14 16 1 1
BITMAP
FC7C
7018
3010
3010
1820
1820
1820
0C40
0C40
0C40
0680
0680
0680
0300
0300
0200
ENDCHAR
STARTCHAR 0077
ENCODING 119
SWIDTH 500 0
DWIDTH 16 0
BBX 16 16 0 1
BITMAP
FBCF
6186
2084
2084
31C4
31CC
1148
1148
1A48
1A68
1A70
0A30
0C30
0C30
0C30
0420
ENDCHAR
STARTCHAR 0078
ENCODING 120
SWIDTH 500 0
DWIDTH 16 0
BBX 14 15 1 2
BITMAP
FCF8
3020
1820
0840
0C80
0780
0300
0300
0580
04C0
08C0
1060
2030
2038
F8FC
ENDCHAR
STARTCHAR 0079
ENCODING 121
SWIDTH 500 0
DWIDTH 16 0
BBX 15 20 1 -3
BITMAP
FC7E
7018
3010
1010
1830
1820
0C20
0C40
0440
0640
0680
0380
0380
0100
0100
0300
0200
7600
6400
3800
ENDCHAR
STARTCHAR 007A
ENCODING 122
SWIDTH 500 0
DWIDTH 16 0
BBX 12 15 2 2
BITMAP
7FF0
6060
40C0
40C0
4180
0300
0700
0600
0C00
1C00
1810
3010
6030
E070
FFF0
ENDCHAR
STARTCHAR 007B
ENCODING 123
SWIDTH 500 0
DWIDTH 16 0
BBX 8 30 5 -3
BITMAP
01
06
0C
18
18
18
18
18
18
18
18
18
18
30
C0
60
30
18
18
18
18
18
18
18
18
18
0C
0C
06
01
ENDCHAR
STARTCHAR 007C
ENCODING 124
SWIDTH 500 0
DWIDTH 16 0
BBX 2 32 7 -4
BITMAP
C0
C0
C0
C0
C0
C0
C0
C0
C0
C0
C0
C0
C0
C0
C0
C0
C0
C0
C0
C0
C0
C0
C0
C0
C0
C0
C0
C0
C0
C0
C0
C0
ENDCHAR
STARTCHAR 007D
ENCODING 125
SWIDTH 500 0
DWIDTH 16 0
BBX 8 30 3 -3
BITMAP
80
60
30
10
18
18
18
18
18
18
18
18
18
0C
07
06
0C
18
18
18
18
18
18
18
18
18
30
30
E0
80
ENDCHAR
STARTCHAR 007E
ENCODING 126
SWIDTH 500 0
DWIDTH 16 0
BBX 12 3 2 20
BITMAP
3C30
7FE0
C3C0
ENDCHAR
STARTCHAR 00A0
ENCODING 160
SWIDTH 500 0
DWIDTH 16 0
BBX 0 0 0 0
BITMAP
ENDCHAR
STARTCHAR 00A1
ENCODING 161
SWIDTH 500 0
DWIDTH 16 0
BBX 4 27 6 -1
BITMAP
60
F0
F0
60
00
00
00
00
40
60
60
60
60
60
60
60
60
60
E0
F0
F0
F0
F0
F0
F0
F0
F0
ENDCHAR
STARTCHAR 00A2
ENCODING 162
SWIDTH 1000 0
DWIDTH 32 0
BBX 14 23 9 1
BITMAP
0020
0060
0040
07C0
18F0
3098
60BC
61BC
C13C
C100
C300
C200
C200
C600
6404
6404
3408
1C30
0FE0
0800
1800
1000
1000
ENDCHAR
STARTCHAR 00A3
ENCODING 163
SWIDTH 1000 0
DWIDTH 32 0
BBX 19 24 7 1
BITMAP
00F800
018600
030700
020300
060700
060700
060000
060000
060000
060000
030000
3FFC00
030000
018000
018000
018000
018000
3E8000
438040
80E020
81F040
81B8C0
431F80
3E0700
ENDCHAR
STARTCHAR 00A4
ENCODING 164
SWIDTH 500 0
DWIDTH 16 0
BBX 12 11 2 6
BITMAP
4020
EF70
39C0
30C0
2040
2040
2040
30C0
30C0
6F60
C030
ENDCHAR
STARTCHAR 00A5
ENCODING 165
SWIDTH 1000 0
DWIDTH 32 0
BBX 23 22 4 2
BITMAP
FF81FE
3C0038
0C0030
0E0020
060060
0300C0
038080
018180
00C100
3FFFFC
006200
007400
003C00
001800
3FFFFC
001800
001800
001800
001800
001800
001800
00FF00
ENDCHAR
STARTCHAR 00A6
ENCODING 166
SWIDTH 500 0
DWIDTH 16 0
BBX 2 30 7 -3
BITMAP
C0
C0
C0
C0
C0
C0
C0
C0
C0
C0
C0
C0
C0
00
00
00
C0
C0
C0
C0
C0
C0
C0
C0
C0
C0
C0
C0
C0
C0
ENDCHAR
STARTCHAR 00A7
ENCODING 167
SWIDTH 1000 0
DWIDTH 32 0
BBX 14 29 9 -2
BITMAP
07C0
1860
3030
6038
6038
6038
7000
7000
3C00
1F00
1FC0
61F0
4078
C038
C01C
E00C
700C
3C0C
0F18
03F0
00F0
0038
001C
F00C
F00C
F00C
6018
3030
0FC0
ENDCHAR
STARTCHAR 00A8
ENCODING 168
SWIDTH 1000 0
DWIDTH 32 0
BBX 13 4 10 21
BITMAP
6030
F078
F078
E030
ENDCHAR
STARTCHAR 00A9
ENCODING 169
SWIDTH 500 0
DWIDTH 16 0
BBX 15 15 0 5
BITMAP
07C0
1830
2008
47E4
4824
9022
9002
9002
9002
9032
4864
67C4
3008
1830
07C0
ENDCHAR
STARTCHAR 00AA
ENCODING 170
SWIDTH 500 0
DWIDTH 16 0
BBX 9 13 2 11
BITMAP
7C00
C600
C600
0E00
7600
4600
C600
C680
CE80
7300
0000
0000
FF00
ENDCHAR
STARTCHAR 00AB
ENCODING 171
SWIDTH 500 0
DWIDTH 16 0
BBX 10 13 4 3
BITMAP
0640
0C80
0900
1300
2600
6400
C800
6400
2600
1300
0900
0C80
0640
ENDCHAR
STARTCHAR 00AC
ENCODING 172
SWIDTH 1000 0
DWIDTH 32 0
BBX 27 12 2 6
BITMAP
FFFFFFE0
00000060
00000060
00000060
00000060
00000060
00000060
00000060
00000060
00000060
00000060
00000060
ENDCHAR
STARTCHAR 00AD
ENCODING 173
SWIDTH 500 0
DWIDTH 16 0
BBX 12 1 2 12
BITMAP
FFF0
ENDCHAR
STARTCHAR 00AE
ENCODING 174
SWIDTH 500 0
DWIDTH 16 0
BBX 14 15 1 5
BITMAP
0F80
1860
2010
5FC8
4868
8824
8824
8844
8F84
8884
88C8
4848
3C70
1020
0FC0
ENDCHAR
STARTCHAR 00AF
ENCODING 175
SWIDTH 500 0
DWIDTH 16 0
BBX 10 2 3 21
BITMAP
FFC0
FFC0
ENDCHAR
STARTCHAR 00B0
ENCODING 176
SWIDTH 1000 0
DWIDTH 32 0
BBX 7 7 1 20
BITMAP
38
44
82
82
82
44
38
ENDCHAR
STARTCHAR 00B1
ENCODING 177
SWIDTH 1000 0
DWIDTH 32 0
BBX 22 22 5 2
BITMAP
003000
003000
003000
003000
003000
003000
003000
003000
FFFFFC
003000
003000
003000
003000
003000
003000
003000
003000
003000
000000
000000
000000
FFFFFC
ENDCHAR
STARTCHAR 00B2
ENCODING 178
SWIDTH 500 0
DWIDTH 16 0
BBX 7 11 2 16
BITMAP
7C
C6
C6
C6
0C
1C
18
22
42
82
FE
ENDCHAR
STARTCHAR 00B3
ENCODING 179
SWIDTH 500 0
DWIDTH 16 0
BBX 7 12 2 15
BITMAP
78
C6
C2
02
04
38
0C
06
C6
C6
CE
7C
ENDCHAR
STARTCHAR 00B4
ENCODING 180
SWIDTH 1000 0
DWIDTH 32 0
BBX 9 4 13 20
BITMAP
1F80
3C00
7000
8000
ENDCHAR
STARTCHAR 00B6
ENCODING 182
SWIDTH 1000 0
DWIDTH 32 0
BBX 13 29 8 -2
BITMAP
0FF8
3F18
7F18
FF18
FF18
FF18
FF18
FF18
7F18
3F18
1F18
0318
0318
0318
0318
0318
0318
0318
0318
0318
0318
0318
0318
0318
0318
0318
0318
0318
0318
ENDCHAR
STARTCHAR 00B7
ENCODING 183
SWIDTH 500 0
DWIDTH 16 0
BBX 5 5 6 10
BITMAP
70
F8
F8
F8
70
ENDCHAR
STARTCHAR 00B8
ENCODING 184
SWIDTH 500 0
DWIDTH 16 0
BBX 7 7 5 -1
BITMAP
60
40
40
FC
06
06
FC
ENDCHAR
STARTCHAR 00B9
ENCODING 185
SWIDTH 500 0
DWIDTH 16 0
BBX 3 12 4 16
BITMAP
40
C0
40
40
40
40
40
40
40
40
40
E0
ENDCHAR
STARTCHAR 00BA
ENCODING 186
SWIDTH 500 0
DWIDTH 16 0
BBX 8 13 2 11
BITMAP
3C
42
C2
C3
C3
C3
C3
C3
66
3C
00
00
FF
ENDCHAR
STARTCHAR 00BB
ENCODING 187
SWIDTH 500 0
DWIDTH 16 0
BBX 10 13 2 3
BITMAP
9800
4C00
2400
3200
1900
0980
04C0
0980
1900
3200
2400
4C00
9800
ENDCHAR
STARTCHAR 00BC
ENCODING 188
SWIDTH 500 0
DWIDTH 16 0
BBX 14 28 1 -2
BITMAP
F008
3018
3010
3010
3020
3020
3060
3040
30C0
3080
3080
3100
3100
FB00
0230
0670
0470
04B0
08B0
0930
1930
1230
1230
2430
27FC
6030
4030
C0F8
ENDCHAR
STARTCHAR 00BD
ENCODING 189
SWIDTH 500 0
DWIDTH 16 0
BBX 14 28 1 -2
BITMAP
F00C
3008
3018
3010
3030
3020
3020
3040
3040
30C0
3080
3180
3100
FB00
0270
0398
078C
058C
0C0C
080C
1818
1018
1030
2060
2044
6084
4184
C1FC
ENDCHAR
STARTCHAR 00BE
ENCODING 190
SWIDTH 500 0
DWIDTH 16 0
BBX 14 28 1 -2
BITMAP
780C
CC08
CC18
CC10
0C30
0820
3020
0C40
0640
C6C0
C680
C780
CD00
7900
0230
0270
0470
04B0
0CB0
0930
1930
1230
1230
2430
27FC
4030
4030
C0F8
ENDCHAR
STARTCHAR 00BF
ENCODING 191
SWIDTH 500 0
DWIDTH 16 0
BBX 13 27 2 -1
BITMAP
0600
0F00
0F00
0600
0000
0000
0000
0200
0200
0200
0200
0200
0600
0400
0C00
1800
3000
7000
6000
C070
C078
C078
C018
C018
6030
3060
1F80
ENDCHAR
STARTCHAR 00C0
ENCODING 192
SWIDTH 500 0
DWIDTH 16 0
BBX 14 26 1 2
BITMAP
3C00
0600
0180
0200
0300
0300
0300
0700
0580
0580
0580
0C80
08C0
08C0
08C0
1840
1060
1FE0
1060
2030
2030
2030
4010
4018
4018
F07C
ENDCHAR
STARTCHAR 00C1
ENCODING 193
SWIDTH 500 0
DWIDTH 16 0
BBX 14 26 1 2
BITMAP
01E0
0300
0600
0200
0300
0300
0300
0700
0580
0580
0580
0C80
08C0
08C0
08C0
1840
1060
1FE0
1060
2030
2030
2030
4010
4018
4018
F07C
ENDCHAR
STARTCHAR 00C2
ENCODING 194
SWIDTH 500 0
DWIDTH 16 0
BBX 14 26 1 2
BITMAP
0300
0780
0840
1220
0300
0300
0300
0700
0580
0580
0580
0C80
08C0
08C0
08C0
1840
1060
1FE0
1060
2030
2030
2030
4010
4018
4018
F07C
ENDCHAR
STARTCHAR 00C3
ENCODING 195
SWIDTH 500 0
DWIDTH 16 0
BBX 14 26 1 2
BITMAP
0E00
1320
21C0
0200
0300
0300
0300
0700
0580
0580
0580
0C80
08C0
08C0
08C0
1840
1060
1FE0
1060
2030
2030
2030
4010
4018
4018
F07C
ENDCHAR
STARTCHAR 00C4
ENCODING 196
SWIDTH 500 0
DWIDTH 16 0
BBX 14 26 1 2
BITMAP
3870
3870
3870
0200
0300
0300
0300
0700
0580
0580
0580
0C80
08C0
08C0
08C0
1840
1060
1FE0
1060
2030
2030
2030
4010
4018
4018
F07C
ENDCHAR
STARTCHAR 00C5
ENCODING 197
SWIDTH 500 0
DWIDTH 16 0
BBX 14 26 1 2
BITMAP
0300
0480
0480
0480
0300
0300
0300
0300
0580
0580
0580
0C80
08C0
08C0
08C0
1840
1060
1FE0
1060
2020
2030
2030
4010
4018
4018
F07C
ENDCHAR
STARTCHAR 00C6
ENCODING 198
SWIDTH 500 0
DWIDTH 16 0
BBX 15 22 0 2
BITMAP
01FC
01CC
01C4
03C4
02C4
02C0
02C0
06C8
04C8
04C8
04F8
08C8
08C8
0FC8
18C0
10C0
10C0
10C2
20C2
20C6
60C6
FBFE
ENDCHAR
STARTCHAR 00C7
ENCODING 199
SWIDTH 500 0
DWIDTH 16 0
BBX 12 28 3 -4
BITMAP
0F20
10E0
2060
2060
6020
4020
4020
C000
C000
C000
C000
C000
C000
C000
C000
C010
C020
6020
6020
6040
3040
3880
0F00
0800
0F00
0180
0180
1F00
ENDCHAR
STARTCHAR 00C8
ENCODING 200
SWIDTH 500 0
DWIDTH 16 0
BBX 13 26 1 2
BITMAP
3C00
0600
0100
0080
FFF8
3038
3018
3008
3008
3008
3000
3040
3040
30C0
3FC0
30C0
3040
3040
3000
3000
3008
3008
3008
3008
3018
FFF8
ENDCHAR
STARTCHAR 00C9
ENCODING 201
SWIDTH 500 0
DWIDTH 16 0
BBX 13 26 1 2
BITMAP
01E0
0300
0400
0800
FFF8
3038
3018
3008
3008
3008
3000
3040
3040
30C0
3FC0
30C0
3040
3040
3000
3000
3008
3008
3008
3008
3018
FFF8
ENDCHAR
STARTCHAR 00CA
ENCODING 202
SWIDTH 500 0
DWIDTH 16 0
BBX 13 26 1 2
BITMAP
0700
0D80
0840
1000
FFF8
3038
3018
3008
3008
3008
3000
3040
3040
30C0
3FC0
30C0
3040
3040
3000
3000
3008
3008
3008
3008
3018
FFF8
ENDCHAR
STARTCHAR 00CB
ENCODING 203
SWIDTH 500 0
DWIDTH 16 0
BBX 13 26 1 2
BITMAP
38E0
38E0
38E0
0000
FFF8
3038
3018
3008
3008
3008
3000
3040
3040
30C0
3FC0
30C0
3040
3040
3000
3000
3008
3008
3008
3008
3018
FFF8
ENDCHAR
STARTCHAR 00CC
ENCODING 204
SWIDTH 500 0
DWIDTH 16 0
BBX 8 26 3 2
BITMAP
F0
18
06
00
3F
0C
0C
0C
0C
0C
0C
0C
0C
0C
0C
0C
0C
0C
0C
0C
0C
0C
0C
0C
0C
3F
ENDCHAR
STARTCHAR 00CD
ENCODING 205
SWIDTH 500 0
DWIDTH 16 0
BBX 7 26 5 2
BITMAP
1E
30
60
00
FC
30
30
30
30
30
30
30
30
30
30
30
30
30
30
30
30
30
30
30
30
FC
ENDCHAR
STARTCHAR 00CE
ENCODING 206
SWIDTH 500 0
DWIDTH 16 0
BBX 8 26 4 2
BITMAP
18
3C
42
81
7E
18
18
18
18
18
18
18
18
18
18
18
18
18
18
18
18
18
18
18
18
7E
ENDCHAR
STARTCHAR 00CF
ENCODING 207
SWIDTH 500 0
DWIDTH 16 0
BBX 10 26 3 2
BITMAP
E1C0
E1C0
E1C0
0000
3F00
0C00
0C00
0C00
0C00
0C00
0C00
0C00
0C00
0C00
0C00
0C00
0C00
0C00
0C00
0C00
0C00
0C00
0C00
0C00
0C00
3F00
ENDCHAR
STARTCHAR 00D0
ENCODING 208
SWIDTH 500 0
DWIDTH 16 0
BBX 13 22 1 2
BITMAP
FF00
30C0
3060
3030
3030
3030
3018
3018
3018
3018
FE18
3018
3018
3018
3018
3018
3030
3030
3030
3060
30C0
FF00
ENDCHAR
STARTCHAR 00D1
ENCODING 209
SWIDTH 500 0
DWIDTH 16 0
BBX 14 27 1 1
BITMAP
0E00
1320
21C0
0000
F07C
3810
3810
3810
2C10
2C10
2610
2610
2610
2310
2310
2190
2190
2190
20D0
20D0
2070
2070
2030
2030
2030
F810
0010
ENDCHAR
STARTCHAR 00D2
ENCODING 210
SWIDTH 500 0
DWIDTH 16 0
BBX 12 27 2 1
BITMAP
7800
0C00
0300
0000
0F00
1880
3040
6060
6060
6020
C030
C030
C030
C030
C030
C030
C030
C030
C030
C030
C030
4060
6060
6060
30C0
1180
0F00
ENDCHAR
STARTCHAR 00D3
ENCODING 211
SWIDTH 500 0
DWIDTH 16 0
BBX 12 27 2 1
BITMAP
03C0
0600
0C00
0000
0F00
1880
3040
6060
6060
6020
C030
C030
C030
C030
C030
C030
C030
C030
C030
C030
C030
4060
6060
6060
30C0
1180
0F00
ENDCHAR
STARTCHAR 00D4
ENCODING 212
SWIDTH 500 0
DWIDTH 16 0
BBX 12 27 2 1
BITMAP
0600
0F00
1080
2040
0F00
1880
3040
6060
6060
6020
C030
C030
C030
C030
C030
C030
C030
C030
C030
C030
C030
4060
6060
6060
30C0
1180
0F00
ENDCHAR
STARTCHAR 00D5
ENCODING 213
SWIDTH 500 0
DWIDTH 16 0
BBX 12 27 2 1
BITMAP
1C00
2640
4380
0000
0F00
1880
3040
6060
6060
6020
C030
C030
C030
C030
C030
C030
C030
C030
C030
C030
C030
4060
6060
6060
30C0
1180
0F00
ENDCHAR
STARTCHAR 00D6
ENCODING 214
SWIDTH 500 0
DWIDTH 16 0
BBX 12 27 2 1
BITMAP
70E0
70E0
70E0
0000
0F00
1880
3040
6060
6060
6020
C030
C030
C030
C030
C030
C030
C030
C030
C030
C030
C030
4060
6060
6060
30C0
1180
0F00
ENDCHAR
STARTCHAR 00D7
ENCODING 215
SWIDTH 1000 0
DWIDTH 32 0
BBX 20 19 6 2
BITMAP
400020
E00070
3000C0
180180
0C0300
060600
030C00
019800
00F000
006000
00F000
019800
030C00
060600
0C0300
180180
3000C0
600060
C00030
ENDCHAR
STARTCHAR 00D8
ENCODING 216
SWIDTH 500 0
DWIDTH 16 0
BBX 12 26 2 0
BITMAP
0010
0010
0F30
18E0
3060
6060
60E0
60A0
C0B0
C130
C130
C230
C230
C430
C430
C830
C830
D830
D030
7060
6060
6060
70C0
7180
8F00
8000
ENDCHAR
STARTCHAR 00D9
ENCODING 217
SWIDTH 500 0
DWIDTH 16 0
BBX 16 27 0 1
BITMAP
1E00
0380
00C0
0000
FC1F
3004
3004
3004
3004
3004
3004
3004
3004
3004
3004
3004
3004
3004
3004
3004
3004
3004
3004
3008
1808
0C30
07E0
ENDCHAR
STARTCHAR 00DA
ENCODING 218
SWIDTH 500 0
DWIDTH 16 0
BBX 16 27 0 1
BITMAP
00F8
01C0
0300
0400
FC1F
3004
3004
3004
3004
3004
3004
3004
3004
3004
3004
3004
3004
3004
3004
3004
3004
3004
3004
3008
1808
0C30
07E0
ENDCHAR
STARTCHAR 00DB
ENCODING 219
SWIDTH 500 0
DWIDTH 16 0
BBX 16 27 0 1
BITMAP
03C0
07E0
0C30
0000
FC1F
3004
3004
3004
3004
3004
3004
3004
3004
3004
3004
3004
3004
3004
3004
3004
3004
3004
3004
3008
1808
0C30
07E0
ENDCHAR
STARTCHAR 00DC
ENCODING 220
SWIDTH 500 0
DWIDTH 16 0
BBX 16 27 0 1
BITMAP
1C38
1C38
1C38
0000
FC1F
3004
3004
3004
3004
3004
3004
3004
3004
3004
3004
3004
3004
3004
3004
3004
3004
3004
3004
3008
1808
0C30
07E0
ENDCHAR
STARTCHAR 00DD
ENCODING 221
SWIDTH 500 0
DWIDTH 16 0
BBX 16 26 0 2
BITMAP
00F0
0180
0200
0000
FC3F
300C
1008
1808
1818
0C10
0C10
0420
0620
0640
0340
03C0
0180
0180
0180
0180
0180
0180
0180
0180
0180
07E0
ENDCHAR
STARTCHAR 00DE
ENCODING 222
SWIDTH 500 0
DWIDTH 16 0
BBX 14 22 1 2
BITMAP
FC00
3800
3000
3000
3000
3FC0
3070
3018
3018
300C
300C
300C
300C
301C
3018
3070
3FC0
3000
3000
3000
3000
FC00
ENDCHAR
STARTCHAR 00DF
ENCODING 223
SWIDTH 500 0
DWIDTH 16 0
BBX 13 23 1 1
BITMAP
0780
1860
1870
3030
3030
3030
3030
3060
30C0
3700
30C0
3060
3030
3038
3018
3018
3018
3018
3018
3610
3630
F660
03C0
ENDCHAR
STARTCHAR 00E0
ENCODING 224
SWIDTH 500 0
DWIDTH 16 0
BBX 13 21 2 1
BITMAP
7800
0C00
0200
0100
0000
3F00
6180
E180
E0C0
E0C0
00C0
07C0
18C0
70C0
60C0
C0C0
C0C0
C0C0
C1C8
63D0
3C60
ENDCHAR
STARTCHAR 00E1
ENCODING 225
SWIDTH 500 0
DWIDTH 16 0
BBX 13 21 2 1
BITMAP
03C0
0600
0800
1000
0000
3F00
6180
E180
E0C0
E0C0
00C0
07C0
18C0
70C0
60C0
C0C0
C0C0
C0C0
C1C8
63D0
3C60
ENDCHAR
STARTCHAR 00E2
ENCODING 226
SWIDTH 500 0
DWIDTH 16 0
BBX 13 21 2 1
BITMAP
0E00
1B00
2180
0000
0000
3F00
6180
E180
E0C0
E0C0
00C0
07C0
18C0
70C0
60C0
C0C0
C0C0
C0C0
C1C8
63D0
3C60
ENDCHAR
STARTCHAR 00E3
ENCODING 227
SWIDTH 500 0
DWIDTH 16 0
BBX 13 21 2 1
BITMAP
3C40
6780
0000
0000
0000
3F00
6180
E180
E0C0
E0C0
00C0
07C0
18C0
70C0
60C0
C0C0
C0C0
C0C0
C1C8
63D0
3C60
ENDCHAR
STARTCHAR 00E4
ENCODING 228
SWIDTH 500 0
DWIDTH 16 0
BBX 13 21 2 1
BITMAP
71C0
71C0
71C0
0000
0000
3F00
6180
E180
E0C0
E0C0
00C0
07C0
18C0
70C0
60C0
C0C0
C0C0
C0C0
C1C8
63D0
3C60
ENDCHAR
STARTCHAR 00E5
ENCODING 229
SWIDTH 500 0
DWIDTH 16 0
BBX 13 22 2 1
BITMAP
0E00
1100
1100
0E00
0000
0000
3F00
6180
E180
E0C0
E0C0
00C0
07C0
18C0
70C0
60C0
C0C0
C0C0
C0C0
C1C8
63D0
3C60
ENDCHAR
STARTCHAR 00E6
ENCODING 230
SWIDTH 500 0
DWIDTH 16 0
BBX 12 16 2 1
BITMAP
79C0
CF60
C620
C630
0630
0630
0FF0
3600
6600
C600
C620
C610
C620
C620
CB60
71C0
ENDCHAR
STARTCHAR 00E7
ENCODING 231
SWIDTH 500 0
DWIDTH 16 0
BBX 11 21 3 -4
BITMAP
1F00
3080
60C0
E0C0
C0C0
C000
C000
C000
C000
C000
C000
C020
6020
6040
3080
1F00
0800
1E00
0300
0300
1E00
ENDCHAR
STARTCHAR 00E8
ENCODING 232
SWIDTH 500 0
DWIDTH 16 0
BBX 12 21 2 1
BITMAP
3C00
0600
0300
0000
0000
0F00
30C0
6040
6060
E060
C020
FFF0
C000
C000
C000
E000
6020
6020
3040
38C0
0F00
ENDCHAR
STARTCHAR 00E9
ENCODING 233
SWIDTH 500 0
DWIDTH 16 0
BBX 12 21 2 1
BITMAP
03C0
0600
0C00
0000
0000
0F00
30C0
6040
6060
E060
C020
FFF0
C000
C000
C000
E000
6020
6020
3040
38C0
0F00
ENDCHAR
STARTCHAR 00EA
ENCODING 234
SWIDTH 500 0
DWIDTH 16 0
BBX 12 21 2 1
BITMAP
0600
0F00
1080
2040
0000
0F00
30C0
6040
6060
E060
C020
FFF0
C000
C000
C000
E000
6020
6020
3040
38C0
0F00
ENDCHAR
STARTCHAR 00EB
ENCODING 235
SWIDTH 500 0
DWIDTH 16 0
BBX 12 21 2 1
BITMAP
70E0
70E0
70E0
0000
0000
0F00
30C0
6040
6060
E060
C020
FFF0
C000
C000
C000
E000
6020
6020
3040
38C0
0F00
ENDCHAR
STARTCHAR 00EC
ENCODING 236
SWIDTH 500 0
DWIDTH 16 0
BBX 8 20 3 2
BITMAP
F8
1C
06
00
04
3C
0C
0C
0C
0C
0C
0C
0C
0C
0C
0C
0C
0C
0C
3F
ENDCHAR
STARTCHAR 00ED
ENCODING 237
SWIDTH 500 0
DWIDTH 16 0
BBX 7 20 5 2
BITMAP
1E
30
40
80
10
F0
30
30
30
30
30
30
30
30
30
30
30
30
30
FC
ENDCHAR
STARTCHAR 00EE
ENCODING 238
SWIDTH 500 0
DWIDTH 16 0
BBX 8 20 4 2
BITMAP
38
6C
C2
01
08
78
18
18
18
18
18
18
18
18
18
18
18
18
18
7E
ENDCHAR
STARTCHAR 00EF
ENCODING 239
SWIDTH 500 0
DWIDTH 16 0
BBX 10 20 3 2
BITMAP
E1C0
E1C0
E1C0
0000
0400
3C00
0C00
0C00
0C00
0C00
0C00
0C00
0C00
0C00
0C00
0C00
0C00
0C00
0C00
3F00
ENDCHAR
STARTCHAR 00F0
ENCODING 240
SWIDTH 500 0
DWIDTH 16 0
BBX 12 24 2 2
BITMAP
2080
5B00
0C00
0E00
3300
4180
00C0
00C0
0F60
30E0
6060
6070
C030
C030
C030
C030
C030
C030
C030
C060
6060
60C0
3180
0F00
ENDCHAR
STARTCHAR 00F1
ENCODING 241
SWIDTH 500 0
DWIDTH 16 0
BBX 14 20 1 2
BITMAP
0E20
13C0
0000
0000
1000
F3C0
3C60
3830
3030
3030
3030
3030
3030
3030
3030
3030
3030
3030
3030
FCFC
ENDCHAR
STARTCHAR 00F2
ENCODING 242
SWIDTH 500 0
DWIDTH 16 0
BBX 12 21 2 1
BITMAP
3C00
0600
0300
0000
0000
0F00
30C0
6060
6060
C020
C030
C030
C030
C030
C030
C030
4020
6060
2060
30C0
0F00
ENDCHAR
STARTCHAR 00F3
ENCODING 243
SWIDTH 500 0
DWIDTH 16 0
BBX 12 21 2 1
BITMAP
03C0
0600
0C00
0000
0000
0F00
30C0
6060
6060
C020
C030
C030
C030
C030
C030
C030
4020
6060
2060
30C0
0F00
ENDCHAR
STARTCHAR 00F4
ENCODING 244
SWIDTH 500 0
DWIDTH 16 0
BBX 12 21 2 1
BITMAP
0600
0F00
1080
2040
0000
0F00
30C0
6060
6060
C020
C030
C030
C030
C030
C030
C030
4020
6060
2060
30C0
0F00
ENDCHAR
STARTCHAR 00F5
ENCODING 245
SWIDTH 500 0
DWIDTH 16 0
BBX 12 21 2 1
BITMAP
1C40
2380
0000
0000
0000
0F00
30C0
6060
6060
C020
C030
C030
C030
C030
C030
C030
4020
6060
2060
30C0
0F00
ENDCHAR
STARTCHAR 00F6
ENCODING 246
SWIDTH 500 0
DWIDTH 16 0
BBX 12 21 2 1
BITMAP
70E0
70E0
70E0
0000
0000
0F00
30C0
6060
6060
C020
C030
C030
C030
C030
C030
C030
4020
6060
2060
30C0
0F00
ENDCHAR
STARTCHAR 00F7
ENCODING 247
SWIDTH 1000 0
DWIDTH 32 0
BBX 22 16 5 5
BITMAP
003000
007800
007800
003000
000000
000000
000000
000000
FFFFFC
000000
000000
000000
003000
007800
007800
003000
ENDCHAR
STARTCHAR 00F8
ENCODING 248
SWIDTH 500 0
DWIDTH 16 0
BBX 12 19 2 0
BITMAP
0020
0020
0FE0
30C0
60E0
60E0
C130
C130
C230
C230
C430
CC30
C830
5820
7060
6040
30C0
4F00
4000
ENDCHAR
STARTCHAR 00F9
ENCODING 249
SWIDTH 500 0
DWIDTH 16 0
BBX 14 21 1 0
BITMAP
1E00
0700
0180
0000
0000
F0F0
3030
3030
3030
3030
3030
3030
3030
3030
3030
3030
3030
3030
3070
18B0
0F3C
ENDCHAR
STARTCHAR 00FA
ENCODING 250
SWIDTH 500 0
DWIDTH 16 0
BBX 14 21 1 0
BITMAP
01E0
0300
0600
0000
0000
F0F0
3030
3030
3030
3030
3030
3030
3030
3030
3030
3030
3030
3030
3070
18B0
0F3C
ENDCHAR
STARTCHAR 00FB
ENCODING 251
SWIDTH 500 0
DWIDTH 16 0
BBX 14 21 1 0
BITMAP
0300
0780
0840
1000
0000
F0F0
3030
3030
3030
3030
3030
3030
3030
3030
3030
3030
3030
3030
3070
18B0
0F3C
ENDCHAR
STARTCHAR 00FC
ENCODING 252
SWIDTH 500 0
DWIDTH 16 0
BBX 14 21 1 0
BITMAP
1C70
1C70
1C70
0000
0000
7070
F0F0
3030
3030
3030
3030
3030
3030
3030
3030
3030
3030
3030
3070
18B0
0F3C
ENDCHAR
STARTCHAR 00FD
ENCODING 253
SWIDTH 500 0
DWIDTH 16 0
BBX 15 25 1 -3
BITMAP
01E0
0300
0600
0000
0000
FC7E
7018
3010
1010
1830
1820
0C20
0C40
0440
0640
0680
0380
0380
0100
0100
0300
0200
7600
6400
3800
ENDCHAR
STARTCHAR 00FE
ENCODING 254
SWIDTH 500 0
DWIDTH 16 0
BBX 13 28 2 -3
BITMAP
1000
F000
3000
3000
3000
3000
3000
3000
37C0
3860
3030
3030
3018
3018
3018
3018
3018
3018
3018
3018
3030
3030
3860
37C0
3000
3000
3000
FC00
ENDCHAR
STARTCHAR 00FF
ENCODING 255
SWIDTH 500 0
DWIDTH 16 0
BBX 15 25 1 -3
BITMAP
1C70
1C70
1C70
0000
0000
FC7E
7018
3010
1010
1830
1820
0C20
0C40
0440
0640
0680
0380
0380
0100
0100
0300
0200
7600
6400
3800
ENDCHAR
STARTCHAR 0100
ENCODING 256
SWIDTH 500 0
DWIDTH 16 0
BBX 14 25 1 2
BITMAP
1FE0
0000
0200
0300
0300
0300
0700
0580
0580
0580
0C80
08C0
08C0
08C0
1840
1060
1FE0
1060
2030
2030
2030
4010
4018
4018
F07C
ENDCHAR
STARTCHAR 0101
ENCODING 257
SWIDTH 500 0
DWIDTH 16 0
BBX 13 20 2 1
BITMAP
3FC0
0000
0000
0000
1F00
6180
6080
60C0
60C0
00C0
07C0
18C0
70C0
60C0
C0C0
C0C0
C0C0
C1C8
63D0
3C60
ENDCHAR
STARTCHAR 0102
ENCODING 258
SWIDTH 500 0
DWIDTH 16 0
BBX 14 26 1 2
BITMAP
1060
0840
0780
0000
0300
0300
0300
0300
0580
0580
0580
0C80
08C0
08C0
08C0
1840
1060
1FE0
1060
2030
2030
2030
4010
4018
4018
F07C
ENDCHAR
STARTCHAR 0103
ENCODING 259
SWIDTH 500 0
DWIDTH 16 0
BBX 13 21 2 1
BITMAP
2080
3180
0E00
0000
0000
3F00
6180
E180
E0C0
E0C0
00C0
07C0
18C0
70C0
60C0
C0C0
C0C0
C0C0
C1C8
63D0
3C60
ENDCHAR
STARTCHAR 0104
ENCODING 260
SWIDTH 500 0
DWIDTH 16 0
BBX 14 29 1 -4
BITMAP
0200
0300
0300
0300
0700
0580
0580
0580
0C80
08C0
08C0
08C0
1840
1060
1FE0
1060
2030
2030
2030
4010
4018
4018
F07C
0010
0020
0060
0064
0064
0038
ENDCHAR
STARTCHAR 0105
ENCODING 261
SWIDTH 500 0
DWIDTH 16 0
BBX 13 21 2 -4
BITMAP
3F00
6180
E180
E0C0
E0C0
00C0
07C0
18C0
70C0
60C0
C0C0
C0C0
C0C0
C1C8
63D0
3C70
00C0
0180
0180
0188
00F0
ENDCHAR
STARTCHAR 0106
ENCODING 262
SWIDTH 500 0
DWIDTH 16 0
BBX 12 27 3 1
BITMAP
03C0
0600
0800
1000
0F20
10E0
2060
2060
6020
4020
4020
C000
C000
C000
C000
C000
C000
C000
C000
C010
C020
6020
6020
6060
3040
1880
0F00
ENDCHAR
STARTCHAR 0107
ENCODING 263
SWIDTH 500 0
DWIDTH 16 0
BBX 11 21 3 1
BITMAP
0780
0C00
1800
0000
0000
1F00
3080
60C0
E0C0
C0C0
C000
C000
C000
C000
C000
C000
4020
6020
6040
3080
0F00
ENDCHAR
STARTCHAR 0108
ENCODING 264
SWIDTH 500 0
DWIDTH 16 0
BBX 12 27 3 1
BITMAP
0E00
1B00
1080
2040
0F20
10E0
2060
2060
6020
4020
4020
C000
C000
C000
C000
C000
C000
C000
C000
C010
C020
6020
6020
6060
3040
1880
0F00
ENDCHAR
STARTCHAR 0109
ENCODING 265
SWIDTH 500 0
DWIDTH 16 0
BBX 11 21 3 1
BITMAP
0E00
1B00
3080
0000
0000
1F00
3080
60C0
E0C0
C0C0
C000
C000
C000
C000
C000
C000
4020
6020
6040
3080
0F00
ENDCHAR
STARTCHAR 010C
ENCODING 268
SWIDTH 500 0
DWIDTH 16 0
BBX 12 27 3 1
BITMAP
30C0
0B00
0E00
0000
0F20
18E0
3060
6060
6020
6020
C020
C000
C000
C000
C000
C000
C000
C000
C000
C030
C020
6020
6020
2060
3040
1880
0F00
ENDCHAR
STARTCHAR 010D
ENCODING 269
SWIDTH 500 0
DWIDTH 16 0
BBX 11 21 3 1
BITMAP
3080
1B00
0E00
0000
0000
1F00
3080
60C0
E0C0
C0C0
C000
C000
C000
C000
C000
C000
4020
6020
6040
3080
0F00
ENDCHAR
STARTCHAR 010E
ENCODING 270
SWIDTH 500 0
DWIDTH 16 0
BBX 13 26 1 2
BITMAP
30C0
0F00
0600
0000
FF00
30C0
3060
3030
3030
3030
3018
3018
3018
3018
3018
3018
3018
3018
3018
3018
3030
3030
3030
3060
30C0
FF00
ENDCHAR
STARTCHAR 010F
ENCODING 271
SWIDTH 500 0
DWIDTH 16 0
BBX 14 26 1 0
BITMAP
001C
001C
005C
03DC
00C4
00C8
00D0
00C0
00C0
00C0
1EC0
31C0
60C0
60C0
C0C0
C0C0
C0C0
C0C0
C0C0
C0C0
C0C0
C0C0
60C0
61C0
31C0
1EF0
ENDCHAR
STARTCHAR 0111
ENCODING 273
SWIDTH 500 0
DWIDTH 16 0
BBX 13 23 2 1
BITMAP
01E0
00E0
0060
0060
03F8
0060
0060
0F60
30E0
6060
6060
E060
C060
C060
C060
C060
C060
C060
C060
6060
60E0
31E0
1F78
ENDCHAR
STARTCHAR 0112
ENCODING 274
SWIDTH 500 0
DWIDTH 16 0
BBX 13 25 1 2
BITMAP
1FE0
0000
0000
FFF8
3038
3018
3008
3008
3008
3000
3040
3040
30C0
3FC0
30C0
3040
3040
3000
3000
3008
3008
3008
3008
3018
FFF8
ENDCHAR
STARTCHAR 0113
ENCODING 275
SWIDTH 500 0
DWIDTH 16 0
BBX 12 20 2 1
BITMAP
3FC0
0000
0000
0000
0F00
30C0
6040
6060
E060
C060
FFF0
C000
C000
C000
E000
6020
6020
3040
38C0
0F00
ENDCHAR
STARTCHAR 0118
ENCODING 280
SWIDTH 500 0
DWIDTH 16 0
BBX 13 28 1 -4
BITMAP
FFF8
3038
3018
3008
3008
3008
3000
3040
3040
30C0
3FC0
30C0
3040
3040
3000
3000
3008
3008
3008
3008
3018
FFF8
0200
0600
0C00
0C40
0C80
0700
ENDCHAR
STARTCHAR 0119
ENCODING 281
SWIDTH 500 0
DWIDTH 16 0
BBX 12 21 2 -4
BITMAP
0F00
30C0
6040
6060
E060
C020
FFF0
C000
C000
C000
E000
6020
6020
3060
38C0
0F80
0600
0C00
0C00
0C80
0700
ENDCHAR
STARTCHAR 011A
ENCODING 282
SWIDTH 500 0
DWIDTH 16 0
BBX 13 26 1 2
BITMAP
1840
0D80
0700
0000
FFF8
3038
3018
3008
3008
3008
3000
3040
3040
30C0
3FC0
30C0
3040
3040
3000
3000
3008
3008
3008
3008
3018
FFF8
ENDCHAR
STARTCHAR 011B
ENCODING 283
SWIDTH 500 0
DWIDTH 16 0
BBX 12 21 2 1
BITMAP
30C0
0F00
0600
0000
0000
0F00
30C0
6040
6060
E060
C020
FFF0
C000
C000
C000
E000
6020
6020
3040
38C0
0F00
ENDCHAR
STARTCHAR 011C
ENCODING 284
SWIDTH 500 0
DWIDTH 16 0
BBX 14 27 1 1
BITMAP
0700
0D80
1840
0020
0F90
18F0
3030
2030
6010
6010
C000
C000
C000
C000
C000
C000
C0FC
C030
C030
C030
C030
6030
6030
2030
3070
18D0
0F10
ENDCHAR
STARTCHAR 011D
ENCODING 285
SWIDTH 500 0
DWIDTH 16 0
BBX 14 25 1 -3
BITMAP
0700
0D80
1840
0000
0000
0FFC
38EC
3070
6030
6030
6030
7060
38E0
1F80
2000
6000
7800
3FE0
31F8
C01C
C00C
C00C
E00C
7038
1FE0
ENDCHAR
STARTCHAR 0124
ENCODING 292
SWIDTH 500 0
DWIDTH 16 0
BBX 14 26 1 2
BITMAP
0300
0780
0840
0000
FCFC
3030
3030
3030
3030
3030
3030
3030
3030
3030
3FF0
3030
3030
3030
3030
3030
3030
3030
3030
3030
3030
FCFC
ENDCHAR
STARTCHAR 0125
ENCODING 293
SWIDTH 500 0
DWIDTH 16 0
BBX 14 26 1 2
BITMAP
0380
0680
0840
0020
F000
3000
3000
3000
3000
3000
3000
33C0
3C60
3830
3030
3030
3030
3030
3030
3030
3030
3030
3030
3030
3030
FCFC
ENDCHAR
STARTCHAR 0127
ENCODING 295
SWIDTH 500 0
DWIDTH 16 0
BBX 14 22 1 3
BITMAP
7000
F000
3000
3000
FE00
3000
3000
33C0
3C60
3830
3030
3030
3030
3030
3030
3030
3030
3030
3030
3030
3030
FCFC
ENDCHAR
STARTCHAR 012A
ENCODING 298
SWIDTH 500 0
DWIDTH 16 0
BBX 8 25 4 2
BITMAP
FF
00
00
7E
18
18
18
18
18
18
18
18
18
18
18
18
18
18
18
18
18
18
18
18
7E
ENDCHAR
STARTCHAR 012B
ENCODING 299
SWIDTH 500 0
DWIDTH 16 0
BBX 8 19 4 2
BITMAP
FF
00
00
00
78
18
18
18
18
18
18
18
18
18
18
18
18
18
7E
ENDCHAR
STARTCHAR 0134
ENCODING 308
SWIDTH 500 0
DWIDTH 16 0
BBX 13 27 2 1
BITMAP
01C0
0360
0210
0408
07F0
00C0
00C0
00C0
00C0
00C0
00C0
00C0
00C0
00C0
00C0
00C0
00C0
00C0
00C0
00C0
00C0
E0C0
E0C0
E080
C180
6300
1E00
ENDCHAR
STARTCHAR 0135
ENCODING 309
SWIDTH 500 0
DWIDTH 16 0
BBX 10 25 3 -3
BITMAP
0700
0D80
1040
0000
0100
0F00
0300
0300
0300
0300
0300
0300
0300
0300
0300
0300
0300
0300
0300
0300
C300
C300
C300
4600
3C00
ENDCHAR
STARTCHAR 0139
ENCODING 313
SWIDTH 500 0
DWIDTH 16 0
BBX 12 26 2 2
BITMAP
03C0
0600
0800
1000
FC00
3000
3000
3000
3000
3000
3000
3000
3000
3000
3000
3000
3000
3000
3000
3000
3010
3010
3010
3030
3070
FFF0
ENDCHAR
STARTCHAR 013A
ENCODING 314
SWIDTH 500 0
DWIDTH 16 0
BBX 7 26 5 2
BITMAP
1E
70
C0
10
F0
30
30
30
30
30
30
30
30
30
30
30
30
30
30
30
30
30
30
30
30
FC
ENDCHAR
STARTCHAR 013D
ENCODING 317
SWIDTH 500 0
DWIDTH 16 0
BBX 12 24 2 2
BITMAP
00E0
00E0
FCE0
3020
3040
3080
3000
3000
3000
3000
3000
3000
3000
3000
3000
3000
3000
3000
3010
3010
3010
3030
3070
FFF0
ENDCHAR
STARTCHAR 013E
ENCODING 318
SWIDTH 500 0
DWIDTH 16 0
BBX 10 25 5 2
BITMAP
0180
03C0
33C0
F3C0
3080
3180
3200
3000
3000
3000
3000
3000
3000
3000
3000
3000
3000
3000
3000
3000
3000
3000
3000
3000
FC00
ENDCHAR
STARTCHAR 0141
ENCODING 321
SWIDTH 500 0
DWIDTH 16 0
BBX 13 22 1 2
BITMAP
7E00
1800
1800
1800
1800
1800
1A00
1B00
1E00
1C00
1800
3800
7800
D800
1800
1800
1808
1808
1808
1818
1838
7FF8
ENDCHAR
STARTCHAR 0142
ENCODING 322
SWIDTH 500 0
DWIDTH 16 0
BBX 10 23 3 3
BITMAP
0C00
3C00
0C00
0C00
0C00
0C00
0C00
0CC0
0D80
0E00
0C00
0C00
1C00
2C00
CC00
8C00
0C00
0C00
0C00
0C00
0C00
0C00
3F00
ENDCHAR
STARTCHAR 0143
ENCODING 323
SWIDTH 500 0
DWIDTH 16 0
BBX 14 27 1 1
BITMAP
01E0
0300
0600
0000
F07C
3810
3810
3810
2C10
2C10
2610
2610
2610
2310
2310
2190
2190
2190
20D0
20D0
2070
2070
2030
2030
2030
F810
0010
ENDCHAR
STARTCHAR 0144
ENCODING 324
SWIDTH 500 0
DWIDTH 16 0
BBX 14 20 1 2
BITMAP
01E0
0300
0400
0000
1000
F3C0
3C60
3830
3030
3030
3030
3030
3030
3030
3030
3030
3030
3030
3030
FCFC
ENDCHAR
STARTCHAR 0147
ENCODING 327
SWIDTH 500 0
DWIDTH 16 0
BBX 14 27 1 1
BITMAP
1860
0780
0300
0000
F07C
3810
3810
3810
2C10
2C10
2610
2610
2610
2310
2310
2190
2190
2190
20D0
20D0
2070
2070
2030
2030
2030
F810
0010
ENDCHAR
STARTCHAR 0148
ENCODING 328
SWIDTH 500 0
DWIDTH 16 0
BBX 14 20 1 2
BITMAP
1840
0580
0300
0000
1000
F3C0
3C60
3830
3030
3030
3030
3030
3030
3030
3030
3030
3030
3030
3030
FCFC
ENDCHAR
STARTCHAR 014B
ENCODING 331
SWIDTH 500 0
DWIDTH 16 0
BBX 12 21 1 -3
BITMAP
1000
F3C0
3C60
3830
3030
3030
3030
3030
3030
3030
3030
3030
3030
3030
3030
FC30
0030
0030
0730
0660
03C0
ENDCHAR
STARTCHAR 014C
ENCODING 332
SWIDTH 500 0
DWIDTH 16 0
BBX 12 26 2 1
BITMAP
3FC0
0000
0000
0F00
1880
3040
6060
6060
6020
C030
C030
C030
C030
C030
C030
C030
C030
C030
C030
C030
4060
6060
6060
30C0
1180
0F00
ENDCHAR
STARTCHAR 014D
ENCODING 333
SWIDTH 500 0
DWIDTH 16 0
BBX 12 20 2 1
BITMAP
3FC0
0000
0000
0000
0F00
30C0
6060
6060
C020
C030
C030
C030
C030
C030
C030
4020
6060
2060
30C0
0F00
ENDCHAR
STARTCHAR 0150
ENCODING 336
SWIDTH 500 0
DWIDTH 16 0
BBX 13 27 2 1
BITMAP
0FF8
1CC0
3100
0200
0F00
1980
30C0
6060
6060
6060
C030
C030
C030
C030
C030
C030
C030
C030
C030
C030
C030
4060
6060
6060
30C0
1180
0F00
ENDCHAR
STARTCHAR 0151
ENCODING 337
SWIDTH 500 0
DWIDTH 16 0
BBX 13 21 2 1
BITMAP
0FF8
1CC0
3100
0000
0000
0F00
30C0
6060
6060
C020
C030
C030
C030
C030
C030
C030
4020
6060
2060
30C0
0F00
ENDCHAR
STARTCHAR 0152
ENCODING 338
SWIDTH 500 0
DWIDTH 16 0
BBX 13 23 2 1
BITMAP
0FF0
3310
2310
6310
6310
4300
C300
C320
C320
C320
C3E0
C320
C320
C320
C300
C300
C300
4308
6308
6318
2318
33F8
1E00
ENDCHAR
STARTCHAR 0153
ENCODING 339
SWIDTH 500 0
DWIDTH 16 0
BBX 12 16 2 1
BITMAP
39C0
6D20
4730
C630
C630
C630
C7F0
C600
C600
C600
C620
C610
C610
4F10
6D20
39C0
ENDCHAR
STARTCHAR 0154
ENCODING 340
SWIDTH 500 0
DWIDTH 16 0
BBX 14 26 1 2
BITMAP
01E0
0300
0400
0800
FF80
3060
3030
3018
3018
3018
3018
3018
3030
3060
3F80
3300
3180
3180
30C0
30C0
3060
3060
3070
3030
3038
FC1C
ENDCHAR
STARTCHAR 0155
ENCODING 341
SWIDTH 500 0
DWIDTH 16 0
BBX 11 20 3 2
BITMAP
0780
0E00
1800
0000
1000
F1C0
36E0
34E0
3800
3000
3000
3000
3000
3000
3000
3000
3000
3000
3000
FC00
ENDCHAR
STARTCHAR 0158
ENCODING 344
SWIDTH 500 0
DWIDTH 16 0
BBX 14 26 1 2
BITMAP
10C0
0D80
0700
0000
FF80
3060
3030
3018
3018
3018
3018
3018
3030
3060
3F80
3300
3180
3180
30C0
30C0
3060
3060
3070
3030
3038
FC1C
ENDCHAR
STARTCHAR 0159
ENCODING 345
SWIDTH 500 0
DWIDTH 16 0
BBX 11 20 3 2
BITMAP
6180
1E00
0C00
0000
1000
F1C0
36E0
34E0
3800
3000
3000
3000
3000
3000
3000
3000
3000
3000
3000
FC00
ENDCHAR
STARTCHAR 015A
ENCODING 346
SWIDTH 500 0
DWIDTH 16 0
BBX 12 27 2 1
BITMAP
07C0
0E00
1800
0000
1F20
61E0
C060
C060
C020
C020
E000
6000
7000
3C00
0F00
0780
01C0
00E0
0060
8030
8030
8030
C030
C030
E060
B0C0
8F80
ENDCHAR
STARTCHAR 015B
ENCODING 347
SWIDTH 500 0
DWIDTH 16 0
BBX 11 21 3 1
BITMAP
03C0
0E00
1800
0000
0000
3F40
61C0
C0C0
C040
C040
E000
7800
1E00
0780
01C0
80E0
8060
C060
C060
F0C0
9F00
ENDCHAR
STARTCHAR 015C
ENCODING 348
SWIDTH 500 0
DWIDTH 16 0
BBX 12 27 2 1
BITMAP
0E00
1B00
3080
0040
1F20
71E0
6060
C060
C020
C020
C000
6000
7000
3800
1E00
0780
01C0
00E0
0060
8030
8030
8030
C030
C030
E060
B0C0
8F80
ENDCHAR
STARTCHAR 015D
ENCODING 349
SWIDTH 500 0
DWIDTH 16 0
BBX 11 21 3 1
BITMAP
0E00
1B00
2180
4000
0000
3F40
61C0
C0C0
C040
C040
E000
7800
1E00
0780
01C0
80E0
8060
C060
C060
F0C0
9F00
ENDCHAR
STARTCHAR 015E
ENCODING 350
SWIDTH 500 0
DWIDTH 16 0
BBX 12 28 2 -3
BITMAP
1F20
71E0
6060
C060
C020
C020
E000
6000
7800
1C00
0F00
0380
01C0
0060
8070
8030
8030
C030
C030
E060
B0C0
0F80
0600
0F00
0F00
0F00
0600
0800
ENDCHAR
STARTCHAR 015F
ENCODING 351
SWIDTH 500 0
DWIDTH 16 0
BBX 11 21 3 -3
BITMAP
3F40
E1C0
C0C0
C040
6000
3000
0E00
0380
00C0
8060
8060
C060
E0C0
9F80
0000
0E00
0E00
0E00
0E00
0400
0800
ENDCHAR
STARTCHAR 0160
ENCODING 352
SWIDTH 500 0
DWIDTH 16 0
BBX 12 27 2 1
BITMAP
30C0
1B00
0E00
0000
1F20
71E0
60E0
C060
C020
C020
C000
6000
7000
3800
1E00
0780
01C0
00E0
0060
8070
8030
8030
C030
C030
E060
B0C0
8F80
ENDCHAR
STARTCHAR 0161
ENCODING 353
SWIDTH 500 0
DWIDTH 16 0
BBX 11 21 3 1
BITMAP
6180
1B00
0E00
0000
0000
3F40
61C0
C0C0
C040
C040
E000
7800
1E00
0780
01C0
80E0
8060
C060
C060
F0C0
9F00
ENDCHAR
STARTCHAR 0162
ENCODING 354
SWIDTH 500 0
DWIDTH 16 0
BBX 12 28 2 -4
BITMAP
FFF0
C630
8610
8610
8610
8610
0600
0600
0600
0600
0600
0600
0600
0600
0600
0600
0600
0600
0600
0600
1F80
0000
0E00
0F00
0F00
0300
0600
0C00
ENDCHAR
STARTCHAR 0163
ENCODING 355
SWIDTH 500 0
DWIDTH 16 0
BBX 10 26 3 -4
BITMAP
0800
0800
1800
1800
7800
FF80
1800
1800
1800
1800
1800
1800
1800
1800
1800
1800
1840
1880
0F00
0000
1C00
1E00
1E00
0600
0C00
1800
ENDCHAR
STARTCHAR 0164
ENCODING 356
SWIDTH 500 0
DWIDTH 16 0
BBX 12 26 2 2
BITMAP
30C0
0F00
0600
0000
FFF0
C630
8610
8610
8610
8610
0600
0600
0600
0600
0600
0600
0600
0600
0600
0600
0600
0600
0600
0600
0600
1F80
ENDCHAR
STARTCHAR 0165
ENCODING 357
SWIDTH 500 0
DWIDTH 16 0
BBX 10 26 3 1
BITMAP
01C0
01C0
01C0
01C0
0080
0880
0900
1800
1800
7800
FF80
1800
1800
1800
1800
1800
1800
1800
1800
1800
1800
1800
1840
1840
1C80
0F00
ENDCHAR
STARTCHAR 016A
ENCODING 362
SWIDTH 500 0
DWIDTH 16 0
BBX 16 26 0 1
BITMAP
0FF0
0000
0000
FC3F
3004
3004
3004
3004
3004
3004
3004
3004
3004
3004
3004
3004
3004
3004
3004
3004
3004
300C
3008
1818
0C30
07E0
ENDCHAR
STARTCHAR 016B
ENCODING 363
SWIDTH 500 0
DWIDTH 16 0
BBX 14 20 1 0
BITMAP
1FE0
0000
0000
0000
F0F0
3030
3030
3030
3030
3030
3030
3030
3030
3030
3030
3030
3030
3070
18B0
0F3C
ENDCHAR
STARTCHAR 016C
ENCODING 364
SWIDTH 500 0
DWIDTH 16 0
BBX 16 27 0 1
BITMAP
0810
0420
03C0
0000
FC1F
3004
3004
3004
3004
3004
3004
3004
3004
3004
3004
3004
3004
3004
3004
3004
3004
3004
3004
3008
1808
0C30
07E0
ENDCHAR
STARTCHAR 016D
ENCODING 365
SWIDTH 500 0
DWIDTH 16 0
BBX 14 21 1 0
BITMAP
1840
08C0
0780
0000
0000
F0F0
7070
3030
3030
3030
3030
3030
3030
3030
3030
3030
3030
3030
3070
18B0
0F3C
ENDCHAR
STARTCHAR 016E
ENCODING 366
SWIDTH 500 0
DWIDTH 16 0
BBX 16 27 0 1
BITMAP
01C0
0220
0220
0240
FD9F
3004
3004
3004
3004
3004
3004
3004
3004
3004
3004
3004
3004
3004
3004
3004
3004
3004
3004
3008
1808
0C30
07E0
ENDCHAR
STARTCHAR 016F
ENCODING 367
SWIDTH 500 0
DWIDTH 16 0
BBX 14 22 1 0
BITMAP
0300
0480
0480
0480
0300
0000
7070
F0F0
3030
3030
3030
3030
3030
3030
3030
3030
3030
3030
3030
3070
18B0
0F3C
ENDCHAR
STARTCHAR 0170
ENCODING 368
SWIDTH 500 0
DWIDTH 16 0
BBX 16 27 0 1
BITMAP
03EF
0738
0C60
1000
FC1F
3004
3004
3004
3004
3004
3004
3004
3004
3004
3004
3004
3004
3004
3004
3004
3004
3004
3004
3008
1808
0C30
07E0
ENDCHAR
STARTCHAR 0171
ENCODING 369
SWIDTH 500 0
DWIDTH 16 0
BBX 14 21 1 0
BITMAP
03BC
0E60
1880
0100
0000
F0F0
7070
3030
3030
3030
3030
3030
3030
3030
3030
3030
3030
3030
3070
18B0
0F3C
ENDCHAR
STARTCHAR 0179
ENCODING 377
SWIDTH 500 0
DWIDTH 16 0
BBX 12 26 2 2
BITMAP
01E0
0300
0400
0800
7FF0
6030
4060
4060
40C0
40C0
0180
0180
0300
0300
0600
0600
0C00
0C00
1800
1800
3010
3010
7010
6010
E070
FFF0
ENDCHAR
STARTCHAR 017A
ENCODING 378
SWIDTH 500 0
DWIDTH 16 0
BBX 12 20 2 2
BITMAP
01E0
0300
0400
0800
0000
7FF0
6060
40C0
40C0
4180
0300
0700
0600
0C00
1C00
1810
3010
6030
E070
FFF0
ENDCHAR
STARTCHAR 017B
ENCODING 379
SWIDTH 500 0
DWIDTH 16 0
BBX 12 26 2 2
BITMAP
0700
0700
0700
0000
7FF0
6030
4060
4060
40C0
40C0
0180
0180
0300
0300
0600
0600
0C00
0C00
1800
1800
3010
3010
7010
6010
E070
FFF0
ENDCHAR
STARTCHAR 017C
ENCODING 380
SWIDTH 500 0
DWIDTH 16 0
BBX 12 21 2 2
BITMAP
0700
0700
0700
0000
0000
0000
7FF0
6060
40C0
40C0
4180
0300
0700
0600
0C00
1C00
1810
3010
6030
E070
FFF0
ENDCHAR
STARTCHAR 017D
ENCODING 381
SWIDTH 500 0
DWIDTH 16 0
BBX 12 26 2 2
BITMAP
10C0
0D80
0700
0000
7FF0
6030
4060
4060
40C0
40C0
0180
0180
0300
0300
0600
0600
0C00
0C00
1800
1800
3010
3010
7010
6010
E070
FFF0
ENDCHAR
STARTCHAR 017E
ENCODING 382
SWIDTH 500 0
DWIDTH 16 0
BBX 12 20 2 2
BITMAP
30C0
0D80
0700
0000
0000
7FF0
6060
40C0
40C0
4180
0300
0700
0600
0C00
1C00
1810
3010
6030
E070
FFF0
ENDCHAR
STARTCHAR 0193
ENCODING 403
SWIDTH 500 0
DWIDTH 16 0
BBX 14 27 2 1
BITMAP
0038
006C
0044
004C
0FCC
11C0
30C0
60C0
6040
4040
C000
C000
C000
C000
C000
C000
C3E0
C0C0
C0C0
C0C0
C0C0
40C0
60C0
60C0
21C0
3140
0E40
ENDCHAR
STARTCHAR 01C2
ENCODING 450
SWIDTH 500 0
DWIDTH 16 0
BBX 10 28 3 -3
BITMAP
0C00
0C00
0C00
0C00
0C00
0C00
0C00
0C00
FFC0
0C00
0C00
0C00
0C00
0C00
0C00
0C00
0C00
0C00
FFC0
0C00
0C00
0C00
0C00
0C00
0C00
0C00
0C00
0C00
ENDCHAR
STARTCHAR 01CD
ENCODING 461
SWIDTH 1000 0
DWIDTH 32 0
BBX 25 26 4 2
BITMAP
00C30000
006E0000
003C0000
00000000
00180000
00180000
003C0000
002C0000
006C0000
00460000
00C60000
00870000
00830000
01838000
01018000
0301C000
0200C000
07FFC000
04006000
0C006000
08007000
08003000
18003800
10001800
30001C00
FE00FF80
ENDCHAR
STARTCHAR 01CE
ENCODING 462
SWIDTH 1000 0
DWIDTH 32 0
BBX 16 21 9 2
BITMAP
38E0
0780
0300
0000
0000
1FC0
70E0
7070
7030
7030
0030
07F0
1C30
3030
6030
C030
C030
C031
C073
61BE
3E1C
ENDCHAR
STARTCHAR 01D0
ENCODING 464
SWIDTH 1000 0
DWIDTH 32 0
BBX 8 21 12 2
BITMAP
81
66
3C
18
00
08
F8
18
18
18
18
18
18
18
18
18
18
18
18
18
FF
ENDCHAR
STARTCHAR 01D1
ENCODING 465
SWIDTH 1000 0
DWIDTH 32 0
BBX 22 27 5 1
BITMAP
018600
00CC00
007800
000000
00FC00
070380
0C00C0
180060
300030
600018
600018
600018
C0000C
C0000C
C0000C
C0000C
C0000C
C0000C
C0000C
600018
600018
600018
300030
180060
0C00C0
070380
01FE00
ENDCHAR
STARTCHAR 01D2
ENCODING 466
SWIDTH 1000 0
DWIDTH 32 0
BBX 16 21 8 2
BITMAP
0E70
03C0
0180
0000
0000
07E0
1C38
300C
6006
6006
C003
C003
C003
C003
C003
C003
6006
600E
300C
1C38
07E0
ENDCHAR
STARTCHAR 01D4
ENCODING 468
SWIDTH 1000 0
DWIDTH 32 0
BBX 18 21 7 1
BITMAP
061C00
01F000
00C000
000000
000000
F81E00
180600
180600
180600
180600
180600
180600
180600
180600
180600
180600
180600
180E00
0C0E00
0E3B00
03E3C0
ENDCHAR
STARTCHAR 01D6
ENCODING 470
SWIDTH 1000 0
DWIDTH 32 0
BBX 18 23 7 1
BITMAP
07FC00
1C0E00
1C0E00
1C0E00
000000
000000
080200
F81E00
180600
180600
180600
180600
180600
180600
180600
180600
180600
180600
180600
180E00
0C0A00
0E3380
03E340
ENDCHAR
STARTCHAR 01D8
ENCODING 472
SWIDTH 1000 0
DWIDTH 32 0
BBX 18 23 7 1
BITMAP
007C00
1CCE00
1D0E00
1C0E00
000000
000000
080200
F81E00
180600
180600
180600
180600
180600
180600
180600
180600
180600
180600
180600
180E00
0C0A00
0E3380
03E340
ENDCHAR
STARTCHAR 01DA
ENCODING 474
SWIDTH 1000 0
DWIDTH 32 0
BBX 18 24 7 1
BITMAP
040C00
033000
1DEE00
1C0E00
1C0E00
000000
000000
080200
F81E00
180600
180600
180600
180600
180600
180600
180600
180600
180600
180600
180600
180E00
0C0A00
0E3380
03E340
ENDCHAR
STARTCHAR 01DC
ENCODING 476
SWIDTH 1000 0
DWIDTH 32 0
BBX 18 23 7 1
BITMAP
0F8000
1CCE00
1C2E00
1C0E00
000000
000000
080200
F81E00
180600
180600
180600
180600
180600
180600
180600
180600
180600
180600
180600
180E00
0C0A00
0E3380
03E340
ENDCHAR
STARTCHAR 01F8
ENCODING 504
SWIDTH 500 0
DWIDTH 16 0
BBX 14 27 1 1
BITMAP
3C00
0600
0180
0000
F07C
3810
3810
3810
2C10
2C10
2610
2610
2610
2310
2310
2190
2190
2190
20D0
20D0
2070
2070
2030
2030
2030
F810
0010
ENDCHAR
STARTCHAR 01F9
ENCODING 505
SWIDTH 500 0
DWIDTH 16 0
BBX 14 20 1 2
BITMAP
3C00
0600
0100
0000
1000
F3C0
3C60
3830
3030
3030
3030
3030
3030
3030
3030
3030
3030
3030
3030
FCFC
ENDCHAR
STARTCHAR 01FD
ENCODING 509
SWIDTH 500 0
DWIDTH 16 0
BBX 12 21 2 1
BITMAP
03C0
0600
0800
1000
0000
79C0
CF60
C620
C630
0630
0630
0FF0
3600
6600
C600
C620
C610
C620
C620
CB60
71C0
ENDCHAR
STARTCHAR 0250
ENCODING 592
SWIDTH 500 0
DWIDTH 16 0
BBX 13 16 1 1
BITMAP
71E0
9E30
9818
1818
1818
1818
1830
1860
1BC0
1C00
1800
1838
1838
0C18
0C30
03C0
ENDCHAR
STARTCHAR 0251
ENCODING 593
SWIDTH 500 0
DWIDTH 16 0
BBX 13 17 2 1
BITMAP
0040
1E40
31C0
60C0
E0C0
C0C0
C0C0
C0C0
C0C0
C0C0
C0C0
C0C0
C0C0
60C0
61C8
31D0
1E60
ENDCHAR
STARTCHAR 0252
ENCODING 594
SWIDTH 500 0
DWIDTH 16 0
BBX 13 16 1 0
BITMAP
73C0
5C60
9830
1830
1818
1818
1818
1818
1818
1818
1818
1818
1830
1830
1C60
13C0
ENDCHAR
STARTCHAR 0253
ENCODING 595
SWIDTH 500 0
DWIDTH 16 0
BBX 11 23 3 0
BITMAP
1E00
7180
60C0
C1C0
C1C0
C1C0
C000
CF00
D180
E0C0
C0C0
C060
C060
C060
C060
C060
C060
C060
C060
C0C0
C0C0
E180
9F00
ENDCHAR
STARTCHAR 0254
ENCODING 596
SWIDTH 500 0
DWIDTH 16 0
BBX 11 16 2 1
BITMAP
1E00
6180
40C0
80C0
0060
0060
0060
0060
0060
0060
0060
6060
60C0
60C0
2180
1F00
ENDCHAR
STARTCHAR 0255
ENCODING 597
SWIDTH 500 0
DWIDTH 16 0
BBX 11 17 3 0
BITMAP
1F00
3080
60C0
E0C0
C0C0
C000
C000
C000
C000
C1C0
C220
C420
6820
7040
30C0
5F00
8000
ENDCHAR
STARTCHAR 0256
ENCODING 598
SWIDTH 500 0
DWIDTH 16 0
BBX 15 28 1 -3
BITMAP
0040
03C0
00C0
00C0
00C0
00C0
00C0
00C0
1EC0
31C0
60C0
60C0
C0C0
C0C0
C0C0
C0C0
C0C0
C0C0
C0C0
C0C0
60C0
60C0
31C0
1ECE
00CE
00CE
0064
0038
ENDCHAR
STARTCHAR 0257
ENCODING 599
SWIDTH 500 0
DWIDTH 16 0
BBX 15 23 1 0
BITMAP
003C
0066
00CE
00CE
00C0
00C0
00C0
1EC0
31C0
60C0
60C0
C0C0
C0C0
C0C0
C0C0
C0C0
C0C0
C0C0
C0C0
60C0
60C0
31C0
1F70
ENDCHAR
STARTCHAR 0258
ENCODING 600
SWIDTH 500 0
DWIDTH 16 0
BBX 12 16 2 1
BITMAP
0F00
31C0
2060
6060
6070
C030
FFF0
0030
0030
0030
0070
8060
4060
20C0
3180
0F00
ENDCHAR
STARTCHAR 0259
ENCODING 601
SWIDTH 500 0
DWIDTH 16 0
BBX 12 16 2 1
BITMAP
1F00
21C0
40E0
4060
0070
0070
0030
0030
FFF0
C030
6070
6060
6060
30C0
19C0
0F00
ENDCHAR
STARTCHAR 025A
ENCODING 602
SWIDTH 500 0
DWIDTH 16 0
BBX 15 16 1 1
BITMAP
1E00
2300
4100
4180
81A0
00E2
03D2
04D4
18CC
20C0
60C0
60C0
6080
3180
1900
0E00
ENDCHAR
STARTCHAR 025C
ENCODING 604
SWIDTH 500 0
DWIDTH 16 0
BBX 11 16 2 1
BITMAP
1F00
6180
40C0
40C0
40C0
00C0
0180
1E00
01C0
00E0
8060
8060
C060
C0E0
E1C0
3F00
ENDCHAR
STARTCHAR 025E
ENCODING 606
SWIDTH 500 0
DWIDTH 16 0
BBX 12 16 2 1
BITMAP
0F80
3FE0
3020
6010
C010
8010
8020
87C0
8020
8010
8010
4010
4030
3060
3FC0
0F80
ENDCHAR
STARTCHAR 025F
ENCODING 607
SWIDTH 500 0
DWIDTH 16 0
BBX 11 20 2 -3
BITMAP
0FC0
0300
0300
0300
0300
0300
0300
0300
0300
0300
0300
3FE0
0300
0300
0300
0300
C300
C200
C600
3C00
ENDCHAR
STARTCHAR 0260
ENCODING 608
SWIDTH 500 0
DWIDTH 16 0
BBX 15 27 1 -3
BITMAP
003C
0066
00CE
00CE
00C0
00C0
00C0
1EC0
31C0
60C0
C0C0
C0C0
C0C0
C0C0
C0C0
C0C0
C0C0
60C0
31C0
1EC0
00C0
E0C0
E0C0
E0C0
C180
6180
1E00
ENDCHAR
STARTCHAR 0261
ENCODING 609
SWIDTH 500 0
DWIDTH 16 0
BBX 11 21 2 -3
BITMAP
0020
1F20
30E0
6060
6060
C060
C060
C060
C060
C060
4060
6060
30E0
1F60
0060
7060
7060
7060
60C0
31C0
0F00
ENDCHAR
STARTCHAR 0264
ENCODING 612
SWIDTH 500 0
DWIDTH 16 0
BBX 14 16 1 1
BITMAP
6018
F03C
9864
8C44
0C80
0780
0700
0300
0300
0300
0580
0580
0580
0580
0580
0300
ENDCHAR
STARTCHAR 0265
ENCODING 613
SWIDTH 500 0
DWIDTH 16 0
BBX 14 20 1 -4
BITMAP
FCFC
3030
3030
3030
3030
3030
3030
3030
3030
3030
3030
3030
3030
3070
18B0
0F30
0030
0030
003C
0038
ENDCHAR
STARTCHAR 0266
ENCODING 614
SWIDTH 500 0
DWIDTH 16 0
BBX 14 22 1 2
BITMAP
07C0
1860
1870
3070
3000
3000
3000
33C0
3C60
3830
3030
3030
3030
3030
3030
3030
3030
3030
3030
3030
3030
FCFC
ENDCHAR
STARTCHAR 0267
ENCODING 615
SWIDTH 500 0
DWIDTH 16 0
BBX 12 27 1 -3
BITMAP
07C0
1860
1870
3070
3000
3000
3000
33C0
3C60
3830
3030
3030
3030
3030
3030
3030
3030
3030
3030
3030
3030
FC30
0030
0030
0730
0660
03C0
ENDCHAR
STARTCHAR 0268
ENCODING 616
SWIDTH 500 0
DWIDTH 16 0
BBX 8 22 4 2
BITMAP
38
38
38
00
00
00
08
78
18
18
18
18
18
FF
18
18
18
18
18
18
18
7E
ENDCHAR
STARTCHAR 026C
ENCODING 620
SWIDTH 500 0
DWIDTH 16 0
BBX 10 23 2 2
BITMAP
0600
1E00
0600
0600
0600
0600
0600
0600
7600
8E00
8600
8600
6600
1FC0
0600
0600
0600
0600
0600
0600
0600
0600
1F80
ENDCHAR
STARTCHAR 026D
ENCODING 621
SWIDTH 500 0
DWIDTH 16 0
BBX 10 27 5 -2
BITMAP
F000
7000
3000
3000
3000
3000
3000
3000
3000
3000
3000
3000
3000
3000
3000
3000
3000
3000
3000
3000
3000
3000
31C0
31C0
31C0
1880
0F00
ENDCHAR
STARTCHAR 026E
ENCODING 622
SWIDTH 500 0
DWIDTH 16 0
BBX 14 28 1 -3
BITMAP
1000
F000
3000
3000
3000
3000
3000
3000
3FF8
3FF0
3830
3060
30C0
3180
3100
33E0
3430
3018
3018
300C
300C
300C
FC0C
000C
0018
1C18
1870
0FC0
ENDCHAR
STARTCHAR 026F
ENCODING 623
SWIDTH 500 0
DWIDTH 16 0
BBX 14 16 1 0
BITMAP
F7BC
6318
6318
6318
6318
6318
6318
6318
6318
6318
6318
6318
6318
6318
673C
39EC
ENDCHAR
STARTCHAR 0270
ENCODING 624
SWIDTH 500 0
DWIDTH 16 0
BBX 14 20 1 -4
BITMAP
F7BC
6318
6318
6318
6318
6318
6318
6318
6318
6318
6318
6318
6318
6318
6738
39D8
0018
0018
001C
0018
ENDCHAR
STARTCHAR 0271
ENCODING 625
SWIDTH 500 0
DWIDTH 16 0
BBX 13 21 1 -3
BITMAP
4000
DE70
7398
6318
6318
6318
6318
6318
6318
6318
6318
6318
6318
6318
6318
F798
0018
0018
0198
0198
00F0
ENDCHAR
STARTCHAR 0272
ENCODING 626
SWIDTH 500 0
DWIDTH 16 0
BBX 15 21 0 -3
BITMAP
0400
1CE0
0730
0618
0618
0618
0618
0618
0618
0618
0618
0618
0618
0618
0618
063E
E600
E600
E600
CC00
3800
ENDCHAR
STARTCHAR 0273
ENCODING 627
SWIDTH 500 0
DWIDTH 16 0
BBX 15 21 1 -3
BITMAP
2000
E700
3980
30C0
30C0
30C0
30C0
30C0
30C0
30C0
30C0
30C0
30C0
30C0
30C0
F8C0
00CE
00CE
00CE
0064
0038
ENDCHAR
STARTCHAR 0275
ENCODING 629
SWIDTH 500 0
DWIDTH 16 0
BBX 12 16 2 1
BITMAP
1F00
30C0
6060
6060
C020
C030
C030
FFF0
C030
C030
C030
6060
6060
2060
30C0
0F00
ENDCHAR
STARTCHAR 0279
ENCODING 633
SWIDTH 500 0
DWIDTH 16 0
BBX 11 16 2 0
BITMAP
07E0
0180
0180
0180
0180
0180
0180
0180
0180
0180
0180
0180
0380
E580
E9E0
71C0
ENDCHAR
STARTCHAR 027A
ENCODING 634
SWIDTH 500 0
DWIDTH 16 0
BBX 11 23 2 0
BITMAP
07E0
0180
0180
0180
0180
0180
0180
0180
0180
0180
0180
0180
0180
0180
0180
0180
0180
0180
0180
0380
E580
E9E0
71C0
ENDCHAR
STARTCHAR 027B
ENCODING 635
SWIDTH 500 0
DWIDTH 16 0
BBX 14 20 1 -3
BITMAP
07E0
0180
0180
0180
0180
0180
0180
0180
0180
0180
0180
0180
0380
E580
E980
719C
019C
019C
00C8
0070
ENDCHAR
STARTCHAR 027D
ENCODING 637
SWIDTH 500 0
DWIDTH 16 0
BBX 11 21 3 -3
BITMAP
1000
F1C0
36E0
34E0
3800
3000
3000
3000
3000
3000
3000
3000
3000
3000
3000
3000
31C0
31C0
31C0
1880
0F00
ENDCHAR
STARTCHAR 027E
ENCODING 638
SWIDTH 500 0
DWIDTH 16 0
BBX 11 15 4 2
BITMAP
0F80
18E0
30E0
30E0
3000
3000
3000
3000
3000
3000
3000
3000
3000
3000
FC00
ENDCHAR
STARTCHAR 0281
ENCODING 641
SWIDTH 500 0
DWIDTH 16 0
BBX 14 15 1 2
BITMAP
FC1C
3030
3070
3060
30C0
30C0
3180
3180
3FC0
3060
3030
3030
3030
3060
FFC0
ENDCHAR
STARTCHAR 0282
ENCODING 642
SWIDTH 500 0
DWIDTH 16 0
BBX 11 20 3 -3
BITMAP
3F40
61C0
C0C0
C040
C040
E000
7800
1E00
0780
01C0
80E0
8060
C060
C060
F0C0
9F00
8000
9C00
DC00
7800
ENDCHAR
STARTCHAR 0283
ENCODING 643
SWIDTH 500 0
DWIDTH 16 0
BBX 14 27 1 -3
BITMAP
00F0
018C
031C
031C
0300
0300
0300
0300
0300
0300
0300
0300
0300
0300
0300
0300
0300
0300
0300
0300
0300
0300
0300
E300
E300
C600
7C00
ENDCHAR
STARTCHAR 0284
ENCODING 644
SWIDTH 500 0
DWIDTH 16 0
BBX 12 27 2 -3
BITMAP
01E0
0330
0630
0630
0600
0600
0600
0600
0600
0600
0600
0600
0600
0600
0600
0600
0600
0600
3FC0
0600
0600
0600
0600
C600
C600
CC00
7800
ENDCHAR
STARTCHAR 0288
ENCODING 648
SWIDTH 500 0
DWIDTH 16 0
BBX 10 25 3 -3
BITMAP
0800
0800
1800
1800
7800
FF80
1800
1800
1800
1800
1800
1800
1800
1800
1800
1800
1800
1800
1800
1800
18C0
18C0
18C0
0CC0
0780
ENDCHAR
STARTCHAR 0289
ENCODING 649
SWIDTH 500 0
DWIDTH 16 0
BBX 14 17 1 0
BITMAP
1010
F0F0
3030
3030
3030
3030
3030
FFFC
3030
3030
3030
3030
3030
3030
3070
18B0
0F3C
ENDCHAR
STARTCHAR 028A
ENCODING 650
SWIDTH 500 0
DWIDTH 16 0
BBX 12 16 2 1
BITMAP
F9F0
30C0
2040
4020
4020
C030
C030
C030
C030
C030
C030
C030
6060
6060
30C0
0F00
ENDCHAR
STARTCHAR 028B
ENCODING 651
SWIDTH 500 0
DWIDTH 16 0
BBX 13 17 1 1
BITMAP
1000
F060
3070
3078
3018
3008
3008
3008
3008
3008
3008
3010
3010
3010
3020
1840
0F80
ENDCHAR
STARTCHAR 028C
ENCODING 652
SWIDTH 500 0
DWIDTH 16 0
BBX 14 16 1 2
BITMAP
0200
0300
0300
0300
0580
0580
08C0
08C0
08C0
1060
1060
1060
2030
2030
6038
F8FC
ENDCHAR
STARTCHAR 028D
ENCODING 653
SWIDTH 500 0
DWIDTH 16 0
BBX 16 16 0 2
BITMAP
0420
0C30
0C30
0C30
0C50
0E50
1658
1258
1288
1288
338C
238C
2104
2104
6186
F3DF
ENDCHAR
STARTCHAR 028E
ENCODING 654
SWIDTH 500 0
DWIDTH 16 0
BBX 16 22 0 2
BITMAP
001E
0037
0027
0040
0040
0080
0080
0100
0100
0100
0380
0380
06C0
04C0
0460
0860
0830
0830
1010
1018
3018
FC7E
ENDCHAR
STARTCHAR 0290
ENCODING 656
SWIDTH 500 0
DWIDTH 16 0
BBX 14 20 1 -3
BITMAP
7FC0
6180
4180
4300
4300
0600
0E00
0C00
1800
1800
3040
7040
6040
E0C0
FFC0
0040
0040
004C
0024
0038
ENDCHAR
STARTCHAR 0291
ENCODING 657
SWIDTH 500 0
DWIDTH 16 0
BBX 13 18 2 -1
BITMAP
7FE0
6060
40C0
41C0
4180
0300
0700
0600
0C00
1800
3870
3088
6108
E218
FFF0
0800
0800
1000
ENDCHAR
STARTCHAR 0292
ENCODING 658
SWIDTH 500 0
DWIDTH 16 0
BBX 11 20 3 -3
BITMAP
FFC0
FF80
C100
8200
8400
0800
1000
3F00
4180
00C0
00C0
0060
0060
0060
0060
C060
C0C0
C0C0
6380
3E00
ENDCHAR
STARTCHAR 0294
ENCODING 660
SWIDTH 500 0
DWIDTH 16 0
BBX 10 22 4 2
BITMAP
3E00
6300
E180
E080
E0C0
00C0
00C0
00C0
00C0
0180
0180
0300
0E00
1800
1800
1800
1800
1800
1800
1800
1800
7E00
ENDCHAR
STARTCHAR 0295
ENCODING 661
SWIDTH 500 0
DWIDTH 16 0
BBX 10 22 2 2
BITMAP
1F00
3180
61C0
C1C0
C1C0
C000
C000
C000
C000
6000
6000
3000
1C00
0600
0600
0600
0600
0600
0600
0600
0600
1F80
ENDCHAR
STARTCHAR 0298
ENCODING 664
SWIDTH 500 0
DWIDTH 16 0
BBX 12 16 2 1
BITMAP
0F00
1080
2040
4020
4020
8010
8610
8F10
8F10
8610
8010
4020
4020
2040
3080
0F00
ENDCHAR
STARTCHAR 029D
ENCODING 669
SWIDTH 500 0
DWIDTH 16 0
BBX 11 27 1 -4
BITMAP
0700
0700
0700
0000
0000
0000
0000
0F00
0700
0300
0300
0300
0300
0300
0300
0300
0300
0300
0300
0300
0300
0300
7B00
8700
8780
86C0
7C20
ENDCHAR
STARTCHAR 02A1
ENCODING 673
SWIDTH 500 0
DWIDTH 16 0
BBX 11 22 3 2
BITMAP
1F00
3180
70C0
70C0
7060
0060
0060
0060
0060
0060
00C0
0180
0300
0C00
0C00
0C00
FF80
0C00
0C00
0C00
0C00
7F00
ENDCHAR
STARTCHAR 02A2
ENCODING 674
SWIDTH 500 0
DWIDTH 16 0
BBX 11 22 2 2
BITMAP
1F00
3080
60C0
60C0
C0C0
C000
C000
C000
C000
6000
6000
3000
1C00
0300
0300
0300
3FE0
0300
0300
0300
0300
1FC0
ENDCHAR
STARTCHAR 02C7
ENCODING 711
SWIDTH 500 0
DWIDTH 16 0
BBX 12 4 2 20
BITMAP
E070
30C0
1F80
0F00
ENDCHAR
STARTCHAR 02C8
ENCODING 712
SWIDTH 500 0
DWIDTH 16 0
BBX 1 4 7 24
BITMAP
80
80
80
80
ENDCHAR
STARTCHAR 02CC
ENCODING 716
SWIDTH 500 0
DWIDTH 16 0
BBX 1 4 7 -2
BITMAP
80
80
80
80
ENDCHAR
STARTCHAR 02D0
ENCODING 720
SWIDTH 500 0
DWIDTH 16 0
BBX 4 15 6 2
BITMAP
F0
70
60
20
00
00
00
00
00
00
00
40
60
E0
F0
ENDCHAR
STARTCHAR 02D1
ENCODING 721
SWIDTH 500 0
DWIDTH 16 0
BBX 4 4 6 12
BITMAP
F0
70
60
20
ENDCHAR
STARTCHAR 02D8
ENCODING 728
SWIDTH 500 0
DWIDTH 16 0
BBX 10 4 3 20
BITMAP
8040
C1C0
7F80
1E00
ENDCHAR
STARTCHAR 02D9
ENCODING 729
SWIDTH 500 0
DWIDTH 16 0
BBX 4 4 6 20
BITMAP
60
F0
F0
60
ENDCHAR
STARTCHAR 02DB
ENCODING 731
SWIDTH 500 0
DWIDTH 16 0
BBX 7 7 4 -2
BITMAP
18
30
60
C0
C2
C2
7C
ENDCHAR
STARTCHAR 02DC
ENCODING 732
SWIDTH 500 0
DWIDTH 16 0
BBX 12 3 2 20
BITMAP
3C30
7FE0
C3C0
ENDCHAR
STARTCHAR 02DD
ENCODING 733
SWIDTH 500 0
DWIDTH 16 0
BBX 12 4 2 20
BITMAP
3EF0
71C0
6300
8400
ENDCHAR
STARTCHAR 02DE
ENCODING 734
SWIDTH 500 0
DWIDTH 16 0
BBX 10 6 3 8
BITMAP
3000
F000
9840
0CC0
0F80
0700
ENDCHAR
STARTCHAR 02E5
ENCODING 741
SWIDTH 500 0
DWIDTH 16 0
BBX 9 32 3 -4
BITMAP
FF80
0080
0080
0080
0080
0080
0080
0080
0080
0080
0080
0080
0080
0080
0080
0080
0080
0080
0080
0080
0080
0080
0080
0080
0080
0080
0080
0080
0080
0080
0080
0080
ENDCHAR
STARTCHAR 02E6
ENCODING 742
SWIDTH 500 0
DWIDTH 16 0
BBX 9 32 3 -4
BITMAP
0080
0080
0080
0080
0080
0080
0080
FF80
0080
0080
0080
0080
0080
0080
0080
0080
0080
0080
0080
0080
0080
0080
0080
0080
0080
0080
0080
0080
0080
0080
0080
0080
ENDCHAR
STARTCHAR 02E7
ENCODING 743
SWIDTH 500 0
DWIDTH 16 0
BBX 9 32 3 -4
BITMAP
0080
0080
0080
0080
0080
0080
0080
0080
0080
0080
0080
0080
0080
0080
0080
FF80
0080
0080
0080
0080
0080
0080
0080
0080
0080
0080
0080
0080
0080
0080
0080
0080
ENDCHAR
STARTCHAR 02E8
ENCODING 744
SWIDTH 500 0
DWIDTH 16 0
BBX 9 32 3 -4
BITMAP
0080
0080
0080
0080
0080
0080
0080
0080
0080
0080
0080
0080
0080
0080
0080
0080
0080
0080
0080
0080
0080
0080
0080
FF80
0080
0080
0080
0080
0080
0080
0080
0080
ENDCHAR
STARTCHAR 02E9
ENCODING 745
SWIDTH 500 0
DWIDTH 16 0
BBX 9 32 3 -4
BITMAP
0080
0080
0080
0080
0080
0080
0080
0080
0080
0080
0080
0080
0080
0080
0080
0080
0080
0080
0080
0080
0080
0080
0080
0080
0080
0080
0080
0080
0080
0080
0080
FF80
ENDCHAR
STARTCHAR 0300
ENCODING 768
SWIDTH 500 0
DWIDTH 16 0
BBX 6 3 4 25
BITMAP
F0
18
0C
ENDCHAR
STARTCHAR 0301
ENCODING 769
SWIDTH 500 0
DWIDTH 16 0
BBX 6 3 6 25
BITMAP
3C
60
C0
ENDCHAR
STARTCHAR 0302
ENCODING 770
SWIDTH 500 0
DWIDTH 16 0
BBX 6 3 5 25
BITMAP
30
78
84
ENDCHAR
STARTCHAR 0303
ENCODING 771
SWIDTH 500 0
DWIDTH 16 0
BBX 9 3 3 25
BITMAP
3800
4C80
8700
ENDCHAR
STARTCHAR 0304
ENCODING 772
SWIDTH 500 0
DWIDTH 16 0
BBX 8 1 4 26
BITMAP
FF
ENDCHAR
STARTCHAR 0306
ENCODING 774
SWIDTH 500 0
DWIDTH 16 0
BBX 8 3 4 25
BITMAP
83
42
3C
ENDCHAR
STARTCHAR 0308
ENCODING 776
SWIDTH 500 0
DWIDTH 16 0
BBX 10 3 3 25
BITMAP
E1C0
E1C0
E1C0
ENDCHAR
STARTCHAR 030B
ENCODING 779
SWIDTH 500 0
DWIDTH 16 0
BBX 11 3 4 25
BITMAP
3FE0
7300
C400
ENDCHAR
STARTCHAR 030C
ENCODING 780
SWIDTH 500 0
DWIDTH 16 0
BBX 8 3 4 25
BITMAP
C3
3C
18
ENDCHAR
STARTCHAR 030F
ENCODING 783
SWIDTH 500 0
DWIDTH 16 0
BBX 11 3 1 25
BITMAP
FF80
19C0
0460
ENDCHAR
STARTCHAR 0318
ENCODING 792
SWIDTH 500 0
DWIDTH 16 0
BBX 4 4 5 -4
BITMAP
10
F0
10
10
ENDCHAR
STARTCHAR 0319
ENCODING 793
SWIDTH 500 0
DWIDTH 16 0
BBX 4 4 7 -4
BITMAP
80
F0
80
80
ENDCHAR
STARTCHAR 031A
ENCODING 794
SWIDTH 500 0
DWIDTH 16 0
BBX 6 3 9 25
BITMAP
FC
04
04
ENDCHAR
STARTCHAR 031C
ENCODING 796
SWIDTH 500 0
DWIDTH 16 0
BBX 3 5 6 -4
BITMAP
20
C0
80
C0
20
ENDCHAR
STARTCHAR 031D
ENCODING 797
SWIDTH 500 0
DWIDTH 16 0
BBX 6 3 5 -3
BITMAP
20
20
FC
ENDCHAR
STARTCHAR 031E
ENCODING 798
SWIDTH 500 0
DWIDTH 16 0
BBX 6 3 5 -3
BITMAP
FC
20
20
ENDCHAR
STARTCHAR 031F
ENCODING 799
SWIDTH 500 0
DWIDTH 16 0
BBX 6 5 5 -4
BITMAP
20
20
FC
20
20
ENDCHAR
STARTCHAR 0320
ENCODING 800
SWIDTH 500 0
DWIDTH 16 0
BBX 6 1 5 -2
BITMAP
FC
ENDCHAR
STARTCHAR 0324
ENCODING 804
SWIDTH 500 0
DWIDTH 16 0
BBX 10 3 3 -3
BITMAP
E1C0
E1C0
E1C0
ENDCHAR
STARTCHAR 0325
ENCODING 805
SWIDTH 500 0
DWIDTH 16 0
BBX 4 4 6 -4
BITMAP
E0
90
90
60
ENDCHAR
STARTCHAR 0329
ENCODING 809
SWIDTH 500 0
DWIDTH 16 0
BBX 1 4 7 -4
BITMAP
80
80
80
80
ENDCHAR
STARTCHAR 032A
ENCODING 810
SWIDTH 500 0
DWIDTH 16 0
BBX 8 3 4 -3
BITMAP
FF
81
81
ENDCHAR
STARTCHAR 032C
ENCODING 812
SWIDTH 500 0
DWIDTH 16 0
BBX 8 3 4 -3
BITMAP
C3
3C
18
ENDCHAR
STARTCHAR 032F
ENCODING 815
SWIDTH 500 0
DWIDTH 16 0
BBX 8 3 4 -3
BITMAP
3C
42
C3
ENDCHAR
STARTCHAR 0330
ENCODING 816
SWIDTH 500 0
DWIDTH 16 0
BBX 8 3 4 -3
BITMAP
71
99
0E
ENDCHAR
STARTCHAR 0334
ENCODING 820
SWIDTH 500 0
DWIDTH 16 0
BBX 8 3 4 11
BITMAP
71
99
0E
ENDCHAR
STARTCHAR 0339
ENCODING 825
SWIDTH 500 0
DWIDTH 16 0
BBX 3 5 7 -4
BITMAP
80
60
20
60
80
ENDCHAR
STARTCHAR 033A
ENCODING 826
SWIDTH 500 0
DWIDTH 16 0
BBX 8 3 4 -3
BITMAP
81
81
FF
ENDCHAR
STARTCHAR 033B
ENCODING 827
SWIDTH 500 0
DWIDTH 16 0
BBX 6 3 5 -3
BITMAP
FC
84
FC
ENDCHAR
STARTCHAR 033C
ENCODING 828
SWIDTH 500 0
DWIDTH 16 0
BBX 10 3 3 -3
BITMAP
7380
CC80
0040
ENDCHAR
STARTCHAR 033D
ENCODING 829
SWIDTH 500 0
DWIDTH 16 0
BBX 8 3 4 25
BITMAP
E7
18
E7
ENDCHAR
STARTCHAR 0361
ENCODING 865
SWIDTH 500 0
DWIDTH 16 0
BBX 14 4 1 23
BITMAP
0FC0
3030
4008
8004
ENDCHAR
STARTCHAR 0391
ENCODING 913
SWIDTH 1000 0
DWIDTH 32 0
BBX 25 23 4 2
BITMAP
00100000
00180000
00180000
003C0000
002C0000
006E0000
00460000
00C60000
00830000
00830000
01838000
01018000
0301C000
0200C000
07FFE000
04006000
0C006000
08007000
08003000
18003800
10001800
30001C00
FE00FF80
ENDCHAR
STARTCHAR 0392
ENCODING 914
SWIDTH 1000 0
DWIDTH 32 0
BBX 19 22 6 2
BITMAP
FFFC00
1C0700
180180
1800C0
1800C0
1800C0
1800C0
180180
180380
180E00
1FF800
180700
1801C0
1800C0
180060
180060
180060
180060
1800E0
1800C0
1C0780
FFFE00
ENDCHAR
STARTCHAR 0393
ENCODING 915
SWIDTH 1000 0
DWIDTH 32 0
BBX 18 22 7 2
BITMAP
FFFFC0
3C03C0
1800C0
1800C0
180040
180040
180000
180000
180000
180000
180000
180000
180000
180000
180000
180000
180000
180000
180000
180000
380000
FF0000
ENDCHAR
STARTCHAR 0394
ENCODING 916
SWIDTH 1000 0
DWIDTH 32 0
BBX 22 23 5 2
BITMAP
003000
003000
007000
005800
005800
008C00
008C00
018E00
010600
030700
020300
060380
040180
0C0180
0800C0
0800C0
1000E0
100060
300070
200030
600038
7FFFF8
FFFFFC
ENDCHAR
STARTCHAR 0395
ENCODING 917
SWIDTH 1000 0
DWIDTH 32 0
BBX 19 22 6 2
BITMAP
FFFFC0
1C01C0
1800C0
180040
180040
180040
180000
180400
180400
180C00
1FFC00
180C00
180400
180400
180400
180000
180020
180020
180060
180060
1C01E0
FFFFE0
ENDCHAR
STARTCHAR 0396
ENCODING 918
SWIDTH 1000 0
DWIDTH 32 0
BBX 18 22 7 2
BITMAP
7FFF80
700380
600700
400600
400E00
401C00
003800
003000
007000
00E000
01C000
018000
038000
070000
060000
0C0040
1C0040
3800C0
3000C0
6001C0
E003C0
FFFFC0
ENDCHAR
STARTCHAR 0397
ENCODING 919
SWIDTH 1000 0
DWIDTH 32 0
BBX 22 22 5 2
BITMAP
FF03FC
180060
180060
180060
180060
180060
180060
180060
180060
180060
1FFFE0
180060
180060
180060
180060
180060
180060
180060
180060
180060
180060
FF03FC
ENDCHAR
STARTCHAR 0398
ENCODING 920
SWIDTH 1000 0
DWIDTH 32 0
BBX 22 23 5 1
BITMAP
00FC00
070380
0C00C0
180060
300030
600018
600018
600018
C4008C
C4008C
C7FF8C
C7FF8C
C4008C
C4008C
C0000C
600018
600018
600038
300070
1800E0
0C01C0
070780
01FE00
ENDCHAR
STARTCHAR 0399
ENCODING 921
SWIDTH 1000 0
DWIDTH 32 0
BBX 8 22 12 2
BITMAP
FF
3C
18
18
18
18
18
18
18
18
18
18
18
18
18
18
18
18
18
18
38
FF
ENDCHAR
STARTCHAR 039A
ENCODING 922
SWIDTH 1000 0
DWIDTH 32 0
BBX 23 22 5 2
BITMAP
FF0FF0
1801C0
180100
180200
180400
180800
181000
182000
184000
18E000
197000
1A3800
1C1800
180C00
180E00
180700
180380
1801C0
1800E0
180060
180070
FF03FE
ENDCHAR
STARTCHAR 039B
ENCODING 923
SWIDTH 1000 0
DWIDTH 32 0
BBX 24 23 4 2
BITMAP
001000
001800
001800
003C00
002C00
006E00
004600
004600
00C700
008300
018380
010380
030180
0301C0
0200C0
0600E0
0400E0
0C0060
0C0070
080030
180038
38003C
FF01FF
ENDCHAR
STARTCHAR 039C
ENCODING 924
SWIDTH 1000 0
DWIDTH 32 0
BBX 26 22 3 2
BITMAP
FC000FC0
1C000E00
1E000E00
16001600
16001600
13003600
13002600
13802600
11804600
11804600
10C0C600
10C08600
10E08600
10610600
10610600
10330600
10320600
103A0600
101C0600
101C0600
100C0600
FE083FC0
ENDCHAR
STARTCHAR 039D
ENCODING 925
SWIDTH 1000 0
DWIDTH 32 0
BBX 24 23 4 1
BITMAP
FC007F
1C0008
1E0008
170008
138008
11C008
10E008
10E008
107008
103808
101C08
101E08
100E08
100708
100388
1001C8
1001E8
1000F8
100078
100038
100018
FE0018
000008
ENDCHAR
STARTCHAR 039E
ENCODING 926
SWIDTH 1000 0
DWIDTH 32 0
BBX 18 22 7 2
BITMAP
7FFF80
7FFF80
400080
400080
400080
000000
000000
000000
080400
080400
0FFC00
0FFC00
080400
080400
000000
000000
000000
800040
800040
800040
FFFFC0
FFFFC0
ENDCHAR
STARTCHAR 039F
ENCODING 927
SWIDTH 1000 0
DWIDTH 32 0
BBX 22 23 5 1
BITMAP
00FC00
070380
0C00C0
180060
300030
600018
600018
600018
C0000C
C0000C
C0000C
C0000C
C0000C
C0000C
C0000C
600018
600018
600038
300070
1800E0
0C01C0
070780
01FE00
ENDCHAR
STARTCHAR 03A0
ENCODING 928
SWIDTH 1000 0
DWIDTH 32 0
BBX 22 22 5 2
BITMAP
FFFFFC
1C0060
180060
180060
180060
180060
180060
180060
180060
180060
180060
180060
180060
180060
180060
180060
180060
180060
180060
180060
180060
FF03FC
ENDCHAR
STARTCHAR 03A1
ENCODING 929
SWIDTH 1000 0
DWIDTH 32 0
BBX 19 22 7 2
BITMAP
FFFC00
1C0780
1801C0
1800C0
180060
180060
180060
180060
1800C0
1801C0
180700
1FFC00
180000
180000
180000
180000
180000
180000
180000
180000
180000
FF0000
ENDCHAR
STARTCHAR 03A3
ENCODING 931
SWIDTH 1000 0
DWIDTH 32 0
BBX 20 22 6 2
BITMAP
FFFFE0
7000E0
380060
1C0020
0E0020
070000
038000
01C000
00E000
007000
003800
002000
004000
008000
010000
020010
040010
080010
100030
200070
7FFFF0
FFFFF0
ENDCHAR
STARTCHAR 03A4
ENCODING 932
SWIDTH 1000 0
DWIDTH 32 0
BBX 20 22 6 2
BITMAP
FFFFF0
E06070
C06030
806010
806010
806010
006000
006000
006000
006000
006000
006000
006000
006000
006000
006000
006000
006000
006000
006000
006000
03FC00
ENDCHAR
STARTCHAR 03A5
ENCODING 933
SWIDTH 1000 0
DWIDTH 32 0
BBX 22 22 5 2
BITMAP
0F03C0
1FCFE0
30CC30
607818
403008
403008
80300C
003000
003000
003000
003000
003000
003000
003000
003000
003000
003000
003000
003000
003000
003000
01FE00
ENDCHAR
STARTCHAR 03A6
ENCODING 934
SWIDTH 1000 0
DWIDTH 32 0
BBX 20 22 6 2
BITMAP
03FC00
006000
006000
006000
0FFE00
186180
3060C0
606060
C06030
C06030
C06030
C06030
C06030
C06030
606060
3060C0
186180
0F6F00
00F000
006000
006000
03FC00
ENDCHAR
STARTCHAR 03A7
ENCODING 935
SWIDTH 1000 0
DWIDTH 32 0
BBX 24 22 4 2
BITMAP
7FC1FC
1E0070
0E0060
0700C0
038080
01C100
00C300
00E600
007400
003800
001800
003C00
006E00
004700
008380
010180
0201C0
0600E0
0C0070
180038
38003C
FF01FF
ENDCHAR
STARTCHAR 03A8
ENCODING 936
SWIDTH 1000 0
DWIDTH 32 0
BBX 26 22 3 2
BITMAP
787F8780
780C0780
8C0C0C40
8C0C0C40
0C0C0C00
0C0C0C00
0C0C0C00
0C0C0C00
0C0C0C00
0C0C0C00
0C0C0C00
060C1800
060C1800
030C3000
018C6000
00EFC000
001C0000
000C0000
000C0000
000C0000
000C0000
007F8000
ENDCHAR
STARTCHAR 03A9
ENCODING 937
SWIDTH 1000 0
DWIDTH 32 0
BBX 20 22 6 2
BITMAP
01F800
0E0700
180180
3000C0
600060
600060
C00030
C00030
C00030
C00030
C00030
C00030
C00030
600060
600060
3000C0
180180
8E0710
830C10
810810
FF0FF0
FF0FF0
ENDCHAR
STARTCHAR 03B1
ENCODING 945
SWIDTH 1000 0
DWIDTH 32 0
BBX 18 16 7 1
BITMAP
01E180
073100
0C1300
181A00
181A00
301C00
601C00
601800
E01800
C01800
C03800
C07800
C05840
C09840
630C80
3C0F00
ENDCHAR
STARTCHAR 03B2
ENCODING 946
SWIDTH 1000 0
DWIDTH 32 0
BBX 15 27 7 -3
BITMAP
00F0
01FC
030C
0206
0606
0406
0C06
0806
080C
1BC8
13F0
11D0
1018
300C
300C
200C
200C
600C
600C
6018
7038
7870
C7C0
C000
C000
C000
C000
ENDCHAR
STARTCHAR 03B3
ENCODING 947
SWIDTH 1000 0
DWIDTH 32 0
BBX 18 20 6 -3
BITMAP
1C01C0
3E0180
630380
C10300
018600
008600
008C00
008800
00D800
005000
007000
006000
006000
004000
00C000
00C000
01C000
01C000
01C000
018000
ENDCHAR
STARTCHAR 03B4
ENCODING 948
SWIDTH 1000 0
DWIDTH 32 0
BBX 14 23 9 1
BITMAP
0FC0
1070
103C
100C
0800
0C00
0700
0180
07E0
1C70
3830
7018
6018
6018
C018
C018
C018
C030
C030
C060
60C0
2180
1F00
ENDCHAR
STARTCHAR 03B5
ENCODING 949
SWIDTH 1000 0
DWIDTH 32 0
BBX 13 16 9 1
BITMAP
0FC0
3FF0
7818
6000
6000
2000
1F80
3F80
6000
C000
C000
C000
E018
7070
7FE0
1F80
ENDCHAR
STARTCHAR 03B6
ENCODING 950
SWIDTH 1000 0
DWIDTH 32 0
BBX 15 28 8 -3
BITMAP
0200
070E
0C3C
0C78
0CF0
07C0
0300
0600
0C00
0800
1000
3000
2000
6000
4000
C000
C000
C000
C000
E000
7000
3F00
0FC0
00F0
0030
0C10
0E20
03C0
ENDCHAR
STARTCHAR 03B7
ENCODING 951
SWIDTH 1000 0
DWIDTH 32 0
BBX 15 20 7 -3
BITMAP
3878
CD8C
8706
0606
0606
0406
0C06
0C0C
080C
180C
180C
3818
3018
3018
7018
0038
0030
0030
0030
0070
ENDCHAR
STARTCHAR 03B8
ENCODING 952
SWIDTH 1000 0
DWIDTH 32 0
BBX 14 23 9 1
BITMAP
01E0
0638
0C18
0808
180C
300C
300C
600C
600C
600C
FFFC
C01C
C018
C018
C038
C038
C030
C070
C060
40C0
61C0
2380
1E00
ENDCHAR
STARTCHAR 03B9
ENCODING 953
SWIDTH 1000 0
DWIDTH 32 0
BBX 9 16 11 1
BITMAP
1C00
1800
1800
3000
3000
3000
6000
6000
4000
C000
C000
C100
C180
E300
7E00
3C00
ENDCHAR
STARTCHAR 03BA
ENCODING 954
SWIDTH 1000 0
DWIDTH 32 0
BBX 17 16 7 1
BITMAP
060380
060F80
0C3C00
0C6000
0CC000
1B0000
1F8000
19C000
30C000
30C000
30C000
60C100
60C300
60E600
C07C00
003800
ENDCHAR
STARTCHAR 03BB
ENCODING 955
SWIDTH 1000 0
DWIDTH 32 0
BBX 17 23 6 1
BITMAP
01C000
07E000
046000
002000
002000
002000
002000
002000
006000
006000
00E000
01E000
01A000
03A000
072000
062000
0E2000
1C2000
182080
383080
701100
601F00
800E00
ENDCHAR
STARTCHAR 03BC
ENCODING 956
SWIDTH 1000 0
DWIDTH 32 0
BBX 19 21 6 -3
BITMAP
020200
030180
070380
060300
040300
0C0700
080600
080600
100E00
100C00
100C00
301C00
301C20
283C40
2C6440
6FC780
678300
600000
400000
C00000
C00000
ENDCHAR
STARTCHAR 03BD
ENCODING 957
SWIDTH 1000 0
DWIDTH 32 0
BBX 16 16 8 1
BITMAP
7806
F807
9C07
0C01
0C01
0C03
0C02
0C06
0C0C
0C18
0830
18E0
1FC0
1F00
1C00
2000
ENDCHAR
STARTCHAR 03BE
ENCODING 958
SWIDTH 1000 0
DWIDTH 32 0
BBX 12 28 10 -3
BITMAP
0800
3070
31E0
1F80
0400
0800
1800
1000
3000
3000
3000
13E0
0FC0
1000
2000
6000
C000
C000
C000
C000
E000
7E00
1F80
01C0
00C0
60C0
7180
3F00
ENDCHAR
STARTCHAR 03BF
ENCODING 959
SWIDTH 1000 0
DWIDTH 32 0
BBX 14 16 9 1
BITMAP
07C0
1C30
3018
3018
600C
600C
C00C
C00C
C00C
C00C
C018
C018
6038
6030
30E0
0F80
ENDCHAR
STARTCHAR 03C0
ENCODING 960
SWIDTH 1000 0
DWIDTH 32 0
BBX 17 17 8 2
BITMAP
000180
3FFF00
7FFE00
C42000
842000
042000
0C6000
084000
084000
18C000
10C000
30C000
30C300
70C200
60E600
E07C00
003800
ENDCHAR
STARTCHAR 03C1
ENCODING 961
SWIDTH 1000 0
DWIDTH 32 0
BBX 16 20 7 -3
BITMAP
00F8
030C
0606
0C02
0C03
1803
1803
3803
3803
3806
2806
6C0C
6618
63F0
6000
6000
C000
C000
C000
C000
ENDCHAR
STARTCHAR 03C2
ENCODING 962
SWIDTH 500 0
DWIDTH 16 0
BBX 12 20 2 -3
BITMAP
0F80
3860
3020
6030
6070
6070
6000
6000
3000
3000
1800
0E00
0700
0300
0180
0180
0180
C180
E300
3E00
ENDCHAR
STARTCHAR 03C3
ENCODING 963
SWIDTH 1000 0
DWIDTH 32 0
BBX 17 16 9 1
BITMAP
07FF80
181F00
301000
200800
600800
400C00
C00C00
C00C00
C00C00
C00C00
C01C00
C01800
603800
607000
30E000
0F8000
ENDCHAR
STARTCHAR 03C4
ENCODING 964
SWIDTH 1000 0
DWIDTH 32 0
BBX 16 17 8 2
BITMAP
0001
3FFF
7FFE
C080
8100
0100
0300
0200
0600
0600
0400
0C00
0C00
0C10
0E30
07E0
0380
ENDCHAR
STARTCHAR 03C5
ENCODING 965
SWIDTH 1000 0
DWIDTH 32 0
BBX 16 16 7 1
BITMAP
3C0C
7E0E
8607
0603
0601
0401
0C01
0801
1801
1002
3002
3006
300C
3C18
1FF0
07C0
ENDCHAR
STARTCHAR 03C6
ENCODING 966
SWIDTH 1000 0
DWIDTH 32 0
BBX 18 25 7 -3
BITMAP
001C00
001800
001800
001000
003000
003000
07FC00
1C2300
386180
704180
6040C0
C040C0
C0C0C0
C080C0
C080C0
C08180
618180
610300
110E00
0FF800
020000
020000
060000
060000
0E0000
ENDCHAR
STARTCHAR 03C7
ENCODING 967
SWIDTH 1000 0
DWIDTH 32 0
BBX 17 20 7 -3
BITMAP
1E0380
3F0700
430600
010C00
019C00
019800
00B000
00F000
00E000
00C000
01C000
01C000
034000
064000
0E4000
0C4080
186100
303300
703E00
E01C00
ENDCHAR
STARTCHAR 03C8
ENCODING 968
SWIDTH 1000 0
DWIDTH 32 0
BBX 18 25 7 -3
BITMAP
001C00
001800
001800
001800
001000
063100
0C3100
183180
302080
6020C0
6060C0
C040C0
C040C0
C040C0
C081C0
C08180
608380
618700
390E00
0FF800
030000
030000
020000
060000
060000
ENDCHAR
STARTCHAR 03C9
ENCODING 969
SWIDTH 1000 0
DWIDTH 32 0
BBX 20 17 6 1
BITMAP
020080
070040
0C0040
180060
300020
201030
603030
407030
C07030
C07030
C06030
C06060
C04060
E0A040
61A0C0
3F3180
1C1E00
ENDCHAR
STARTCHAR 0401
ENCODING 1025
SWIDTH 1000 0
DWIDTH 32 0
BBX 19 26 6 2
BITMAP
0E0700
0E0700
0E0700
000000
FFFFC0
1C01C0
1800C0
180040
180040
180040
180000
180400
180400
180C00
1FFC00
180C00
180400
180400
180400
180000
180020
180020
180060
180060
1C01E0
FFFFE0
ENDCHAR
STARTCHAR 0410
ENCODING 1040
SWIDTH 1000 0
DWIDTH 32 0
BBX 25 23 4 2
BITMAP
00100000
00180000
00180000
003C0000
002C0000
006E0000
00460000
00C60000
00830000
00830000
01838000
01018000
0301C000
0200C000
07FFE000
04006000
0C006000
08007000
08003000
18003800
10001800
30001C00
FE00FF80
ENDCHAR
STARTCHAR 0411
ENCODING 1041
SWIDTH 1000 0
DWIDTH 32 0
BBX 20 22 6 2
BITMAP
FFFFC0
1C01C0
1800C0
180040
180040
180040
180000
180000
180000
180000
1FFE00
180380
1800E0
180060
180030
180030
180030
180030
180060
1800E0
1C0380
FFFE00
ENDCHAR
STARTCHAR 0412
ENCODING 1042
SWIDTH 1000 0
DWIDTH 32 0
BBX 19 22 6 2
BITMAP
FFFC00
1C0700
180180
1800C0
1800C0
1800C0
1800C0
180180
180380
180E00
1FF800
180700
1801C0
1800C0
180060
180060
180060
180060
1800E0
1800C0
1C0780
FFFE00
ENDCHAR
STARTCHAR 0413
ENCODING 1043
SWIDTH 1000 0
DWIDTH 32 0
BBX 18 22 7 2
BITMAP
FFFFC0
3C03C0
1800C0
1800C0
180040
180040
180000
180000
180000
180000
180000
180000
180000
180000
180000
180000
180000
180000
180000
180000
380000
FF0000
ENDCHAR
STARTCHAR 0414
ENCODING 1044
SWIDTH 1000 0
DWIDTH 32 0
BBX 22 26 5 -3
BITMAP
0FFFFC
0100E0
010060
010060
010060
010060
010060
010060
010060
020060
020060
020060
020060
040060
040060
040060
080060
080060
100060
300060
200060
FFFFFC
E0000C
C00004
800004
800004
ENDCHAR
STARTCHAR 0415
ENCODING 1045
SWIDTH 1000 0
DWIDTH 32 0
BBX 19 22 6 2
BITMAP
FFFFC0
1C01C0
1800C0
180040
180040
180040
180000
180400
180400
180C00
1FFC00
180C00
180400
180400
180400
180000
180020
180020
180060
180060
1C01E0
FFFFE0
ENDCHAR
STARTCHAR 0416
ENCODING 1046
SWIDTH 1000 0
DWIDTH 32 0
BBX 28 22 2 2
BITMAP
383FC1C0
640602E0
740602E0
720604E0
02060400
02060400
01060C00
01060800
00861000
00462000
007FE000
00E67000
00C63000
01861800
03861C00
03060C00
06060600
0E060700
1C060380
18060180
380601C0
FE3FC7F0
ENDCHAR
STARTCHAR 0417
ENCODING 1047
SWIDTH 1000 0
DWIDTH 32 0
BBX 17 23 8 1
BITMAP
07F000
3C0C00
700600
600300
400300
000300
000300
000700
000600
001C00
07E000
001C00
000600
000300
000180
000180
800180
800180
C00380
E00300
F00E00
381C00
0FF000
ENDCHAR
STARTCHAR 0418
ENCODING 1048
SWIDTH 1000 0
DWIDTH 32 0
BBX 22 22 5 2
BITMAP
FF03FC
180060
180060
180060
180060
1800E0
180160
180260
180C60
181860
183060
186060
18C060
190060
1A0060
1C0060
180060
180060
180060
180060
180060
FF03FC
ENDCHAR
STARTCHAR 0419
ENCODING 1049
SWIDTH 1000 0
DWIDTH 32 0
BBX 22 26 5 2
BITMAP
038700
038700
010200
00FC00
FF03FC
180060
180060
180060
180060
1800E0
180160
180260
180C60
181860
183060
186060
18C060
190060
1A0060
1C0060
180060
180060
180060
180060
180060
FF03FC
ENDCHAR
STARTCHAR 041A
ENCODING 1050
SWIDTH 1000 0
DWIDTH 32 0
BBX 23 22 5 3
BITMAP
FF00F0
180178
180278
180278
180600
180400
180800
181800
183000
18E000
1F7000
183800
181800
180C00
180E00
180700
180380
1801C0
1800E0
180060
180070
FF03FE
ENDCHAR
STARTCHAR 041B
ENCODING 1051
SWIDTH 1000 0
DWIDTH 32 0
BBX 23 23 4 1
BITMAP
03FFFE
006030
006030
006030
006030
004030
004030
004030
004030
004030
004030
004030
004030
004030
00C030
00C030
70C030
F08030
F08030
818030
C10030
4301FE
3C0000
ENDCHAR
STARTCHAR 041C
ENCODING 1052
SWIDTH 1000 0
DWIDTH 32 0
BBX 28 22 2 2
BITMAP
3F000FC0
07000F00
07800F00
05801700
05801700
05C03300
08C02300
08E02300
08604300
08604300
0870C300
08308300
08388300
08190380
08190180
101F0180
100E0180
100E0180
10040180
10040180
18000180
FF001FF0
ENDCHAR
STARTCHAR 041D
ENCODING 1053
SWIDTH 1000 0
DWIDTH 32 0
BBX 22 22 5 2
BITMAP
FF03FC
180060
180060
180060
180060
180060
180060
180060
180060
180060
1FFFE0
180060
180060
180060
180060
180060
180060
180060
180060
180060
180060
FF03FC
ENDCHAR
STARTCHAR 041E
ENCODING 1054
SWIDTH 1000 0
DWIDTH 32 0
BBX 22 23 5 1
BITMAP
00FC00
070380
0C00C0
180060
300030
600018
600018
600018
C0000C
C0000C
C0000C
C0000C
C0000C
C0000C
C0000C
600018
600018
600038
300070
1800E0
0C01C0
070780
01FE00
ENDCHAR
STARTCHAR 041F
ENCODING 1055
SWIDTH 1000 0
DWIDTH 32 0
BBX 22 22 5 2
BITMAP
FFFFFC
1C0060
180060
180060
180060
180060
180060
180060
180060
180060
180060
180060
180060
180060
180060
180060
180060
180060
180060
180060
180060
FF03FC
ENDCHAR
STARTCHAR 0420
ENCODING 1056
SWIDTH 1000 0
DWIDTH 32 0
BBX 19 22 7 2
BITMAP
FFFC00
1C0780
1801C0
1800C0
180060
180060
180060
180060
1800C0
1801C0
180700
1FFC00
180000
180000
180000
180000
180000
180000
180000
180000
180000
FF0000
ENDCHAR
STARTCHAR 0421
ENCODING 1057
SWIDTH 1000 0
DWIDTH 32 0
BBX 20 23 6 1
BITMAP
00FF00
0381E0
0E0070
180030
300010
300010
600000
600000
C00000
C00000
C00000
C00000
C00000
C00000
C00000
E00010
600010
700010
300010
180030
0C0060
0701C0
00FE00
ENDCHAR
STARTCHAR 0422
ENCODING 1058
SWIDTH 1000 0
DWIDTH 32 0
BBX 20 22 6 2
BITMAP
FFFFF0
E06070
C06030
806010
806010
806010
006000
006000
006000
006000
006000
006000
006000
006000
006000
006000
006000
006000
006000
006000
006000
03FC00
ENDCHAR
STARTCHAR 0423
ENCODING 1059
SWIDTH 1000 0
DWIDTH 32 0
BBX 22 23 5 1
BITMAP
FF83FC
1C0060
0C0040
060040
060080
030080
038180
018100
01C300
00C200
006600
006400
003400
003800
001800
001000
001000
382000
782000
784000
60C000
318000
1E0000
ENDCHAR
STARTCHAR 0424
ENCODING 1060
SWIDTH 1000 0
DWIDTH 32 0
BBX 20 22 6 2
BITMAP
03FC00
006000
006000
006000
0FFE00
186180
3060C0
606060
C06030
C06030
C06030
C06030
C06030
C06030
606060
3060C0
186180
0F6F00
00F000
006000
006000
03FC00
ENDCHAR
STARTCHAR 0425
ENCODING 1061
SWIDTH 1000 0
DWIDTH 32 0
BBX 24 22 4 2
BITMAP
7FC1FC
1E0070
0E0060
0700C0
038080
01C100
00C300
00E600
007400
003800
001800
003C00
006E00
004700
008380
010180
0201C0
0600E0
0C0070
180038
38003C
FF01FF
ENDCHAR
STARTCHAR 0426
ENCODING 1062
SWIDTH 1000 0
DWIDTH 32 0
BBX 23 26 4 -3
BITMAP
FF01FE
180030
180030
180030
180030
180030
180030
180030
180030
180030
180030
180030
180030
180030
180030
180030
180030
180030
180030
180030
1C0070
FFFFFE
000006
000002
000002
000002
ENDCHAR
STARTCHAR 0427
ENCODING 1063
SWIDTH 1000 0
DWIDTH 32 0
BBX 21 22 5 2
BITMAP
FF07F8
1800C0
1800C0
1800C0
1800C0
1800C0
1800C0
1800C0
1800C0
1800C0
1800C0
0801C0
0C03C0
060EC0
01F8C0
0000C0
0000C0
0000C0
0000C0
0000C0
0000C0
0007F8
ENDCHAR
STARTCHAR 0428
ENCODING 1064
SWIDTH 1000 0
DWIDTH 32 0
BBX 28 22 2 2
BITMAP
FF3FCFF0
18060180
18060180
18060180
18060180
18060180
18060180
18060180
18060180
18060180
18060180
18060180
18060180
18060180
18060180
18060180
18060180
18060180
18060180
18060180
18060180
FFFFFFF0
ENDCHAR
STARTCHAR 0429
ENCODING 1065
SWIDTH 1000 0
DWIDTH 32 0
BBX 28 26 2 -3
BITMAP
FF3FDFE0
18060300
18060300
18060300
18060300
18060300
18060300
18060300
18060300
18060300
18060300
18060300
18060300
18060300
18060300
18060300
18060300
18060300
18060300
18060300
18060380
FFFFFFF0
00000070
00000030
00000010
00000010
ENDCHAR
STARTCHAR 042A
ENCODING 1066
SWIDTH 1000 0
DWIDTH 32 0
BBX 24 22 4 2
BITMAP
FFF800
E1C000
C0C000
80C000
80C000
80C000
00C000
00C000
00C000
00C000
00FFE0
00C03C
00C00E
00C006
00C003
00C003
00C003
00C003
00C007
00C00E
00C01C
07FFF0
ENDCHAR
STARTCHAR 042B
ENCODING 1067
SWIDTH 1000 0
DWIDTH 32 0
BBX 26 22 3 2
BITMAP
FF003FC0
18000600
18000600
18000600
18000600
18000600
18000600
18000600
18000600
18000600
1FF80600
18070600
18038600
18018600
1800C600
1800C600
1800C600
1800C600
18018600
18018600
18070600
FFFC3FC0
ENDCHAR
STARTCHAR 042C
ENCODING 1068
SWIDTH 1000 0
DWIDTH 32 0
BBX 19 22 6 2
BITMAP
FF0000
180000
180000
180000
180000
180000
180000
180000
180000
180000
1FFC00
180780
1801C0
1800C0
180060
180060
180060
180060
1800E0
1801C0
1C0380
FFFE00
ENDCHAR
STARTCHAR 042D
ENCODING 1069
SWIDTH 1000 0
DWIDTH 32 0
BBX 21 23 6 1
BITMAP
0FF800
781E00
E00380
C001C0
8000E0
8000E0
000070
000070
000038
07C038
1FF078
007FF8
001F38
000038
000038
000070
000070
8000F0
8000E0
C001C0
600380
380F00
07F800
ENDCHAR
STARTCHAR 042E
ENCODING 1070
SWIDTH 1000 0
DWIDTH 32 0
BBX 26 23 2 1
BITMAP
FF01F000
18060C00
180C0600
18180300
18300100
18300180
18700180
186000C0
186000C0
186000C0
1FE000C0
186000C0
186000C0
186000C0
186000C0
186000C0
18300180
18300180
18300180
18180300
180C0600
FF060C00
0001F000
ENDCHAR
STARTCHAR 042F
ENCODING 1071
SWIDTH 1000 0
DWIDTH 32 0
BBX 22 23 4 1
BITMAP
00FFFC
0380E0
060060
0C0060
0C0060
0C0060
0C0060
0C0060
060060
038060
00FFE0
003060
007060
006060
00E060
01C060
018060
038060
070060
0E0060
180060
7003FC
800000
ENDCHAR
STARTCHAR 0430
ENCODING 1072
SWIDTH 1000 0
DWIDTH 32 0
BBX 16 16 9 1
BITMAP
1FC0
70E0
7070
7030
7030
0030
07F0
1C30
3030
6030
C030
C030
C031
C073
61BE
3E1C
ENDCHAR
STARTCHAR 0431
ENCODING 1073
SWIDTH 1000 0
DWIDTH 32 0
BBX 16 24 8 1
BITMAP
0002
0002
0006
01FC
0FF0
1C00
3000
2000
67E0
5C38
F00C
E006
E006
C003
C003
C003
C003
C003
C003
6006
7006
300C
1C38
07E0
ENDCHAR
STARTCHAR 0432
ENCODING 1074
SWIDTH 1000 0
DWIDTH 32 0
BBX 16 15 7 2
BITMAP
FFF8
180C
1806
1806
1806
1806
180C
1FF0
180E
1803
1803
1803
1807
180E
FFF8
ENDCHAR
STARTCHAR 0433
ENCODING 1075
SWIDTH 1000 0
DWIDTH 32 0
BBX 15 15 8 2
BITMAP
FFFE
180E
1806
1802
1802
1802
1800
1800
1800
1800
1800
1800
1800
1800
FF00
ENDCHAR
STARTCHAR 0434
ENCODING 1076
SWIDTH 1000 0
DWIDTH 32 0
BBX 18 19 7 -3
BITMAP
1FFFC0
020600
020600
020600
020600
040600
040600
040600
040600
080600
080600
100600
100600
200600
FFFFC0
C000C0
800040
800040
800040
ENDCHAR
STARTCHAR 0435
ENCODING 1077
SWIDTH 1000 0
DWIDTH 32 0
BBX 15 16 8 1
BITMAP
07E0
1C38
301C
700C
600E
E006
FFFE
E000
E000
E000
E000
7002
7004
3808
1C10
07E0
ENDCHAR
STARTCHAR 0436
ENCODING 1078
SWIDTH 1000 0
DWIDTH 32 0
BBX 26 15 3 2
BITMAP
383F0600
3C0C0F00
3A0C1700
020C1000
010C2000
018C6000
01EDE000
019E6000
030C3000
020C1000
060C1800
0C0C0C00
080C0400
180C0600
FE3F1FC0
ENDCHAR
STARTCHAR 0437
ENCODING 1079
SWIDTH 1000 0
DWIDTH 32 0
BBX 12 16 10 1
BITMAP
3F00
E0C0
C060
8060
8060
0060
00C0
1F00
00E0
0060
0030
0030
8030
8070
E0E0
3F80
ENDCHAR
STARTCHAR 0438
ENCODING 1080
SWIDTH 1000 0
DWIDTH 32 0
BBX 18 15 7 2
BITMAP
FE1FC0
180600
180600
180E00
181600
182600
184600
188600
198600
1B0600
1E0600
1C0600
180600
180600
FE1FC0
ENDCHAR
STARTCHAR 0439
ENCODING 1081
SWIDTH 1000 0
DWIDTH 32 0
BBX 18 21 7 2
BITMAP
061800
061800
061800
021000
01E000
000000
FE1FC0
180600
180600
180E00
181600
182600
184600
188600
198600
1B0600
1E0600
1C0600
180600
180600
FE1FC0
ENDCHAR
STARTCHAR 043A
ENCODING 1082
SWIDTH 1000 0
DWIDTH 32 0
BBX 19 15 7 2
BITMAP
FF0380
180780
180980
181800
181000
186000
1FE000
187000
183000
181800
181C00
180E00
180600
180700
FF1FE0
ENDCHAR
STARTCHAR 043B
ENCODING 1083
SWIDTH 1000 0
DWIDTH 32 0
BBX 20 16 5 1
BITMAP
07FFF0
008180
008180
008180
008180
008180
008180
008180
008180
008180
010180
E10180
E10180
C30180
620FF0
3C0000
ENDCHAR
STARTCHAR 043C
ENCODING 1084
SWIDTH 1000 0
DWIDTH 32 0
BBX 22 15 5 2
BITMAP
FC00FC
1C00E0
160160
160160
130260
130260
130660
118460
118460
10C860
10C860
107060
107060
106060
FE23FC
ENDCHAR
STARTCHAR 043D
ENCODING 1085
SWIDTH 1000 0
DWIDTH 32 0
BBX 18 15 7 2
BITMAP
FE1FC0
180600
180600
180600
180600
180600
180600
1FFE00
180600
180600
180600
180600
180600
180600
FE1FC0
ENDCHAR
STARTCHAR 043E
ENCODING 1086
SWIDTH 1000 0
DWIDTH 32 0
BBX 16 16 8 1
BITMAP
07E0
1C38
300C
6006
6006
C003
C003
C003
C003
C003
C003
6006
600E
300C
1C38
07E0
ENDCHAR
STARTCHAR 043F
ENCODING 1087
SWIDTH 1000 0
DWIDTH 32 0
BBX 18 15 7 2
BITMAP
FFFFC0
180600
180600
180600
180600
180600
180600
180600
180600
180600
180600
180600
180600
180600
FE1FC0
ENDCHAR
STARTCHAR 0440
ENCODING 1088
SWIDTH 1000 0
DWIDTH 32 0
BBX 17 21 7 -3
BITMAP
080000
F9F800
1E0C00
1C0600
180300
180180
180180
180180
180180
180180
180180
180300
1C0700
1E0E00
19F800
180000
180000
180000
180000
180000
FF0000
ENDCHAR
STARTCHAR 0441
ENCODING 1089
SWIDTH 1000 0
DWIDTH 32 0
BBX 14 16 9 1
BITMAP
07C0
1830
3038
6038
6038
C000
C000
C000
C000
C000
C000
6004
6008
3010
1C30
07C0
ENDCHAR
STARTCHAR 0442
ENCODING 1090
SWIDTH 1000 0
DWIDTH 32 0
BBX 14 15 9 2
BITMAP
FFFC
C30C
8304
8304
8304
0300
0300
0300
0300
0300
0300
0300
0300
0300
0FC0
ENDCHAR
STARTCHAR 0443
ENCODING 1091
SWIDTH 1000 0
DWIDTH 32 0
BBX 19 20 7 -3
BITMAP
FF1FE0
380380
180300
0C0200
0C0600
060400
060C00
030800
030800
019000
01D000
00E000
00E000
004000
004000
008000
388000
398000
3B0000
1E0000
ENDCHAR
STARTCHAR 0444
ENCODING 1092
SWIDTH 1000 0
DWIDTH 32 0
BBX 18 28 7 -3
BITMAP
004000
07C000
00C000
00C000
00C000
00C000
00C000
00C000
1FFE00
30C300
60C180
60C180
C0C0C0
C0C0C0
C0C0C0
C0C0C0
C0C0C0
C0C0C0
C0C0C0
60C180
60C180
31E300
1EDE00
00C000
00C000
00C000
00C000
07F800
ENDCHAR
STARTCHAR 0445
ENCODING 1093
SWIDTH 1000 0
DWIDTH 32 0
BBX 20 15 6 2
BITMAP
7F9FE0
0C0300
060200
030400
038800
01D000
00E000
006000
00B000
011800
020C00
040600
080300
380380
FE0FF0
ENDCHAR
STARTCHAR 0446
ENCODING 1094
SWIDTH 1000 0
DWIDTH 32 0
BBX 19 19 6 -3
BITMAP
FF1FC0
180300
180300
180300
180300
180300
180300
180300
180300
180300
180300
180300
180300
180300
FFFFE0
000060
000020
000020
000020
ENDCHAR
STARTCHAR 0447
ENCODING 1095
SWIDTH 1000 0
DWIDTH 32 0
BBX 19 15 6 2
BITMAP
FF1FE0
180300
180300
180300
180300
180300
180300
1C0300
0E0F00
03F300
000300
000300
000300
000300
001FE0
ENDCHAR
STARTCHAR 0448
ENCODING 1096
SWIDTH 1000 0
DWIDTH 32 0
BBX 25 15 4 2
BITMAP
FE7E3F80
18180C00
18180C00
18180C00
18180C00
18180C00
18180C00
18180C00
18180C00
18180C00
18180C00
18180C00
18180C00
18180C00
FFFFFF80
ENDCHAR
STARTCHAR 0449
ENCODING 1097
SWIDTH 1000 0
DWIDTH 32 0
BBX 25 19 4 -3
BITMAP
FE7E3F00
18180C00
18180C00
18180C00
18180C00
18180C00
18180C00
18180C00
18180C00
18180C00
18180C00
18180C00
18180C00
18180C00
FFFFFF80
00000180
00000080
00000080
00000080
ENDCHAR
STARTCHAR 044A
ENCODING 1098
SWIDTH 1000 0
DWIDTH 32 0
BBX 18 15 7 2
BITMAP
FFC000
CE0000
860000
860000
060000
060000
060000
07FE00
060380
0600C0
0600C0
0600C0
0600C0
060380
3FFE00
ENDCHAR
STARTCHAR 044B
ENCODING 1099
SWIDTH 1000 0
DWIDTH 32 0
BBX 24 15 4 2
BITMAP
FF00FF
180018
180018
180018
180018
180018
180018
1FF818
180E18
180318
180318
180318
180318
180E18
FFF8FF
ENDCHAR
STARTCHAR 044C
ENCODING 1100
SWIDTH 1000 0
DWIDTH 32 0
BBX 16 15 8 2
BITMAP
FF00
1800
1800
1800
1800
1800
1800
1FF8
180E
1803
1803
1803
1803
180E
FFF8
ENDCHAR
STARTCHAR 044D
ENCODING 1101
SWIDTH 1000 0
DWIDTH 32 0
BBX 16 16 8 1
BITMAP
0FE0
7838
601C
400E
4006
0007
0F07
3FFF
00F7
0007
0007
800E
400E
601C
1838
07E0
ENDCHAR
STARTCHAR 044E
ENCODING 1102
SWIDTH 1000 0
DWIDTH 32 0
BBX 24 16 4 1
BITMAP
FF07E0
181C18
18380C
183006
187006
186003
186003
1FE003
186003
186003
186003
187006
183006
18380C
FF1C18
0007E0
ENDCHAR
STARTCHAR 044F
ENCODING 1103
SWIDTH 1000 0
DWIDTH 32 0
BBX 18 16 7 1
BITMAP
07FFC0
1C0600
300600
300600
300600
300600
1C0600
07FE00
038600
030600
070600
060600
0C0600
180600
603FC0
800000
ENDCHAR
STARTCHAR 0451
ENCODING 1105
SWIDTH 1000 0
DWIDTH 32 0
BBX 15 21 8 1
BITMAP
1C38
1C38
1C38
0000
0000
07E0
1C38
301C
700C
600E
E006
FFFE
E000
E000
E000
E000
7002
7004
3808
1C10
07E0
ENDCHAR
STARTCHAR 1E3E
ENCODING 7742
SWIDTH 500 0
DWIDTH 16 0
BBX 16 26 0 2
BITMAP
00F0
0180
0200
0400
F81F
381C
381C
381C
282C
2C2C
2C2C
2C2C
2C2C
244C
264C
264C
264C
268C
228C
238C
238C
238C
230C
210C
210C
F83F
ENDCHAR
STARTCHAR 1E3F
ENCODING 7743
SWIDTH 500 0
DWIDTH 16 0
BBX 14 20 1 2
BITMAP
01E0
0300
0400
0000
4000
DE70
7398
6318
6318
6318
6318
6318
6318
6318
6318
6318
6318
6318
6318
F7BC
ENDCHAR
STARTCHAR 1F70
ENCODING 8048
SWIDTH 500 0
DWIDTH 16 0
BBX 13 21 2 1
BITMAP
7800
0C00
0200
0100
0040
1E40
31C0
60C0
E0C0
C0C0
C0C0
C0C0
C0C0
C0C0
C0C0
C0C0
C0C0
60C0
61C8
31D0
1E60
ENDCHAR
STARTCHAR 1F71
ENCODING 8049
SWIDTH 500 0
DWIDTH 16 0
BBX 13 21 2 1
BITMAP
03C0
0600
0800
1000
0040
1E40
31C0
60C0
E0C0
C0C0
C0C0
C0C0
C0C0
C0C0
C0C0
C0C0
C0C0
60C0
61C8
31D0
1E60
ENDCHAR
STARTCHAR 1F72
ENCODING 8050
SWIDTH 500 0
DWIDTH 16 0
BBX 11 21 3 1
BITMAP
7800
0C00
0200
0100
0000
1F00
30C0
6040
6040
6040
6000
3000
0F00
7000
E000
C020
C020
C060
E060
70E0
1F80
ENDCHAR
STARTCHAR 1F73
ENCODING 8051
SWIDTH 500 0
DWIDTH 16 0
BBX 11 21 3 1
BITMAP
0380
0600
0800
1000
0000
1F00
30C0
6040
6040
6040
6000
3000
0F00
7000
E000
C020
C020
C060
E060
70E0
1F80
ENDCHAR
STARTCHAR 2010
ENCODING 8208
SWIDTH 1000 0
DWIDTH 32 0
BBX 10 1 11 12
BITMAP
FFC0
ENDCHAR
STARTCHAR 2013
ENCODING 8211
SWIDTH 500 0
DWIDTH 16 0
BBX 6 1 5 12
BITMAP
FC
ENDCHAR
STARTCHAR 2014
ENCODING 8212
SWIDTH 1000 0
DWIDTH 32 0
BBX 28 1 2 12
BITMAP
FFFFFFF0
ENDCHAR
STARTCHAR 2015
ENCODING 8213
SWIDTH 1000 0
DWIDTH 32 0
BBX 28 1 2 12
BITMAP
FFFFFFF0
ENDCHAR
STARTCHAR 2016
ENCODING 8214
SWIDTH 1000 0
DWIDTH 32 0
BBX 6 32 13 -4
BITMAP
CC
CC
CC
CC
CC
CC
CC
CC
CC
CC
CC
CC
CC
CC
CC
CC
CC
CC
CC
CC
CC
CC
CC
CC
CC
CC
CC
CC
CC
CC
CC
CC
ENDCHAR
STARTCHAR 2018
ENCODING 8216
SWIDTH 1000 0
DWIDTH 32 0
BBX 5 9 25 18
BITMAP
18
30
60
40
C0
F0
F0
F0
60
ENDCHAR
STARTCHAR 2019
ENCODING 8217
SWIDTH 1000 0
DWIDTH 32 0
BBX 5 9 2 17
BITMAP
30
78
78
38
10
30
20
40
80
ENDCHAR
STARTCHAR 201C
ENCODING 8220
SWIDTH 1000 0
DWIDTH 32 0
BBX 11 9 19 18
BITMAP
1060
20C0
6180
4100
C300
F3C0
F3C0
F3C0
6180
ENDCHAR
STARTCHAR 201D
ENCODING 8221
SWIDTH 1000 0
DWIDTH 32 0
BBX 11 9 2 17
BITMAP
30C0
79E0
79E0
38E0
1060
3040
2080
4100
8000
ENDCHAR
STARTCHAR 2020
ENCODING 8224
SWIDTH 1000 0
DWIDTH 32 0
BBX 13 28 9 -2
BITMAP
0600
0700
0700
0700
0600
7270
FFF8
FFF8
7270
0700
0F80
0700
0700
0200
0200
0200
0200
0200
0200
0200
0200
0200
0200
0200
0200
0200
0200
0200
ENDCHAR
STARTCHAR 2021
ENCODING 8225
SWIDTH 1000 0
DWIDTH 32 0
BBX 12 30 10 -3
BITMAP
0F00
0F00
0F00
0E00
E670
FFF0
FFF0
F6F0
0F00
0600
0600
0600
0600
0600
0400
0400
0600
0600
0600
0600
0600
0F00
F6F0
FFF0
F6F0
0600
0F00
0F00
0F00
0F00
ENDCHAR
STARTCHAR 2022
ENCODING 8226
SWIDTH 500 0
DWIDTH 16 0
BBX 6 6 5 9
BITMAP
78
FC
FC
FC
FC
78
ENDCHAR
STARTCHAR 2025
ENCODING 8229
SWIDTH 1000 0
DWIDTH 32 0
BBX 20 4 6 10
BITMAP
600060
F000F0
F000F0
600060
ENDCHAR
STARTCHAR 2026
ENCODING 8230
SWIDTH 1000 0
DWIDTH 32 0
BBX 26 4 3 10
BITMAP
600C0180
F01E03C0
F01E03C0
600C0180
ENDCHAR
STARTCHAR 2030
ENCODING 8240
SWIDTH 1000 0
DWIDTH 32 0
BBX 28 29 2 -2
BITMAP
00018000
1C030000
63020000
63060000
C1840000
C1840000
C1880000
C1880000
C1900000
C1900000
C1B00000
63200000
63600000
1C400000
00C00000
008E03C0
01B18660
01318420
0360CC30
0260CC30
0660CC30
0460CC30
0C60CC30
0860CC30
1860CC30
10318420
30318660
200E03C0
60000000
ENDCHAR
STARTCHAR 2032
ENCODING 8242
SWIDTH 1000 0
DWIDTH 32 0
BBX 5 9 1 17
BITMAP
18
30
30
30
20
60
40
40
80
ENDCHAR
STARTCHAR 2033
ENCODING 8243
SWIDTH 1000 0
DWIDTH 32 0
BBX 10 9 1 17
BITMAP
18C0
3180
3180
3180
2100
6300
4200
4200
8400
ENDCHAR
STARTCHAR 203B
ENCODING 8251
SWIDTH 1000 0
DWIDTH 32 0
BBX 26 26 3 -1
BITMAP
400E0080
E01F01C0
301F0300
181E0600
0C0C0C00
06001800
03003000
01806000
00C0C000
00618000
70330380
F81E07C0
F80C07C0
F81E07C0
70330380
00618000
00C0C000
01806000
03003000
06001800
0C0E0C00
181F0600
301F0300
601F0180
C00E00C0
80000080
ENDCHAR
STARTCHAR 203C
ENCODING 8252
SWIDTH 500 0
DWIDTH 16 0
BBX 10 27 3 -2
BITMAP
E1C0
E1C0
E1C0
E1C0
E1C0
E1C0
E1C0
E1C0
E1C0
E180
6180
6180
6180
6180
6080
4080
4080
4080
4080
0000
0000
0000
0000
6180
F3C0
F3C0
6180
ENDCHAR
STARTCHAR 203E
ENCODING 8254
SWIDTH 1000 0
DWIDTH 32 0
BBX 32 1 0 27
BITMAP
FFFFFFFF
ENDCHAR
STARTCHAR 203F
ENCODING 8255
SWIDTH 500 0
DWIDTH 16 0
BBX 12 3 2 -2
BITMAP
8010
6060
1F80
ENDCHAR
STARTCHAR 2042
ENCODING 8258
SWIDTH 500 0
DWIDTH 16 0
BBX 14 19 1 3
BITMAP
0300
0300
0B40
0680
0300
0680
0B40
0300
0300
0000
0000
3030
B334
FDBC
2850
3870
F7BC
B734
3030
ENDCHAR
STARTCHAR 2047
ENCODING 8263
SWIDTH 500 0
DWIDTH 16 0
BBX 15 27 0 -2
BITMAP
3838
6C6C
4646
C6C6
C6C6
E6E6
E6E6
E6E6
0606
0C0C
0C0C
0808
1818
1818
1010
1010
1010
1010
1010
1010
0000
0000
0000
1818
3C3C
3C3C
1818
ENDCHAR
STARTCHAR 2048
ENCODING 8264
SWIDTH 500 0
DWIDTH 16 0
BBX 13 27 1 -2
BITMAP
3C38
4638
4638
8338
8338
E338
E338
E338
0638
0630
0430
0C30
0830
1830
1030
1030
1010
1010
1010
1010
0000
0000
0000
1830
3C78
3C78
1830
ENDCHAR
STARTCHAR 2049
ENCODING 8265
SWIDTH 500 0
DWIDTH 16 0
BBX 13 27 2 -2
BITMAP
71E0
7230
7230
7418
7418
7718
7718
7718
7030
6030
6020
6060
6040
60C0
6080
6080
2080
2080
2080
2080
0000
0000
0000
60C0
F1E0
F1E0
60C0
ENDCHAR
STARTCHAR 2051
ENCODING 8273
SWIDTH 1000 0
DWIDTH 32 0
BBX 9 25 11 0
BITMAP
0C00
0C00
0C00
CD80
7B00
0C00
7F00
CD80
0C00
0C00
0C00
0000
0000
0000
0000
0C00
0C00
CD80
EF80
1A00
1C00
6B00
CD80
0C00
0C00
ENDCHAR
STARTCHAR 20AC
ENCODING 8364
SWIDTH 500 0
DWIDTH 16 0
BBX 14 23 1 1
BITMAP
01E8
0638
0418
0C18
0C08
1808
1808
1800
1800
7FE0
1800
1800
1800
FFC0
1800
1808
180C
1808
0C08
0C18
0C10
0630
03C0
ENDCHAR
STARTCHAR 2103
ENCODING 8451
SWIDTH 1000 0
DWIDTH 32 0
BBX 26 26 2 1
BITMAP
30000000
48000000
8407F000
841C0C80
84380780
C8700380
78E00180
01C00080
01C00080
01C00080
03800000
03800000
03800000
03800000
03800000
03800000
03800000
03800000
01C00040
01C00040
01C00080
00E00080
00700100
00380200
001E0C00
0007F000
ENDCHAR
STARTCHAR 210F
ENCODING 8463
SWIDTH 500 0
DWIDTH 16 0
BBX 13 24 2 1
BITMAP
0600
3C00
0C00
0C80
0DC0
0E00
3800
D800
19C0
1660
3860
3060
3060
2060
20C0
60C0
60C0
60C0
41C0
C188
C188
C190
8190
00E0
ENDCHAR
STARTCHAR 2113
ENCODING 8467
SWIDTH 500 0
DWIDTH 16 0
BBX 14 23 1 1
BITMAP
00E0
01B0
0330
0230
0630
0430
0430
0C60
0860
0860
18C0
18C0
1980
1980
1B00
1A00
1C08
180C
3818
D830
0C60
0FE0
0780
ENDCHAR
STARTCHAR 2116
ENCODING 8470
SWIDTH 1000 0
DWIDTH 32 0
BBX 28 23 2 1
BITMAP
F07C0000
38100000
38100000
38100000
2C100000
2C100000
26100000
26103C00
26106600
2310C300
23108300
21918180
21918180
20D18180
20D18180
20D18180
20718180
20718180
20318180
20308300
2030C370
F8106670
00103C70
ENDCHAR
STARTCHAR 2121
ENCODING 8481
SWIDTH 1000 0
DWIDTH 32 0
BBX 28 22 2 2
BITMAP
FFE00000
CC600000
8C200000
8C200000
8C200000
0C000000
0C3FCF80
0C184600
0C184600
0C180600
0C180600
0C188600
0C188600
0C1F8600
0C188600
0C188600
0C180600
0C180610
0C182610
0C186610
0C186630
3FBFEFF0
ENDCHAR
STARTCHAR 2127
ENCODING 8487
SWIDTH 500 0
DWIDTH 16 0
BBX 12 23 2 1
BITMAP
F9F0
F9F0
8910
8910
9990
30C0
6060
6060
6060
C030
C030
C030
C030
C030
C030
C030
C030
4020
6060
6060
30C0
1980
0F00
ENDCHAR
STARTCHAR 212B
ENCODING 8491
SWIDTH 1000 0
DWIDTH 32 0
BBX 23 25 4 2
BITMAP
003C00
006600
004200
004200
002400
001800
001800
003800
002C00
006C00
004E00
00C600
008700
008300
018300
010180
030180
03FFC0
0600C0
0400E0
040060
0C0060
080030
180038
FF01FE
ENDCHAR
STARTCHAR 2135
ENCODING 8501
SWIDTH 500 0
DWIDTH 16 0
BBX 14 24 1 0
BITMAP
2000
2060
2040
2060
3030
3018
182C
1824
0C48
0C40
0E80
1780
3380
2180
61C0
60C0
6060
6070
6030
6038
6018
6018
6018
C010
ENDCHAR
STARTCHAR 2153
ENCODING 8531
SWIDTH 500 0
DWIDTH 16 0
BBX 14 29 1 -2
BITMAP
F008
3018
3010
3030
3020
3020
3060
3040
30C0
3080
3080
3100
3100
FF00
0270
0698
0498
0498
0C18
0810
1860
1018
100C
200C
218C
618C
410C
4098
8070
ENDCHAR
STARTCHAR 2154
ENCODING 8532
SWIDTH 500 0
DWIDTH 16 0
BBX 14 30 1 -3
BITMAP
3808
4808
C418
C410
C430
0420
0820
0840
1040
20C0
2480
4580
8500
FD00
0260
0290
0798
0598
0D98
0818
0810
1860
1018
300C
200C
218C
418C
410C
C098
0070
ENDCHAR
STARTCHAR 2155
ENCODING 8533
SWIDTH 500 0
DWIDTH 16 0
BBX 15 29 1 -2
BITMAP
F004
3008
3008
3018
3010
3030
3020
3060
3040
3040
3080
3080
3180
FD00
03FC
02FC
0680
0480
0480
08B8
08CC
1886
1006
3006
20C6
60C6
408E
404C
8038
ENDCHAR
STARTCHAR 2160
ENCODING 8544
SWIDTH 1000 0
DWIDTH 32 0
BBX 8 22 12 2
BITMAP
FF
3C
18
18
18
18
18
18
18
18
18
18
18
18
18
18
18
18
18
18
38
FF
ENDCHAR
STARTCHAR 2161
ENCODING 8545
SWIDTH 1000 0
DWIDTH 32 0
BBX 18 22 7 2
BITMAP
FFFFC0
180600
180600
180600
180600
180600
180600
180600
180600
180600
180600
180600
180600
180600
180600
180600
180600
180600
180600
180600
180600
FFFFC0
ENDCHAR
STARTCHAR 2162
ENCODING 8546
SWIDTH 1000 0
DWIDTH 32 0
BBX 26 22 3 2
BITMAP
FFFFFFC0
180C0600
180C0600
180C0600
180C0600
180C0600
180C0600
180C0600
180C0600
180C0600
180C0600
180C0600
180C0600
180C0600
180C0600
180C0600
180C0600
180C0600
180C0600
180C0600
180C0600
FFFFFFC0
ENDCHAR
STARTCHAR 2163
ENCODING 8547
SWIDTH 1000 0
DWIDTH 32 0
BBX 27 23 3 1
BITMAP
FFFE0FE0
18700180
18700180
18300100
18380100
18380300
18180200
181C0200
180C0400
180C0400
180E0400
18060800
18060800
18071800
18031000
18031000
1803B000
1801A000
1801A000
1800E000
1800C000
FF00C000
00008000
ENDCHAR
STARTCHAR 2164
ENCODING 8548
SWIDTH 1000 0
DWIDTH 32 0
BBX 24 23 4 1
BITMAP
FF80FF
3C001C
1C0018
0C0010
0E0030
060020
070020
070060
030040
0380C0
018080
01C080
01C180
00C100
00E100
006200
007200
003600
003400
003C00
001C00
001800
000800
ENDCHAR
STARTCHAR 2165
ENCODING 8549
SWIDTH 1000 0
DWIDTH 32 0
BBX 27 23 2 1
BITMAP
FF07FFE0
3800C300
3800C300
18008300
1C018300
1C010300
0C010300
0E030300
06020300
06020300
07060300
03040300
03040300
038C0300
01880300
01880300
01D80300
00D00300
00D00300
00F00300
00600300
00601FE0
00400000
ENDCHAR
STARTCHAR 2166
ENCODING 8550
SWIDTH 1000 0
DWIDTH 32 0
BBX 30 23 1 1
BITMAP
FF0FFFFC
38011860
18011860
18011860
1C021860
1C021860
0C021860
0C041860
0E041860
06041860
06081860
07081860
03081860
03101860
03101860
01901860
01A01860
01A01860
01E01860
00E01860
00C01860
00C0FFFC
00400000
ENDCHAR
STARTCHAR 2167
ENCODING 8551
SWIDTH 1000 0
DWIDTH 32 0
BBX 30 23 1 1
BITMAP
FE3FFFFC
70066630
30046630
30046630
180C6630
18086630
18086630
0C086630
0C106630
0C106630
0C106630
06106630
06206630
06206630
03206630
03606630
03406630
03406630
01C06630
01806630
01806630
0081FFFC
00800000
ENDCHAR
STARTCHAR 2168
ENCODING 8552
SWIDTH 1000 0
DWIDTH 32 0
BBX 27 22 3 2
BITMAP
FFFF9FC0
181C0700
180C0600
180E0C00
18060800
18071800
18031000
1803B000
1801A000
1800E000
1800E000
1800E000
1801F000
18013000
18021800
18061800
18040C00
18080600
18080600
18100300
18300380
FFFE1FE0
ENDCHAR
STARTCHAR 2169
ENCODING 8553
SWIDTH 1000 0
DWIDTH 32 0
BBX 24 22 4 2
BITMAP
7FC1FC
1E0070
0E0060
0700C0
038080
01C100
00C300
00E600
007400
003800
001800
003C00
006E00
004700
008380
010180
0201C0
0600E0
0C0070
180038
38003C
FF01FF
ENDCHAR
STARTCHAR 216A
ENCODING 8554
SWIDTH 1000 0
DWIDTH 32 0
BBX 27 22 2 2
BITMAP
7F9FFFE0
1C030300
0C020300
06040300
06040300
03080300
03880300
01900300
01F00300
00E00300
00600300
00F00300
00B00300
01B80300
01180300
020C0300
060E0300
04060300
0C070300
18030300
18038300
FF0FFFE0
ENDCHAR
STARTCHAR 216B
ENCODING 8555
SWIDTH 1000 0
DWIDTH 32 0
BBX 30 22 1 2
BITMAP
FF1FFFFC
1C061C60
0C041860
0E0C1860
06081860
07181860
03101860
01B01860
01A01860
00C01860
00E01860
00E01860
01F01860
01301860
02181860
02181860
040C1860
080E1860
08061860
10031860
300398E0
FE1FFFFC
ENDCHAR
STARTCHAR 2170
ENCODING 8560
SWIDTH 1000 0
DWIDTH 32 0
BBX 8 22 12 3
BITMAP
38
38
38
00
00
00
08
F8
38
18
18
18
18
18
18
18
18
18
18
18
18
FF
ENDCHAR
STARTCHAR 2171
ENCODING 8561
SWIDTH 1000 0
DWIDTH 32 0
BBX 18 22 7 3
BITMAP
380E00
380E00
380E00
000000
000000
000000
080200
F83E00
380E00
180600
180600
180600
180600
180600
180600
180600
180600
180600
180600
180600
180600
FF3FC0
ENDCHAR
STARTCHAR 2172
ENCODING 8562
SWIDTH 1000 0
DWIDTH 32 0
BBX 24 22 4 3
BITMAP
383838
383838
383838
000000
000000
000000
080808
F8F8F8
181818
181818
181818
181818
181818
181818
181818
181818
181818
181818
181818
181818
181818
FFFFFF
ENDCHAR
STARTCHAR 2173
ENCODING 8563
SWIDTH 1000 0
DWIDTH 32 0
BBX 24 23 5 2
BITMAP
380000
380000
380000
000000
000000
000000
080000
F9FC3F
18700E
18300C
183808
181818
181810
180C10
180C30
180E20
180660
180640
180340
180380
180380
FF0180
000100
ENDCHAR
STARTCHAR 2174
ENCODING 8564
SWIDTH 1000 0
DWIDTH 32 0
BBX 18 16 7 1
BITMAP
FE0FC0
380300
180200
1C0200
0C0400
0C0400
0E0C00
060800
071800
031000
033000
01A000
01A000
00C000
00C000
008000
ENDCHAR
STARTCHAR 2175
ENCODING 8565
SWIDTH 1000 0
DWIDTH 32 0
BBX 25 23 3 2
BITMAP
00001C00
00001C00
00001C00
00000000
00000000
00000000
00000400
FE1FFC00
38060C00
18060C00
1C040C00
0C0C0C00
0C080C00
0E180C00
06100C00
06100C00
03300C00
03200C00
03E00C00
01C00C00
01C00C00
00807F80
00800000
ENDCHAR
STARTCHAR 2176
ENCODING 8566
SWIDTH 1000 0
DWIDTH 32 0
BBX 29 23 2 2
BITMAP
000071C0
000071C0
000071C0
00000000
00000000
00000000
00001040
FE1FF3C0
380630C0
180430C0
1C0430C0
0C0830C0
0C0830C0
0E1830C0
061030C0
061030C0
032030C0
032030C0
03E030C0
01C030C0
01C030C0
0081FFF8
00800000
ENDCHAR
STARTCHAR 2177
ENCODING 8567
SWIDTH 1000 0
DWIDTH 32 0
BBX 29 23 1 1
BITMAP
0001CEE0
0001CEE0
0001CEE0
00000000
00000000
00000000
00004220
FE3FDFE0
3804C660
1804C660
1808C660
1C08C660
0C08C660
0C10C660
0E10C660
0620C660
0620C660
0340C660
0340C660
0340C660
0180C660
0183FFF8
01000000
ENDCHAR
STARTCHAR 2178
ENCODING 8568
SWIDTH 1000 0
DWIDTH 32 0
BBX 25 22 5 3
BITMAP
38000000
38000000
38000000
00000000
00000000
00000000
08000000
F8FE7E00
181C1800
180C1000
18062000
18066000
18034000
18018000
18018000
1802C000
18066000
180C7000
18083000
18101800
18301C00
FFFC7F80
ENDCHAR
STARTCHAR 2179
ENCODING 8569
SWIDTH 1000 0
DWIDTH 32 0
BBX 20 15 6 2
BITMAP
7F9FE0
0C0300
060200
030400
038800
01D000
00E000
006000
00B000
011800
020C00
040600
080300
380380
FE0FF0
ENDCHAR
STARTCHAR 217A
ENCODING 8570
SWIDTH 1000 0
DWIDTH 32 0
BBX 25 22 3 3
BITMAP
00001C00
00001C00
00001C00
00000000
00000000
00000000
00000400
7F3F7C00
1C0C0C00
0C080C00
06100C00
03200C00
01C00C00
01C00C00
01C00C00
01600C00
02700C00
04300C00
08180C00
181C0C00
300E0C00
FC3FFF80
ENDCHAR
STARTCHAR 217B
ENCODING 8571
SWIDTH 1000 0
DWIDTH 32 0
BBX 29 22 2 3
BITMAP
000071C0
000071C0
000071C0
00000000
00000000
00000000
00001040
7F3FF3C0
1C0C31C0
0C0830C0
061030C0
032030C0
034030C0
01C030C0
01C030C0
016030C0
027030C0
043030C0
081830C0
180C30C0
300E30C0
FC3FFFF8
ENDCHAR
STARTCHAR 2190
ENCODING 8592
SWIDTH 1000 0
DWIDTH 32 0
BBX 28 11 2 7
BITMAP
03800000
06000000
0C000000
38000000
70000000
FFFFFFF0
70000000
38000000
0C000000
06000000
03800000
ENDCHAR
STARTCHAR 2191
ENCODING 8593
SWIDTH 1000 0
DWIDTH 32 0
BBX 12 28 10 -1
BITMAP
0400
0600
0F00
1F80
36C0
6660
C630
8610
8610
0600
0600
0600
0600
0600
0600
0600
0600
0600
0600
0600
0600
0600
0600
0600
0600
0600
0600
0600
ENDCHAR
STARTCHAR 2192
ENCODING 8594
SWIDTH 1000 0
DWIDTH 32 0
BBX 28 11 2 7
BITMAP
00001C00
00000600
00000300
000001C0
000000E0
FFFFFFF0
000000E0
000001C0
00000300
00000600
00001C00
ENDCHAR
STARTCHAR 2193
ENCODING 8595
SWIDTH 1000 0
DWIDTH 32 0
BBX 12 28 10 -3
BITMAP
0600
0600
0600
0600
0600
0600
0600
0600
0600
0600
0600
0600
0600
0600
0600
0600
0600
0600
0600
8610
8610
C630
6660
36C0
1F80
0F00
0600
0200
ENDCHAR
STARTCHAR 2194
ENCODING 8596
SWIDTH 500 0
DWIDTH 16 0
BBX 14 11 1 7
BITMAP
1860
3030
3030
6018
E01C
FFFC
E01C
6018
3030
3030
1860
ENDCHAR
STARTCHAR 2196
ENCODING 8598
SWIDTH 500 0
DWIDTH 16 0
BBX 12 24 2 1
BITMAP
1000
3C00
3F00
3B80
68E0
6C20
C420
C400
8600
8200
0300
0300
0100
0180
0180
0080
00C0
0040
0040
0060
0020
0030
0030
0020
ENDCHAR
STARTCHAR 2197
ENCODING 8599
SWIDTH 500 0
DWIDTH 16 0
BBX 12 24 2 1
BITMAP
0080
03C0
0FC0
1DC0
7160
4320
8230
0630
0610
0410
0C00
0C00
0800
1800
1800
1000
3000
2000
6000
6000
4000
C000
C000
8000
ENDCHAR
STARTCHAR 2198
ENCODING 8600
SWIDTH 500 0
DWIDTH 16 0
BBX 12 24 2 0
BITMAP
8000
C000
4000
4000
6000
2000
3000
3000
1000
1800
1800
0800
0C00
0420
0410
0630
0230
8320
6360
3960
1DC0
07C0
01C0
0080
ENDCHAR
STARTCHAR 2199
ENCODING 8601
SWIDTH 500 0
DWIDTH 16 0
BBX 12 24 2 0
BITMAP
0010
0030
0020
0060
0060
0040
00C0
00C0
0080
0180
0180
0100
0300
8200
8600
C600
C400
4C20
6C60
69C0
3B80
3E00
3800
1000
ENDCHAR
STARTCHAR 21C4
ENCODING 8644
SWIDTH 500 0
DWIDTH 16 0
BBX 12 24 2 0
BITMAP
0700
0300
0180
00C0
0060
FFF0
0060
00C0
0180
0380
0700
0000
0000
0E00
1C00
1800
3000
6000
FFF0
6000
3000
1800
0C00
0E00
ENDCHAR
STARTCHAR 21D2
ENCODING 8658
SWIDTH 1000 0
DWIDTH 32 0
BBX 28 17 2 4
BITMAP
00001000
00003800
00000C00
00000600
FFFFFF00
00000180
000000C0
00000060
00000030
00000060
000000C0
00000180
FFFFFF00
00000600
00000C00
00001800
00003000
ENDCHAR
STARTCHAR 21D4
ENCODING 8660
SWIDTH 1000 0
DWIDTH 32 0
BBX 28 17 2 4
BITMAP
00801000
01C03800
03000C00
06000600
0FFFFF00
18000180
300000C0
60000060
C0000030
60000060
300000C0
18000180
0FFFFF00
06000600
03000C00
01801800
00C03000
ENDCHAR
STARTCHAR 21E6
ENCODING 8678
SWIDTH 500 0
DWIDTH 16 0
BBX 12 11 2 7
BITMAP
0800
0800
1800
2800
47F0
4010
C010
2FE0
1800
0800
0800
ENDCHAR
STARTCHAR 21E7
ENCODING 8679
SWIDTH 500 0
DWIDTH 16 0
BBX 10 25 3 1
BITMAP
0800
0C00
1200
1200
2100
2100
4080
C0C0
3700
1400
1400
1400
1400
1400
1400
1400
1400
1400
1400
1400
1400
1400
1400
1400
1400
ENDCHAR
STARTCHAR 21E8
ENCODING 8680
SWIDTH 500 0
DWIDTH 16 0
BBX 12 11 2 7
BITMAP
0200
0100
0280
0240
FE20
8020
8030
7E40
0280
0100
0200
ENDCHAR
STARTCHAR 21E9
ENCODING 8681
SWIDTH 500 0
DWIDTH 16 0
BBX 10 26 3 -1
BITMAP
0C00
1400
1400
1400
1400
1400
1400
1400
1400
1400
1400
1400
1400
1400
1400
1400
1400
F3C0
4080
4080
2100
2100
1200
1400
0C00
0800
ENDCHAR
STARTCHAR 2200
ENCODING 8704
SWIDTH 1000 0
DWIDTH 32 0
BBX 28 26 2 -1
BITMAP
C0000030
40000020
60000060
20000040
300000C0
10000180
18000180
0C000300
04000200
07FFFE00
02000400
03000C00
01000800
01801800
00C03000
00C03000
00606000
00606000
0030C000
00108000
00198000
00090000
000F0000
00060000
00060000
00040000
ENDCHAR
STARTCHAR 2202
ENCODING 8706
SWIDTH 1000 0
DWIDTH 32 0
BBX 15 25 9 0
BITMAP
01E0
0638
0818
100C
000C
0006
0006
0006
0006
0006
0F86
1846
302E
601E
601E
C01C
C01C
C01C
C018
C038
C030
6070
60E0
31C0
1F00
ENDCHAR
STARTCHAR 2203
ENCODING 8707
SWIDTH 1000 0
DWIDTH 32 0
BBX 23 24 4 0
BITMAP
FFFFFE
000006
000006
000006
000006
000006
000006
000006
000006
000006
000006
FFFFFE
000006
000006
000006
000006
000006
000006
000006
000006
000006
000006
000006
FFFFFE
ENDCHAR
STARTCHAR 2205
ENCODING 8709
SWIDTH 500 0
DWIDTH 16 0
BBX 12 18 2 3
BITMAP
0020
0060
0F60
39C0
70E0
41A0
C330
8310
8610
8410
8C10
C820
7820
30C0
3F00
6000
4000
4000
ENDCHAR
STARTCHAR 2207
ENCODING 8711
SWIDTH 1000 0
DWIDTH 32 0
BBX 24 24 4 -1
BITMAP
FFFFFF
FFFFFF
600002
600004
300004
100008
180008
0C0010
0C0010
060020
060020
030040
030040
018080
018080
00C100
00C100
006200
006200
003400
003C00
001800
001800
001000
ENDCHAR
STARTCHAR 2208
ENCODING 8712
SWIDTH 1000 0
DWIDTH 32 0
BBX 24 22 4 1
BITMAP
00FFFF
030000
0C0000
100000
200000
600000
400000
C00000
800000
800000
FFFFFF
800000
800000
C00000
C00000
400000
600000
300000
180000
0C0000
070000
00FFFF
ENDCHAR
STARTCHAR 2209
ENCODING 8713
SWIDTH 500 0
DWIDTH 16 0
BBX 12 21 2 2
BITMAP
00C0
03F0
0C80
1180
2180
4100
4100
C100
8300
8300
FFF0
8200
8600
C600
C400
4400
6C00
3C00
1C00
0FF0
0800
ENDCHAR
STARTCHAR 220B
ENCODING 8715
SWIDTH 1000 0
DWIDTH 32 0
BBX 24 22 4 1
BITMAP
FFFF00
0000C0
000030
000008
000004
000006
000002
000002
000001
000001
FFFFFF
000001
000001
000003
000003
000002
000006
00000C
000018
000030
0000E0
FFFF00
ENDCHAR
STARTCHAR 2212
ENCODING 8722
SWIDTH 500 0
DWIDTH 16 0
BBX 12 1 2 12
BITMAP
FFF0
ENDCHAR
STARTCHAR 2213
ENCODING 8723
SWIDTH 500 0
DWIDTH 16 0
BBX 12 21 2 1
BITMAP
FFF0
0000
0000
0000
0000
0600
0600
0600
0600
0600
0600
0600
FFF0
0600
0600
0600
0600
0600
0600
0600
0600
ENDCHAR
STARTCHAR 221A
ENCODING 8730
SWIDTH 1000 0
DWIDTH 32 0
BBX 31 30 1 -3
BITMAP
0001FFFE
00030000
00030000
00020000
00060000
00060000
00040000
000C0000
000C0000
00080000
00180000
00100000
00100000
00300000
00200000
00200000
20600000
30400000
30C00000
30C00000
58800000
59800000
99800000
8D000000
0F000000
0F000000
06000000
06000000
04000000
04000000
ENDCHAR
STARTCHAR 221D
ENCODING 8733
SWIDTH 1000 0
DWIDTH 32 0
BBX 27 13 2 6
BITMAP
0F801F00
30C061C0
4030C040
40198060
800B0000
800F0000
80060000
800E0000
800B0000
40198060
6030C040
30C061C0
0F801F00
ENDCHAR
STARTCHAR 221E
ENCODING 8734
SWIDTH 1000 0
DWIDTH 32 0
BBX 28 12 2 6
BITMAP
0F801F00
30E060C0
4030C020
40198020
800F0010
80060010
80060010
800F0010
C0198020
4030C020
30E070C0
0F801F00
ENDCHAR
STARTCHAR 221F
ENCODING 8735
SWIDTH 1000 0
DWIDTH 32 0
BBX 26 26 4 0
BITMAP
C0000000
C0000000
C0000000
C0000000
C0000000
C0000000
C0000000
C0000000
C0000000
C0000000
C0000000
C0000000
C0000000
C0000000
C0000000
C0000000
C0000000
C0000000
C0000000
C0000000
C0000000
C0000000
C0000000
C0000000
C0000000
FFFFFFC0
ENDCHAR
STARTCHAR 2220
ENCODING 8736
SWIDTH 1000 0
DWIDTH 32 0
BBX 26 25 3 1
BITMAP
00000040
000000C0
00000180
00000300
00000E00
00001C00
00003800
00007000
0000E000
0001C000
00038000
00070000
000E0000
001C0000
00380000
00700000
00E00000
01C00000
03800000
07000000
0E000000
1C000000
38000000
70000000
FFFFFFC0
ENDCHAR
STARTCHAR 2225
ENCODING 8741
SWIDTH 1000 0
DWIDTH 32 0
BBX 16 28 8 -2
BITMAP
0063
0062
0046
00C6
00C4
008C
018C
0188
0118
0318
0310
0230
0630
0620
0460
0C40
0C40
08C0
1880
1880
1180
3100
2100
2300
6200
4200
4600
C400
ENDCHAR
STARTCHAR 2226
ENCODING 8742
SWIDTH 500 0
DWIDTH 16 0
BBX 14 29 1 -2
BITMAP
0084
008C
0188
0108
0118
0310
0310
4230
6230
3620
1C20
0C60
0E40
0F40
09C0
18C0
18C0
11E0
11B0
3118
2108
2300
6200
6200
4600
C600
C400
8400
0800
ENDCHAR
STARTCHAR 2227
ENCODING 8743
SWIDTH 1000 0
DWIDTH 32 0
BBX 28 26 2 0
BITMAP
00040000
00060000
000F0000
000D0000
00198000
00108000
0030C000
00204000
00606000
00402000
00C03000
00801000
01801800
01000800
03000C00
02000400
06000600
0C000300
0C000300
18000180
10000080
300000C0
20000040
60000060
40000020
C0000030
ENDCHAR
STARTCHAR 2228
ENCODING 8744
SWIDTH 1000 0
DWIDTH 32 0
BBX 28 26 2 -2
BITMAP
C0000030
40000020
60000060
20000040
300000C0
10000080
18000180
0C000300
0C000300
06000600
02000400
03000C00
01000800
01801800
00801000
00C03000
00402000
00606000
00204000
0030C000
00108000
00198000
000B0000
000F0000
00060000
00040000
ENDCHAR
STARTCHAR 2229
ENCODING 8745
SWIDTH 1000 0
DWIDTH 32 0
BBX 22 24 5 0
BITMAP
00FC00
07FF80
0F03C0
1C00E0
380030
700030
600018
600018
C0000C
C0000C
C0000C
C0000C
C0000C
C0000C
C0000C
C0000C
C0000C
C0000C
C0000C
C0000C
C0000C
C0000C
C0000C
C0000C
ENDCHAR
STARTCHAR 222A
ENCODING 8746
SWIDTH 1000 0
DWIDTH 32 0
BBX 22 24 5 0
BITMAP
C0000C
C0000C
C0000C
C0000C
C0000C
C0000C
C0000C
C0000C
C0000C
C0000C
C0000C
C0000C
C0000C
C0000C
C0000C
C0000C
600018
600018
300030
380070
1C00E0
0F03C0
07FF80
00FC00
ENDCHAR
STARTCHAR 222B
ENCODING 8747
SWIDTH 1000 0
DWIDTH 32 0
BBX 16 29 8 -2
BITMAP
001C
0022
0063
00C3
00C3
00C0
00C0
01C0
0180
0180
0180
0180
0180
0180
0180
0180
0180
0180
0180
0180
0180
0300
0300
0300
0300
E300
E600
C400
7800
ENDCHAR
STARTCHAR 222C
ENCODING 8748
SWIDTH 1000 0
DWIDTH 32 0
BBX 26 29 3 -2
BITMAP
001C0700
00620880
006318C0
00C730C0
00C730C0
00C03000
00C03000
01803000
01807000
01806000
01806000
01806000
01806000
01806000
01806000
01806000
01806000
01806000
01806000
01806000
03806000
0300E000
0300C000
0300C000
0300C000
C338C000
C6398000
C4318000
780E0000
ENDCHAR
STARTCHAR 222E
ENCODING 8750
SWIDTH 1000 0
DWIDTH 32 0
BBX 16 29 8 -2
BITMAP
001C
0022
0063
0043
00C3
00C0
00C0
0080
0180
0180
0180
07E0
0DA0
0990
0990
0990
0990
05A0
03C0
0180
0180
0100
0300
0300
0300
E200
E200
C400
7800
ENDCHAR
STARTCHAR 2234
ENCODING 8756
SWIDTH 1000 0
DWIDTH 32 0
BBX 20 20 6 2
BITMAP
006000
00F000
00F000
006000
000000
000000
000000
000000
000000
000000
000000
000000
000000
000000
000000
000000
600060
F000F0
F000F0
600060
ENDCHAR
STARTCHAR 2235
ENCODING 8757
SWIDTH 1000 0
DWIDTH 32 0
BBX 20 20 6 2
BITMAP
600060
F000F0
F000F0
600060
000000
000000
000000
000000
000000
000000
000000
000000
000000
000000
000000
000000
006000
00F000
00F000
006000
ENDCHAR
STARTCHAR 223D
ENCODING 8765
SWIDTH 1000 0
DWIDTH 32 0
BBX 26 12 3 6
BITMAP
1F803C00
3080C300
40018080
C00300C0
80060040
800C0040
800C0040
80180040
C03000C0
40608080
30C04300
0F003E00
ENDCHAR
STARTCHAR 2243
ENCODING 8771
SWIDTH 500 0
DWIDTH 16 0
BBX 13 10 1 8
BITMAP
1C00
2608
4110
80E0
0000
0000
0000
0000
0000
7FF8
ENDCHAR
STARTCHAR 2245
ENCODING 8773
SWIDTH 500 0
DWIDTH 16 0
BBX 12 13 2 6
BITMAP
3800
4C10
8220
01C0
0000
0000
0000
FFF0
0000
0000
0000
0000
FFF0
ENDCHAR
STARTCHAR 2248
ENCODING 8776
SWIDTH 500 0
DWIDTH 16 0
BBX 13 10 1 7
BITMAP
1C08
6318
80E0
0000
0000
0000
1C08
2608
4190
00E0
ENDCHAR
STARTCHAR 2252
ENCODING 8786
SWIDTH 1000 0
DWIDTH 32 0
BBX 22 20 5 3
BITMAP
060000
0F0000
0F0000
060000
000000
000000
000000
FFFFFC
000000
000000
000000
000000
000000
FFFFFC
000000
000000
0000C0
0001E0
0001E0
0001C0
ENDCHAR
STARTCHAR 2260
ENCODING 8800
SWIDTH 1000 0
DWIDTH 32 0
BBX 22 22 5 1
BITMAP
000180
000180
000300
000300
000600
000600
000C00
FFFFFC
001800
001000
003000
002000
006000
FFFFFC
00C000
008000
018000
010000
030000
020000
060000
040000
ENDCHAR
STARTCHAR 2261
ENCODING 8801
SWIDTH 1000 0
DWIDTH 32 0
BBX 22 16 5 4
BITMAP
FFFFFC
000000
000000
000000
000000
000000
000000
FFFFFC
000000
000000
000000
000000
000000
000000
000000
FFFFFC
ENDCHAR
STARTCHAR 2262
ENCODING 8802
SWIDTH 500 0
DWIDTH 16 0
BBX 12 21 2 2
BITMAP
0040
00C0
00C0
0080
FFF0
0100
0100
0300
0200
0200
FFF0
0400
0400
0C00
0800
0800
1800
FFF0
1000
3000
2000
ENDCHAR
STARTCHAR 2266
ENCODING 8806
SWIDTH 1000 0
DWIDTH 32 0
BBX 22 25 5 0
BITMAP
000004
00001C
0000F0
0003C0
001E00
00F000
078000
1E0000
F00000
3C0000
070000
01E000
003C00
000780
0001E0
00003C
000004
000000
000000
FFFFFC
000000
000000
000000
000000
FFFFFC
ENDCHAR
STARTCHAR 2267
ENCODING 8807
SWIDTH 1000 0
DWIDTH 32 0
BBX 22 24 5 1
BITMAP
E00000
3C0000
0F0000
01E000
003C00
000780
0001E0
00003C
0000F0
000380
001E00
00F000
078000
1E0000
F00000
800000
000000
000000
FFFFFC
000000
000000
000000
000000
FFFFFC
ENDCHAR
STARTCHAR 226A
ENCODING 8810
SWIDTH 1000 0
DWIDTH 32 0
BBX 26 28 3 -2
BITMAP
0000E1C0
00018300
00030600
000E1C00
00183800
00306000
0060C000
00C18000
03870000
060C0000
0C180000
18300000
70600000
C1C00000
C1C00000
70600000
18300000
0C180000
060C0000
03870000
00C18000
0060C000
00306000
00183800
000E1C00
00030600
00018300
0000C180
ENDCHAR
STARTCHAR 226B
ENCODING 8811
SWIDTH 1000 0
DWIDTH 32 0
BBX 26 28 3 -2
BITMAP
E1C00000
30600000
18300000
0E1C0000
03060000
01830000
00C18000
0060C000
00387000
000C1800
00060C00
00030600
00018380
0000E0C0
0000E0C0
00018380
00030600
00060C00
000C1800
00387000
0060E000
00C18000
01830000
07060000
0E1C0000
18300000
30600000
60C00000
ENDCHAR
STARTCHAR 2276
ENCODING 8822
SWIDTH 500 0
DWIDTH 16 0
BBX 12 22 2 1
BITMAP
0030
00E0
03C0
0F00
1C00
7000
E000
3800
0E00
8380
E0E0
7030
1C10
0700
01C0
0070
00E0
0380
0E00
3800
E000
8000
ENDCHAR
STARTCHAR 2277
ENCODING 8823
SWIDTH 500 0
DWIDTH 16 0
BBX 13 22 1 1
BITMAP
6000
3800
1E00
0700
01C0
0070
0038
00E0
0380
0E08
3838
6070
81C0
0700
1C00
7000
3800
0E00
0380
00E0
0038
0008
ENDCHAR
STARTCHAR 2282
ENCODING 8834
SWIDTH 1000 0
DWIDTH 32 0
BBX 24 22 4 1
BITMAP
00FFFF
030000
0C0000
180000
300000
600000
600000
C00000
C00000
C00000
C00000
C00000
C00000
C00000
E00000
600000
600000
300000
180000
0C0000
070000
00FFFF
ENDCHAR
STARTCHAR 2283
ENCODING 8835
SWIDTH 1000 0
DWIDTH 32 0
BBX 24 22 4 1
BITMAP
FFFF00
0001C0
000030
000018
00000C
00000E
000006
000006
000003
000003
000003
000003
000003
000003
000003
000006
000006
00000C
000018
000030
0000E0
FFFF00
ENDCHAR
STARTCHAR 2284
ENCODING 8836
SWIDTH 500 0
DWIDTH 16 0
BBX 12 21 2 2
BITMAP
00C0
03F0
0C80
1180
2180
4100
4100
8300
8300
8300
8200
8200
8600
8600
C400
4400
6400
3C00
1C00
0FF0
0800
ENDCHAR
STARTCHAR 2285
ENCODING 8837
SWIDTH 500 0
DWIDTH 16 0
BBX 12 22 2 1
BITMAP
0180
FF00
0380
03C0
0260
0220
0220
0610
0610
0410
0410
0C10
0C10
0C10
0820
0820
1840
1880
1300
FC00
3000
3000
ENDCHAR
STARTCHAR 2286
ENCODING 8838
SWIDTH 1000 0
DWIDTH 32 0
BBX 24 24 4 0
BITMAP
03FFFF
0E0000
180000
300000
600000
E00000
C00000
C00000
C00000
C00000
C00000
E00000
600000
300000
180000
0E0000
03FFFF
000000
000000
000000
000000
000000
000000
FFFFFF
ENDCHAR
STARTCHAR 2287
ENCODING 8839
SWIDTH 1000 0
DWIDTH 32 0
BBX 24 24 4 0
BITMAP
FFFFC0
000070
000018
00000C
000006
000006
000003
000003
000003
000003
000003
000006
000006
00000C
000018
000070
FFFFC0
000000
000000
000000
000000
000000
000000
FFFFFF
ENDCHAR
STARTCHAR 228A
ENCODING 8842
SWIDTH 500 0
DWIDTH 16 0
BBX 12 22 2 0
BITMAP
0FF0
1800
2000
4000
C000
8000
8000
8000
8000
C000
4000
2000
1800
0FF0
0000
0000
0000
0300
0200
FFF0
0400
0C00
ENDCHAR
STARTCHAR 228B
ENCODING 8843
SWIDTH 500 0
DWIDTH 16 0
BBX 12 22 2 0
BITMAP
FF00
0180
0040
0020
0030
0010
0010
0010
0010
0030
0020
0040
0080
FF00
0000
0000
0000
0300
0200
FFF0
0400
0C00
ENDCHAR
STARTCHAR 2295
ENCODING 8853
SWIDTH 500 0
DWIDTH 16 0
BBX 14 14 1 5
BITMAP
0F80
1860
2210
4208
C208
8204
BFF4
8204
8204
820C
4208
2218
1070
0FC0
ENDCHAR
STARTCHAR 2296
ENCODING 8854
SWIDTH 500 0
DWIDTH 16 0
BBX 14 15 1 5
BITMAP
0F80
1860
2010
4008
4008
8004
8004
BFF4
8004
8004
4008
4008
2010
1060
0FC0
ENDCHAR
STARTCHAR 2297
ENCODING 8855
SWIDTH 500 0
DWIDTH 16 0
BBX 14 15 1 5
BITMAP
0F80
1860
2010
4008
5868
8CC4
8784
8304
8784
8CC4
5868
5048
2010
1060
0FC0
ENDCHAR
STARTCHAR 22A5
ENCODING 8869
SWIDTH 1000 0
DWIDTH 32 0
BBX 28 26 2 0
BITMAP
00060000
00060000
00060000
00060000
00060000
00060000
00060000
00060000
00060000
00060000
00060000
00060000
00060000
00060000
00060000
00060000
00060000
00060000
00060000
00060000
00060000
00060000
00060000
00060000
00060000
FFFFFFF0
ENDCHAR
STARTCHAR 22BF
ENCODING 8895
SWIDTH 1000 0
DWIDTH 32 0
BBX 26 25 3 1
BITMAP
00000040
000000C0
000001C0
000003C0
000006C0
00000CC0
000018C0
000030C0
000060C0
0000C0C0
000180C0
000300C0
000600C0
000C00C0
001800C0
007000C0
00E000C0
01C000C0
038000C0
070000C0
0E0000C0
1C0000C0
380000C0
700000C0
FFFFFFC0
ENDCHAR
STARTCHAR 22DA
ENCODING 8922
SWIDTH 500 0
DWIDTH 16 0
BBX 12 25 2 0
BITMAP
0010
0070
01C0
0700
3C00
E000
3800
0E00
03C0
0070
0010
0000
FFF0
0000
8000
F000
3C00
0700
01C0
0070
03C0
0E00
3800
E000
8000
ENDCHAR
STARTCHAR 22DB
ENCODING 8923
SWIDTH 500 0
DWIDTH 16 0
BBX 12 25 2 0
BITMAP
8000
E000
3800
0E00
03C0
0070
01C0
0700
3C00
F000
8000
0000
FFF0
0000
0010
00F0
03C0
0E00
3800
E000
3C00
0700
01C0
0070
0010
ENDCHAR
STARTCHAR 2305
ENCODING 8965
SWIDTH 500 0
DWIDTH 16 0
BBX 12 14 2 4
BITMAP
FFF0
0400
0600
0600
0F00
0900
1980
1980
1080
30C0
2040
6060
4020
C030
ENDCHAR
STARTCHAR 2306
ENCODING 8966
SWIDTH 500 0
DWIDTH 16 0
BBX 12 18 2 2
BITMAP
FFF0
0000
0000
0000
FFF0
0400
0600
0600
0F00
0900
1980
1980
1080
30C0
2040
6060
4020
C030
ENDCHAR
STARTCHAR 2312
ENCODING 8978
SWIDTH 1000 0
DWIDTH 32 0
BBX 30 7 1 18
BITMAP
003FF000
01FFFE00
07C00F80
1E0001E0
70000038
E000001C
80000004
ENDCHAR
STARTCHAR 2318
ENCODING 8984
SWIDTH 1000 0
DWIDTH 32 0
BBX 28 28 2 -2
BITMAP
3C0003C0
62000460
C1000830
C1000830
C1000830
C1000830
61000860
3FFFFFC0
01000800
01000800
01000800
01000800
01000800
01000800
01000800
01000800
01000800
01000800
01000800
01000800
3FFFFFC0
61000860
C1000830
C1000830
C1000830
C1000830
62000460
3C0003C0
ENDCHAR
STARTCHAR 23BE
ENCODING 9150
SWIDTH 1000 0
DWIDTH 32 0
BBX 17 32 15 -4
BITMAP
FFFF80
800000
800000
800000
800000
800000
800000
800000
800000
800000
800000
800000
800000
800000
800000
800000
800000
800000
800000
800000
800000
800000
800000
800000
800000
800000
800000
800000
800000
800000
800000
800000
ENDCHAR
STARTCHAR 23BF
ENCODING 9151
SWIDTH 1000 0
DWIDTH 32 0
BBX 17 32 15 -4
BITMAP
800000
800000
800000
800000
800000
800000
800000
800000
800000
800000
800000
800000
800000
800000
800000
800000
800000
800000
800000
800000
800000
800000
800000
800000
800000
800000
800000
800000
800000
800000
800000
FFFF80
ENDCHAR
STARTCHAR 23C0
ENCODING 9152
SWIDTH 1000 0
DWIDTH 32 0
BBX 25 32 3 -4
BITMAP
00080000
00080000
00080000
00080000
007F0000
01C9E000
06083000
08080800
10080400
20080200
60080300
40080100
40080100
80080080
80080080
80080080
80080080
80080080
80080080
40080100
40080100
60080300
30080600
18080C00
0C081800
06083000
03C9E000
007F8000
00080000
00080000
00080000
00080000
ENDCHAR
STARTCHAR 23C1
ENCODING 9153
SWIDTH 1000 0
DWIDTH 32 0
BBX 32 32 0 -4
BITMAP
FFFFFFFF
00010000
00010000
00010000
001FF000
00711C00
00C10200
01810180
03010080
02010040
04010020
04010020
08010030
08010010
08010010
08010010
08010010
08010010
08010010
04010020
04010020
04010060
020100C0
03010180
01810300
00C10600
00393C00
000FF000
00010000
00010000
00010000
00010000
ENDCHAR
STARTCHAR 23C2
ENCODING 9154
SWIDTH 1000 0
DWIDTH 32 0
BBX 32 32 0 -4
BITMAP
00010000
00010000
00010000
00010000
000FE000
00393C00
00E10600
01810100
03010080
02010040
04010060
04010020
0C010020
08010010
08010010
08010010
08010010
08010010
08010010
08010030
04010020
04010060
02010040
03010080
01810180
00C10700
00711C00
001FF000
00010000
00010000
00010000
FFFFFFFF
ENDCHAR
STARTCHAR 23C3
ENCODING 9155
SWIDTH 1000 0
DWIDTH 32 0
BBX 27 32 2 -4
BITMAP
00040000
00040000
00040000
00040000
00040000
000E0000
000E0000
001F0000
00150000
00358000
00648000
0064C000
00C46000
00842000
01843000
01041000
03041800
06040C00
04040400
0C040600
08040200
18040300
30040100
30040180
600400C0
40040040
FFFFFFE0
00040000
00040000
00040000
00040000
00040000
ENDCHAR
STARTCHAR 23C4
ENCODING 9156
SWIDTH 1000 0
DWIDTH 32 0
BBX 32 32 0 -4
BITMAP
FFFFFFFF
00010000
00010000
00010000
00010000
00038000
00038000
0007C000
00056000
000D6000
00193000
00191000
00311800
00210C00
00610C00
00410600
00C10200
00810300
01810180
03010180
020100C0
06010040
04010060
0C010030
08010030
18010018
3FFFFFF8
00010004
00010000
00010000
00010000
00010000
ENDCHAR
STARTCHAR 23C5
ENCODING 9157
SWIDTH 1000 0
DWIDTH 32 0
BBX 32 32 0 -4
BITMAP
00010000
00010000
00010000
00010000
00010000
00038000
00038000
0007C000
00054000
000D6000
00093000
00191000
00311800
00310800
00610C00
00410600
00C10200
00810300
01810100
03010180
030100C0
06010040
04010060
0C010030
08010030
18010018
3FFFFFF8
00010004
00010000
00010000
00010000
FFFFFFFF
ENDCHAR
STARTCHAR 23C6
ENCODING 9158
SWIDTH 1000 0
DWIDTH 32 0
BBX 29 32 1 -4
BITMAP
00020000
00020000
00020000
00020000
00020000
00020000
00020000
00020000
00020000
00020000
00020000
00020000
0F820000
30720000
601A0000
80060000
00030010
0003C038
00027060
00021F80
00020000
00020000
00020000
00020000
00020000
00020000
00020000
00020000
00020000
00020000
00020000
00020000
ENDCHAR
STARTCHAR 23C7
ENCODING 9159
SWIDTH 1000 0
DWIDTH 32 0
BBX 32 32 0 -4
BITMAP
FFFFFFFF
00010000
00010000
00010000
00010000
00010000
00010000
00010000
00010000
00010000
00010000
00010000
07E10000
1C390000
300F0000
40030000
00018004
0001600C
00013830
000107C0
00010000
00010000
00010000
00010000
00010000
00010000
00010000
00010000
00010000
00010000
00010000
00010000
ENDCHAR
STARTCHAR 23C8
ENCODING 9160
SWIDTH 1000 0
DWIDTH 32 0
BBX 32 32 0 -4
BITMAP
00010000
00010000
00010000
00010000
00010000
00010000
00010000
00010000
00010000
00010000
00010000
00010000
07E10000
1C390000
300D0000
20030000
00018008
0001E00C
00013838
000107C0
00010000
00010000
00010000
00010000
00010000
00010000
00010000
00010000
00010000
00010000
00010000
FFFFFFFF
ENDCHAR
STARTCHAR 23C9
ENCODING 9161
SWIDTH 1000 0
DWIDTH 32 0
BBX 32 32 0 -4
BITMAP
FFFFFFFF
00010000
00010000
00010000
00010000
00010000
00010000
00010000
00010000
00010000
00010000
00010000
00010000
00010000
00010000
00010000
00010000
00010000
00010000
00010000
00010000
00010000
00010000
00010000
00010000
00010000
00010000
00010000
00010000
00010000
00010000
00010000
ENDCHAR
STARTCHAR 23CA
ENCODING 9162
SWIDTH 1000 0
DWIDTH 32 0
BBX 32 32 0 -4
BITMAP
00010000
00010000
00010000
00010000
00010000
00010000
00010000
00010000
00010000
00010000
00010000
00010000
00010000
00010000
00010000
00010000
00010000
00010000
00010000
00010000
00010000
00010000
00010000
00010000
00010000
00010000
00010000
00010000
00010000
00010000
00010000
FFFFFFFF
ENDCHAR
STARTCHAR 23CB
ENCODING 9163
SWIDTH 1000 0
DWIDTH 32 0
BBX 17 32 0 -4
BITMAP
FFFF80
000080
000080
000080
000080
000080
000080
000080
000080
000080
000080
000080
000080
000080
000080
000080
000080
000080
000080
000080
000080
000080
000080
000080
000080
000080
000080
000080
000080
000080
000080
000080
ENDCHAR
STARTCHAR 23CC
ENCODING 9164
SWIDTH 1000 0
DWIDTH 32 0
BBX 17 32 0 -4
BITMAP
000080
000080
000080
000080
000080
000080
000080
000080
000080
000080
000080
000080
000080
000080
000080
000080
000080
000080
000080
000080
000080
000080
000080
000080
000080
000080
000080
000080
000080
000080
000080
FFFF80
ENDCHAR
STARTCHAR 23CE
ENCODING 9166
SWIDTH 1000 0
DWIDTH 32 0
BBX 28 27 1 -3
BITMAP
00003FF0
00002010
00002010
00002010
00002010
00002010
00002010
00002010
00202010
00602010
00E02010
01A02010
03202010
063FC010
0C000010
30000010
60000010
C0000030
30000020
18000060
0C0001C0
063FFF00
03200000
01A00000
00E00000
00600000
00200000
ENDCHAR
STARTCHAR 2423
ENCODING 9251
SWIDTH 1000 0
DWIDTH 32 0
BBX 24 7 4 -1
BITMAP
800001
800001
800001
800001
800001
800001
FFFFFF
ENDCHAR
STARTCHAR 2460
ENCODING 9312
SWIDTH 1000 0
DWIDTH 32 0
BBX 29 29 1 -2
BITMAP
001FC000
00E03800
01800600
06000300
0C010180
18070040
301F0060
20030020
40030010
40030010
40030010
80030008
80030008
80030008
80030008
80030008
80030008
80030008
40030010
40030010
60030010
20030020
30030040
181FE040
0C000080
06000300
01800600
00E03800
001FC000
ENDCHAR
STARTCHAR 2461
ENCODING 9313
SWIDTH 1000 0
DWIDTH 32 0
BBX 29 28 2 -2
BITMAP
001FC000
00E03800
03000600
04000300
080F8080
10306040
20603060
60E01820
40E01810
40E01810
C0E01808
80003008
80003008
80006008
8000C008
80018008
80030008
80060018
40080810
40100810
20200820
20401860
10FFF8C0
08000180
04000300
03000E00
00E03800
001FC000
ENDCHAR
STARTCHAR 2462
ENCODING 9314
SWIDTH 1000 0
DWIDTH 32 0
BBX 29 28 2 -2
BITMAP
003FE000
00C03800
03000600
04000300
080FC180
10306040
20603060
60601820
40701810
40701810
80001818
80003008
8000E008
800F0008
8000E008
80003008
80001808
80001810
40E01810
40E01810
20E01820
20603020
10706040
081F8080
06000100
03000600
00E03800
001FC000
ENDCHAR
STARTCHAR 2463
ENCODING 9315
SWIDTH 1000 0
DWIDTH 32 0
BBX 28 29 2 -2
BITMAP
001F8000
00E07000
01800800
02000600
0C000100
18018080
10038080
20078040
60058020
40098020
40198020
80318010
80218010
80418010
80818010
81818010
81018010
83FFF810
40018020
40018020
40018020
20018040
300180C0
180FF080
08000100
06000200
03000C00
00E03000
003FC000
ENDCHAR
STARTCHAR 2464
ENCODING 9316
SWIDTH 1000 0
DWIDTH 32 0
BBX 28 28 2 -1
BITMAP
003F8000
00C07000
03000C00
04000600
08000100
107FE080
204000C0
20400040
40400020
40400020
C0400020
804F8010
80706010
80E03010
80403010
80001810
80001810
80001810
40E01820
40E01820
40C03040
20407040
1030E080
081F8100
04000200
03000400
00C03800
003FC000
ENDCHAR
STARTCHAR 2465
ENCODING 9317
SWIDTH 1000 0
DWIDTH 32 0
BBX 28 29 2 -2
BITMAP
003F8000
00E07000
03000800
06000600
0C000300
180FC180
30186080
20307040
60607020
40E07020
40C00020
80C00010
81CF8010
81D0C010
81E06010
81807010
81803010
81803010
81803020
41803020
40C03020
40C06040
20606040
1030C080
081F0100
04000200
03000400
00C03800
003FC000
ENDCHAR
STARTCHAR 2466
ENCODING 9318
SWIDTH 1000 0
DWIDTH 32 0
BBX 30 28 1 -2
BITMAP
001FE000
00E01C00
03000700
06000180
080000C0
107FFC60
30600830
20601810
40401008
40403008
80402008
80006004
80006004
8000C004
8000C004
8000C004
80018004
C001800C
40018008
40038008
20038010
30030030
18030020
0C0300C0
06000180
01800600
00E01C00
001FE000
ENDCHAR
STARTCHAR 2467
ENCODING 9319
SWIDTH 1000 0
DWIDTH 32 0
BBX 28 29 2 -2
BITMAP
003F8000
00E07000
03000800
06000600
0C000300
181F8180
3070E080
20606040
60C03020
40C03020
40C03020
80602010
80704010
801D8010
800F0010
8031C010
80606010
80C03010
81801820
41801820
41801820
41803840
20C03040
1070E080
081F8100
04000200
03000400
00C03800
003FC000
ENDCHAR
STARTCHAR 2468
ENCODING 9320
SWIDTH 1000 0
DWIDTH 32 0
BBX 28 29 2 -2
BITMAP
003F8000
00E07000
03000800
06000600
0C000300
181F8180
3030C080
20606040
60E03020
40C03020
40C01820
80C01810
80C01810
80C01810
80603810
8030F810
801F3810
80003810
80003820
40E03020
40E07020
40E06040
20E0E040
1061C080
081F0100
04000200
03000400
00C03800
003FC000
ENDCHAR
STARTCHAR 2469
ENCODING 9321
SWIDTH 1000 0
DWIDTH 32 0
BBX 29 29 2 -2
BITMAP
001FC000
00E03000
01800C00
06000300
0C000180
184078C0
13C0CC40
20C18620
60C18610
40C10210
40C30310
80C30308
80C30308
80C30308
80C30308
80C30308
80C30308
80C30308
40C30310
40C10210
40C18610
20C18620
20C0CC60
13F07840
08000080
06000100
03000600
00E03800
001FC000
ENDCHAR
STARTCHAR 246A
ENCODING 9322
SWIDTH 1000 0
DWIDTH 32 0
BBX 28 29 2 -2
BITMAP
001F8000
00E07000
01800800
06000600
0C000100
18401080
33C0F080
20C03040
60C03020
40C03020
40C03020
80C03010
80C03010
80C03010
80C03010
80C03010
80C03010
80C03010
40C03020
40C03020
40C03020
20C03040
20C030C0
13F0FC80
08000100
04000600
03000C00
00C07000
003FC000
ENDCHAR
STARTCHAR 246B
ENCODING 9323
SWIDTH 1000 0
DWIDTH 32 0
BBX 29 28 2 -2
BITMAP
001FC000
00E03800
03000400
06000300
08000180
10C0F040
33C30C60
20C60620
40C70610
40C70610
C0C70610
80C00E08
80C00C08
80C01C08
80C01808
80C03008
80C06008
80C0C018
40C08210
40C10210
40C30220
20C20660
13F7FE40
08000080
04000300
03000600
00E03800
001FC000
ENDCHAR
STARTCHAR 246C
ENCODING 9324
SWIDTH 1000 0
DWIDTH 32 0
BBX 29 29 2 -2
BITMAP
001FC000
00603000
01800800
02000600
04000100
0840F880
13C10C40
21C30E20
60C30620
40C30610
40C30610
80C00608
80C00C08
80C01808
80C0E008
80C01808
80C00C08
80C00608
40C00610
40C70610
40C70610
20C60C20
20C31C60
13F1F0C0
08000180
06000300
03000600
00E03800
001FC000
ENDCHAR
STARTCHAR 246D
ENCODING 9325
SWIDTH 1000 0
DWIDTH 32 0
BBX 29 29 2 -2
BITMAP
001FC000
00E03000
03000C00
06000200
08000180
10C030C0
33C03040
20C07020
40C07010
40C0B010
C0C0B010
80C13008
80C13008
80C23008
80C23008
80C43008
80C43008
80C83008
40CFFF10
40C03010
40C03030
20C03020
20C03040
13F0FEC0
08000180
04000300
03000C00
00E03800
001FC000
ENDCHAR
STARTCHAR 246E
ENCODING 9326
SWIDTH 1000 0
DWIDTH 32 0
BBX 29 28 1 -2
BITMAP
001FE000
00E03800
03000600
04000300
08000080
13C1FE40
30C10060
20C30020
40C30010
40C30010
80C30018
80C37808
80C38E08
80C30608
80C00308
80C00308
80C00308
C0C00308
40C30310
40C30610
20C30620
30C10C20
13F0F840
0C000080
06000100
03000600
00E01800
001FE000
ENDCHAR
STARTCHAR 246F
ENCODING 9327
SWIDTH 1000 0
DWIDTH 32 0
BBX 29 29 1 -2
BITMAP
001FC000
00603800
01800400
02000300
0C000180
184038C0
13C0C440
20C08620
60C18610
40C10610
40C10010
80C30008
80C30008
80C37C08
80C3C608
80C30608
80C30308
80C30308
40C30310
40C30310
40C10310
20C18620
30C0C640
13F07840
08000080
06000100
03000600
00E01800
001FE000
ENDCHAR
STARTCHAR 2470
ENCODING 9328
SWIDTH 1000 0
DWIDTH 32 0
BBX 29 28 2 -2
BITMAP
001FC000
00E03800
03000400
04000300
08000180
13C7FE40
20C60660
20C40420
40C40C10
40C40810
80C01810
80C01008
80C03008
80C03008
80C02008
80C06008
80C06008
80C06018
40C0E010
40C0E010
20C0E020
20C0E060
13F0C0C0
08000180
04000300
03000E00
00E03800
001FC000
ENDCHAR
STARTCHAR 2471
ENCODING 9329
SWIDTH 1000 0
DWIDTH 32 0
BBX 29 29 2 -2
BITMAP
001FC000
00E03000
01800C00
06000300
0C000180
1840F8C0
13C18C40
20C30620
60C30610
40C30610
40C30610
80C18C08
80C1D808
80C0F008
80C07008
80C19C08
80C30E08
80C60708
40C60310
40C60310
40C60310
20C70220
20C38660
13F0F840
08000080
06000100
03000600
00E03800
001FC000
ENDCHAR
STARTCHAR 2472
ENCODING 9330
SWIDTH 1000 0
DWIDTH 32 0
BBX 29 29 2 -2
BITMAP
001FC000
00E03000
01800C00
06000300
0C000180
184078C0
13C0CC40
20C18620
60C30610
40C30310
40C30310
80C30308
80C30308
80C30308
80C18308
80C18F08
80C0F708
80C00708
40C00710
40C38610
40C38610
20C38C20
20C11C60
13F0F040
08000080
06000100
03000600
00E03800
001FC000
ENDCHAR
STARTCHAR 2473
ENCODING 9331
SWIDTH 1000 0
DWIDTH 32 0
BBX 28 28 2 -2
BITMAP
003FC000
00C07000
03000C00
04000600
08000100
11E03880
32304440
2618C640
47188620
47198320
C0198310
80198310
80318310
80318310
80618310
80418310
80C18310
80818310
41098320
43088220
4208C640
26184440
17F83880
08000100
04000200
03000C00
00C03000
003FC000
ENDCHAR
STARTCHAR 24D0
ENCODING 9424
SWIDTH 1000 0
DWIDTH 32 0
BBX 29 29 1 -2
BITMAP
001FC000
00603800
01800C00
02000300
0C000180
180000C0
10000040
20000020
600F8010
4010C010
40306010
80306008
80306008
8000E008
800F6008
80386008
80606008
80606008
80606010
4070E410
401F7810
20000020
20000020
10000040
08000080
06000100
03000600
00E01800
001FE000
ENDCHAR
STARTCHAR 24D1
ENCODING 9425
SWIDTH 1000 0
DWIDTH 32 0
BBX 29 29 2 -2
BITMAP
001FC000
00603000
01800C00
02000200
0C000180
187000C0
10B00040
20300020
60300010
40300010
4033C010
80343008
80381808
80301808
80300C08
80300C08
80300C08
80300C08
80300C10
40300C10
40301810
20381820
203C3020
1023C040
08000080
06000100
03000600
00E01800
001FE000
ENDCHAR
STARTCHAR 24D2
ENCODING 9426
SWIDTH 1000 0
DWIDTH 32 0
BBX 28 29 2 -2
BITMAP
003F8000
00E07000
03000800
06000600
0C000300
18000180
30000080
20000040
600F8020
4030C020
4060E020
8060E010
80C0E010
80C00010
80C00010
80C00010
80C00010
80E02010
80602020
40304020
401F8020
40000040
20000040
10000080
08000100
04000200
03000400
00C03800
003FC000
ENDCHAR
STARTCHAR 24D3
ENCODING 9427
SWIDTH 1000 0
DWIDTH 32 0
BBX 29 29 1 -2
BITMAP
001FC000
00603800
01800400
02000300
04000180
1800E0C0
1001E040
20006020
60006010
40006010
401E6010
8031E008
80606008
80606008
80C06008
80C06008
80C06008
80C06008
40C06010
40C06010
40606010
2060E020
3031B820
101F2040
08000080
06000100
03000600
00E01800
001FE000
ENDCHAR
STARTCHAR 24D4
ENCODING 9428
SWIDTH 1000 0
DWIDTH 32 0
BBX 28 28 2 -2
BITMAP
003FC000
01C07800
02000C00
0C000600
18000100
10000080
20000040
60000040
401F8020
40204020
80606010
80C03010
80C03010
80FFC010
80C00010
80C00010
80E01010
80602030
40384020
400F8020
20000040
20000040
10000080
08000100
04000200
03000C00
00C07000
003FC000
ENDCHAR
STARTCHAR 24D5
ENCODING 9429
SWIDTH 1000 0
DWIDTH 32 0
BBX 29 29 1 -3
BITMAP
001FE000
00E03800
01000600
06000300
0C000080
1001E040
30033060
20063020
40060010
40060010
C0060010
803FC008
80060008
80060008
80060008
80060008
80060008
C0060008
40060010
40060010
60060030
30060020
101F8040
180000C0
0C000180
06000300
01800C00
00E03800
001FC000
ENDCHAR
STARTCHAR 24D6
ENCODING 9430
SWIDTH 1000 0
DWIDTH 32 0
BBX 28 29 2 -2
BITMAP
003F8000
00E07000
03000800
06000600
0C000300
18000180
30000080
201F7840
60319820
4060C020
4060C020
8060C010
8060C010
80318010
803F0010
80600010
807F8010
803FE010
80C07020
40C03020
40C03020
40706040
203F8040
10000080
08000100
04000200
03000400
00C03800
003FC000
ENDCHAR
STARTCHAR 24D7
ENCODING 9431
SWIDTH 1000 0
DWIDTH 32 0
BBX 30 29 1 -3
BITMAP
001FE000
00E01C00
03000700
04000180
081000C0
10F00060
20300030
20300010
40300008
40300008
C033E008
80343004
80383804
80301804
80301804
80301804
80301804
80301804
40301808
40301808
60301818
20301810
10FC7E20
18000060
0C0000C0
06000380
01800600
00603C00
001FE000
ENDCHAR
STARTCHAR 24D8
ENCODING 9432
SWIDTH 1000 0
DWIDTH 32 0
BBX 29 29 1 -3
BITMAP
001FE000
00E03C00
03000600
04000380
08000080
10070040
30070060
20070020
40000010
40000010
C0010018
800F0008
80030008
80030008
80030008
80030008
80030008
80030008
40030010
40030010
60030030
20030020
100FC040
180000C0
0C000180
06000300
01800C00
00E03800
001FC000
ENDCHAR
STARTCHAR 24D9
ENCODING 9433
SWIDTH 1000 0
DWIDTH 32 0
BBX 29 29 1 -2
BITMAP
001FC000
00603800
01800400
03000300
04038180
080380C0
10038040
20000020
60000010
40008010
40078010
80018008
80018008
80018008
80018008
80018008
80018008
80018008
40018010
40018010
40018010
20018020
30318020
18318040
0C330080
061E0100
03800200
00E01C00
001FE000
ENDCHAR
STARTCHAR 24DA
ENCODING 9434
SWIDTH 1000 0
DWIDTH 32 0
BBX 29 29 2 -2
BITMAP
001FC000
00E03000
01800C00
06000200
0C000100
18700080
30F00040
20300020
60300020
40300010
40300010
8031F808
80306008
8030C008
80310008
80320008
80370008
80398008
8030C010
4030C010
40306010
20303020
20FCFC60
100000C0
08000180
04000300
03000600
00E03800
001FC000
ENDCHAR
STARTCHAR 24DB
ENCODING 9435
SWIDTH 1000 0
DWIDTH 32 0
BBX 29 29 1 -3
BITMAP
001FE000
00E03C00
03000600
04000380
08010080
100F0040
30030060
20030020
40030010
40030010
C0030018
80030008
80030008
80030008
80030008
80030008
80030008
80030008
40030010
40030010
60030030
20030020
100FC040
180000C0
0C000180
06000300
01800C00
00E03800
001FC000
ENDCHAR
STARTCHAR 24DC
ENCODING 9436
SWIDTH 1000 0
DWIDTH 32 0
BBX 30 29 1 -2
BITMAP
001FC000
00703800
01800600
03000100
04000080
18000040
10000020
20000010
609E3C10
47A34608
41C1C208
81818304
81818304
81818304
81818304
81818304
81818304
81818304
41818308
41818308
47E7EFC8
20000010
20000020
10000020
08000040
06000180
01800200
00E01C00
001FE000
ENDCHAR
STARTCHAR 24DD
ENCODING 9437
SWIDTH 1000 0
DWIDTH 32 0
BBX 30 29 1 -2
BITMAP
001FC000
00701800
01800600
02000100
0C000080
18000040
10000020
20000010
6013E010
40F43008
40383008
80301804
80301804
80301804
80301804
80301804
80301804
80301804
40301808
40301808
40FC7E08
20000010
20000020
10000020
08000040
06000080
01800300
00E01C00
001FE000
ENDCHAR
STARTCHAR 24DE
ENCODING 9438
SWIDTH 1000 0
DWIDTH 32 0
BBX 28 29 2 -2
BITMAP
003F8000
00E07000
03000800
06000600
0C000300
18000180
30000080
20000040
600F0020
4030C020
40606020
80606010
80C03010
80C03010
80C03010
80C03010
80C03010
80E03010
80606020
4030C020
401F8020
40000040
20000040
10000080
08000100
04000200
03000400
00C03800
003FC000
ENDCHAR
STARTCHAR 24DF
ENCODING 9439
SWIDTH 1000 0
DWIDTH 32 0
BBX 29 28 2 -2
BITMAP
003FC000
01C03800
02000E00
0C000300
18000180
100000C0
2013E060
60F43020
40381810
40301C10
80300C18
80300C08
80300C08
80300C08
80301C08
80301808
803C3008
8033E010
40300010
40300010
40300020
20300020
10FC0040
08000080
04000100
03000600
00E03800
001FC000
ENDCHAR
STARTCHAR 24E0
ENCODING 9440
SWIDTH 1000 0
DWIDTH 32 0
BBX 29 28 1 -2
BITMAP
001FE000
00E03C00
03000600
04000380
080001C0
10000040
201E2060
6061E030
40C06010
41C06010
81806018
81806008
81806008
81806008
81C06008
80C06008
8060E008
803F6010
40006010
40006010
20006020
30006020
1001F840
08000080
06000100
03000200
00E01C00
001FE000
ENDCHAR
STARTCHAR 24E1
ENCODING 9441
SWIDTH 1000 0
DWIDTH 32 0
BBX 29 29 2 -2
BITMAP
001FC000
00E03000
01800C00
06000200
0C000180
180000C0
10000040
20000020
6008F010
403B3810
400E3810
800C0008
800C0008
800C0008
800C0008
800C0008
800C0008
800C0008
800C0010
400C0010
403F0010
20000020
20000060
10000040
08000080
06000100
03000600
00E03800
001FC000
ENDCHAR
STARTCHAR 24E2
ENCODING 9442
SWIDTH 1000 0
DWIDTH 32 0
BBX 29 29 2 -2
BITMAP
001FC000
00E03000
03000C00
06000200
0C000100
18000080
30000040
20000020
600F8020
4018E010
40306010
80302008
80382008
801E0008
800F8008
8003E008
80407008
80403008
80603010
40602010
40584010
40078020
20000060
10000040
08000080
04000100
03000600
00E03800
001FC000
ENDCHAR
STARTCHAR 24E3
ENCODING 9443
SWIDTH 1000 0
DWIDTH 32 0
BBX 29 29 2 -2
BITMAP
001FC000
00E03000
01800C00
02000200
0C000100
18000080
10040040
20040020
600C0020
401C0010
407FC010
800C0008
800C0008
800C0008
800C0008
800C0008
800C0008
800C0008
800C0010
400C0010
400C2010
200E4020
20078020
10000040
08000080
04000100
03000200
00E01C00
001FE000
ENDCHAR
STARTCHAR 24E4
ENCODING 9444
SWIDTH 1000 0
DWIDTH 32 0
BBX 28 29 2 -2
BITMAP
001F8000
00E07000
01800800
06000600
0C000100
18000180
30000080
20000040
60602020
41E1E020
40606020
80606010
80606010
80606010
80606010
80606010
80606010
80606010
80606020
4031E020
401F3820
40004040
20000040
10000080
08000100
04000200
03000400
00C03800
003FC000
ENDCHAR
STARTCHAR 24E5
ENCODING 9445
SWIDTH 1000 0
DWIDTH 32 0
BBX 28 29 2 -2
BITMAP
003FC000
00C07000
03000C00
04000600
08000100
10000080
300000C0
20000040
40000020
43F0FC20
C0E03020
80602010
80706010
80304010
8030C010
80188010
80188010
800D0010
800D0020
40060020
40060020
20040040
200000C0
10000080
08000100
04000200
03000C00
00C03000
003FC000
ENDCHAR
STARTCHAR 24E6
ENCODING 9446
SWIDTH 1000 0
DWIDTH 32 0
BBX 28 29 2 -2
BITMAP
003FC000
00C07000
03000C00
04000600
08000100
10000080
200000C0
20000040
40000020
4FCF9F20
C3020420
81020410
81870810
81850810
80850810
80C99010
80C89010
8068D010
8070E020
40706020
40306020
20204040
200000C0
10000080
08000100
04000200
03000C00
00C03000
003FC000
ENDCHAR
STARTCHAR 24E7
ENCODING 9447
SWIDTH 1000 0
DWIDTH 32 0
BBX 28 28 2 -2
BITMAP
003FC000
01C07800
06000C00
0C000700
18000100
10000080
200000C0
60000060
41F9F820
40606020
8030C030
80198010
800F0010
80060010
80070010
80098010
8010C010
8020E010
40C07020
43F9FC20
40000040
20000040
10000080
08000100
04000200
03000400
00C03800
003FC000
ENDCHAR
STARTCHAR 24E8
ENCODING 9448
SWIDTH 1000 0
DWIDTH 32 0
BBX 28 29 2 -3
BITMAP
003FC000
01C07800
06000C00
0C000700
18000100
10000080
200000C0
61F8FC40
40601020
40201020
80302030
80182010
80084010
800C4010
80068010
80068010
80030010
80030010
40020020
40020020
40640060
206C0040
20380080
10000180
08000300
06000600
03001C00
00E07000
003FC000
ENDCHAR
STARTCHAR 24E9
ENCODING 9449
SWIDTH 1000 0
DWIDTH 32 0
BBX 29 28 2 -2
BITMAP
003FC000
01C03800
02000E00
0C000300
18000180
100000C0
20000060
60000020
407FF010
40606010
8040C018
80418008
80030008
80070008
800E0008
800C1008
80181008
80301008
40607010
40FFF010
40000020
20000020
10000040
08000080
04000100
03000600
00E03800
001FC000
ENDCHAR
STARTCHAR 24EB
ENCODING 9451
SWIDTH 1000 0
DWIDTH 32 0
BBX 30 29 1 -2
BITMAP
001FC000
007FF800
01FFFE00
03FFFF00
0FFFFF80
1FBFFBC0
1C3F83E0
3F3FF3F0
7F3FF3F0
7F3FF3F8
7F3FF3F8
FF3FF3FC
FF3FF3FC
FF3FF3FC
FF3FF3FC
FF3FF3FC
FF3FF3FC
FF3FF3FC
7F3FF3F8
7F3FF3F8
7F3FF3F8
3F3FF3F0
1F3FF3E0
1C0780E0
0FFFFFC0
07FFFF80
01FFFE00
00FFFC00
001FE000
ENDCHAR
STARTCHAR 24EC
ENCODING 9452
SWIDTH 1000 0
DWIDTH 32 0
BBX 29 29 1 -2
BITMAP
001FE000
00FFF800
01FFFE00
07FFFF00
0FFFFF80
1F3F87C0
3C3E79E0
3F3CFCE0
7F3C3CF0
7F3C3CF0
7F3C3CF0
FF3FFCF8
FF3FF9F8
FF3FF9F8
FF3FF3F8
FF3FE7F8
FF3FCFF8
FF3FDFF8
7F3FBEF0
7F3F7EF0
7F3E7EF0
3F3EFCE0
3F3D00C0
1C0C00C0
0FFFFF80
07FFFF00
01FFFE00
00FFF800
001FC000
ENDCHAR
STARTCHAR 24ED
ENCODING 9453
SWIDTH 1000 0
DWIDTH 32 0
BBX 29 29 1 -2
BITMAP
001FC000
007FF800
01FFFC00
03FFFE00
07FFFF80
0FFF83C0
1C3F79C0
3C3E7DE0
7F3EFCF0
7F3E7CF0
7F3E7CF0
FF3FFCF8
FF3FF9F8
FF3FF3F8
FF3F8FF8
FF3FF3F8
FF3FF9F8
FF3FFCF8
7F3FFCF0
7F3C7CF0
7F3C7CF0
3F3CF9E0
3F3E71E0
1C0F07C0
0FFFFF80
07FFFF00
03FFFE00
00FFF800
001FC000
ENDCHAR
STARTCHAR 24EE
ENCODING 9454
SWIDTH 1000 0
DWIDTH 32 0
BBX 30 29 1 -2
BITMAP
001FE000
00FFFC00
01FFFE00
07FFFF80
0FFFFFC0
1F3FF3E0
3C3FF3E0
3F3FE3F0
7F3FD3F8
7F3FD3F8
FF3F93F8
FF3FB3FC
FF3F73FC
FF3F73FC
FF3EF3FC
FF3CF3FC
FF3DF3FC
FF39F3FC
7F3A0078
7F3FF3F8
7F3FF3F8
3F3FF3F0
1F3FF3E0
1C0F80E0
0FFFFFC0
07FFFF80
01FFFE00
007FFC00
001FE000
ENDCHAR
STARTCHAR 24EF
ENCODING 9455
SWIDTH 1000 0
DWIDTH 32 0
BBX 30 28 1 -2
BITMAP
001FE000
00FFFC00
01FFFE00
07FFFF80
0FFFFFC0
1C3E01E0
3F3EFFF0
3F3EFFF0
7F3EFFF8
7F3EFFF8
FF3EFFFC
FF3E87FC
FF3F71FC
FF3EF9FC
FF3FFCFC
FF3FFCFC
FF3FFCFC
7F3FFCFC
7F3C7CF8
7F3C7DF8
3F3CF9F0
3F3E73F0
1C0F07E0
0FFFFFC0
07FFFF80
01FFFE00
00FFFC00
001FE000
ENDCHAR
STARTCHAR 24F0
ENCODING 9456
SWIDTH 1000 0
DWIDTH 32 0
BBX 30 29 1 -2
BITMAP
001FC000
007FF800
01FFFE00
03FFFF00
07FFFF80
0FBFC3C0
1C3F99E0
3F3F3CF0
7F3E78F0
7F3E78F8
7F3E7FF8
FF3C7FFC
FF3C7FFC
FF3CC3FC
FF3D39FC
FF3CF9FC
FF3CFCFC
FF3CFCFC
7F3CFCF8
7F3CFCF8
7F3E7CF8
3F3E79F0
1F3F3BE0
1C0F87E0
0FFFFFC0
07FFFF80
01FFFE00
00FFFC00
001FE000
ENDCHAR
STARTCHAR 24F1
ENCODING 9457
SWIDTH 1000 0
DWIDTH 32 0
BBX 29 28 1 -2
BITMAP
001FE000
00FFF800
03FFFE00
07FFFF00
0FFFFF80
1C3C00C0
3F3CFEE0
3F3DFDE0
7F3DF9F0
7F3DFBF0
FF3FF3F8
FF3FF7F8
FF3FE7F8
FF3FE7F8
FF3FEFF8
FF3FCFF8
FF3FCFF8
FF3FCFF8
7F3F8FF0
7F3F8FF0
3F3F8FE0
3F3F9FE0
1C0F9FC0
0FFFFF80
07FFFF00
03FFFE00
00FFF800
001FC000
ENDCHAR
STARTCHAR 24F2
ENCODING 9458
SWIDTH 1000 0
DWIDTH 32 0
BBX 29 29 1 -2
BITMAP
001FC000
007FF800
01FFFC00
03FFFF00
0FFFFF80
1FBF83C0
1C3F39C0
3F3E7CE0
7F3E7CF0
7F3E7CF0
7F3E7CF0
FF3E39F8
FF3F3BF8
FF3F87F8
FF3FCFF8
FF3F23F8
FF3E79F8
FF3CF8F8
7F3CFCF0
7F3CFCF0
7F3CFCF0
3F3C7DE0
3F3E39E0
1C0F87C0
0FFFFF80
07FFFF00
03FFFE00
00FFF800
001FC000
ENDCHAR
STARTCHAR 24F3
ENCODING 9459
SWIDTH 1000 0
DWIDTH 32 0
BBX 29 29 1 -2
BITMAP
001FC000
007FF800
01FFFC00
03FFFF00
0FFFFF80
1FBF87C0
1C3F33C0
3F3E79E0
7F3CF9F0
7F3CFCF0
7F3CFCF0
FF3CFCF8
FF3CFCF8
FF3CFCF8
FF3E7CF8
FF3E3CF8
FF3F84F8
FF3FFCF8
7F3FFDF0
7F3C7DF0
7F3C79F0
3F3C7BE0
3F3EF7E0
1C0F0FC0
0FFFFF80
07FFFF00
03FFFE00
00FFF800
001FC000
ENDCHAR
STARTCHAR 24F4
ENCODING 9460
SWIDTH 1000 0
DWIDTH 32 0
BBX 30 29 1 -2
BITMAP
001FE000
00FFF800
01FFFE00
07FFFF80
0FFFFFC0
1E0FE3E0
3CE7DDE0
39F39CF0
78F3BCF8
78F33E78
7FF33E78
FFF33E7C
FFE73E7C
FFEF3E7C
FFCF3E7C
FF9F3E7C
FFBF3E7C
FF7F3E7C
7E7B3E78
7EFB3E78
7DFB9CF8
3DF39CF0
1A03DDE0
1803E3E0
0FFFFFC0
07FFFF80
01FFFE00
007FFC00
001FE000
ENDCHAR
STARTCHAR 24F5
ENCODING 9461
SWIDTH 1000 0
DWIDTH 32 0
BBX 30 30 1 -3
BITMAP
003FE000
00C01800
031FC600
04703980
19800640
23010320
261F01A0
4C0300D0
88030050
90030028
90030028
30030024
20030014
20030014
20030014
20030014
20030014
20030014
B0030028
90030028
90030028
48030050
4C0300F0
261FE1A0
13000340
09800680
06703B00
010FC600
00E03800
001FE000
ENDCHAR
STARTCHAR 24F6
ENCODING 9462
SWIDTH 1000 0
DWIDTH 32 0
BBX 30 31 1 -3
BITMAP
001FE000
00601800
01800600
021FC100
04E03880
09000640
120FC120
24386090
28303050
48601848
50701828
D0701828
A0001824
A0003014
A0007014
A0006014
A000C014
A0018014
A0020014
B0040828
50080828
58100870
28201850
2C7FF8E0
167FF9A0
0B000340
0D800680
02703900
018FC600
00601800
001FE000
ENDCHAR
STARTCHAR 24F7
ENCODING 9463
SWIDTH 1000 0
DWIDTH 32 0
BBX 30 30 1 -3
BITMAP
001FE000
00701800
019FC600
02703980
0DC00640
1B07C120
161870A0
2C303050
68301850
50381828
50381828
B0001824
A0003014
A0006014
A0078014
A0007014
A0001814
A0000C14
B0000C24
50700C28
50700C28
28601848
2C383050
160FC090
0B000120
0DC00640
02701880
018FE300
00701C00
001FE000
ENDCHAR
STARTCHAR 24F8
ENCODING 9464
SWIDTH 1000 0
DWIDTH 32 0
BBX 30 30 1 -3
BITMAP
003FE000
00C01800
031FC600
04E03980
09000640
1200C120
2401C0A0
2803C050
4802C050
5004C028
500CC028
A018C024
A010C014
A020C014
A040C014
A0C0C014
A080C014
A1FFFC14
F000C02C
5000C028
5800C068
2800C050
2C00C0D0
1607F9A0
1B000360
0D8006C0
06703980
018FC600
00601800
001FE000
ENDCHAR
STARTCHAR 24F9
ENCODING 9465
SWIDTH 1000 0
DWIDTH 32 0
BBX 30 30 1 -3
BITMAP
001FE000
00601800
019FC600
02703900
0D8006C0
1B000340
163FF1A0
2C3FF0D0
68200050
50200028
50200028
B0200024
A027C014
A0283014
A0301814
A0201814
A0000C14
A0000C14
B0000C24
50700C28
50700C28
28601858
2C2038D0
163871A0
1B0FC360
0D8006C0
06703980
018FC600
00601C00
001FE000
ENDCHAR
STARTCHAR 24FA
ENCODING 9466
SWIDTH 1000 0
DWIDTH 32 0
BBX 30 30 1 -3
BITMAP
001FE000
00601800
019FC600
02703980
0D8006C0
1B03E360
160C31A0
2C1838D0
68103850
50303828
50300028
B0600024
A067C014
A0686014
A0703014
A0601814
A0601814
A0601814
B0601824
50301828
50303028
28103050
2C1860D0
1607C1A0
1B000340
0D8006C0
06703900
018FC600
00601800
001FE000
ENDCHAR
STARTCHAR 24FB
ENCODING 9467
SWIDTH 1000 0
DWIDTH 32 0
BBX 30 30 1 -3
BITMAP
001FE000
00701800
018FE600
02301980
0CC00640
19000140
123FFCA0
243FFC50
68300850
50201828
50201028
90203014
A0202014
A0006014
A0004014
A000C014
A000C014
A0018014
90018014
50018028
50038028
28030048
24030050
12030090
09030120
0CC00640
02301880
018FE300
00701C00
001FE000
ENDCHAR
STARTCHAR 24FC
ENCODING 9468
SWIDTH 1000 0
DWIDTH 32 0
BBX 30 30 1 -3
BITMAP
001FE000
00601800
019FC600
02703980
0D8006C0
1B0F8360
163861A0
2C3030D0
68601850
50601828
50601828
B0301024
A0382014
A01EC014
A0078014
A018E014
A0603014
A0C01814
B0C01824
50C01828
50C01828
28603050
2C3060D0
161FC1A0
1B000340
0D8006C0
06703900
018FC600
00601800
001FE000
ENDCHAR
STARTCHAR 24FD
ENCODING 9469
SWIDTH 1000 0
DWIDTH 32 0
BBX 30 30 1 -3
BITMAP
001FE000
00601800
019FC600
02703980
0D8006C0
1B0F8360
161861A0
2C3020D0
68303050
50603028
50601828
B0601824
A0601814
A0601814
A0303814
A0187814
A00F9814
A0001814
B0001024
50703028
50703028
28706050
2C30C0D0
161F81A0
1B000340
0D8006C0
06703900
018FC600
00601800
001FE000
ENDCHAR
STARTCHAR 24FE
ENCODING 9470
SWIDTH 1000 0
DWIDTH 32 0
BBX 30 30 1 -3
BITMAP
001FE000
00601800
019FC600
02703900
0D8006C0
1B000340
166079A0
2DE0CCD0
68618650
50618628
50630228
B0630324
A0630314
A0630314
A0630314
A0630314
A0630314
A0630314
B0630324
50630328
50618628
28618658
2C60CCD0
17F879A0
1B000360
0D8006C0
06703980
018FC600
00601C00
001FE000
ENDCHAR
STARTCHAR 2500
ENCODING 9472
SWIDTH 1000 0
DWIDTH 32 0
BBX 32 1 0 12
BITMAP
FFFFFFFF
ENDCHAR
STARTCHAR 2501
ENCODING 9473
SWIDTH 1000 0
DWIDTH 32 0
BBX 32 4 0 10
BITMAP
FFFFFFFF
FFFFFFFF
FFFFFFFF
FFFFFFFF
ENDCHAR
STARTCHAR 2502
ENCODING 9474
SWIDTH 1000 0
DWIDTH 32 0
BBX 1 32 15 -4
BITMAP
80
80
80
80
80
80
80
80
80
80
80
80
80
80
80
80
80
80
80
80
80
80
80
80
80
80
80
80
80
80
80
80
ENDCHAR
STARTCHAR 2503
ENCODING 9475
SWIDTH 1000 0
DWIDTH 32 0
BBX 4 32 14 -4
BITMAP
F0
F0
F0
F0
F0
F0
F0
F0
F0
F0
F0
F0
F0
F0
F0
F0
F0
F0
F0
F0
F0
F0
F0
F0
F0
F0
F0
F0
F0
F0
F0
F0
ENDCHAR
STARTCHAR 250C
ENCODING 9484
SWIDTH 1000 0
DWIDTH 32 0
BBX 17 17 15 -4
BITMAP
FFFF80
800000
800000
800000
800000
800000
800000
800000
800000
800000
800000
800000
800000
800000
800000
800000
800000
ENDCHAR
STARTCHAR 250F
ENCODING 9487
SWIDTH 1000 0
DWIDTH 32 0
BBX 18 18 14 -4
BITMAP
FFFFC0
FFFFC0
FFFFC0
FFFFC0
F00000
F00000
F00000
F00000
F00000
F00000
F00000
F00000
F00000
F00000
F00000
F00000
F00000
F00000
ENDCHAR
STARTCHAR 2510
ENCODING 9488
SWIDTH 1000 0
DWIDTH 32 0
BBX 17 17 0 -4
BITMAP
FFFF80
000080
000080
000080
000080
000080
000080
000080
000080
000080
000080
000080
000080
000080
000080
000080
000080
ENDCHAR
STARTCHAR 2513
ENCODING 9491
SWIDTH 1000 0
DWIDTH 32 0
BBX 18 18 0 -4
BITMAP
FFFFC0
FFFFC0
FFFFC0
FFFFC0
0003C0
0003C0
0003C0
0003C0
0003C0
0003C0
0003C0
0003C0
0003C0
0003C0
0003C0
0003C0
0003C0
0003C0
ENDCHAR
STARTCHAR 2514
ENCODING 9492
SWIDTH 1000 0
DWIDTH 32 0
BBX 17 16 15 12
BITMAP
800000
800000
800000
800000
800000
800000
800000
800000
800000
800000
800000
800000
800000
800000
800000
FFFF80
ENDCHAR
STARTCHAR 2517
ENCODING 9495
SWIDTH 1000 0
DWIDTH 32 0
BBX 18 18 14 10
BITMAP
F00000
F00000
F00000
F00000
F00000
F00000
F00000
F00000
F00000
F00000
F00000
F00000
F00000
F00000
FFFFC0
FFFFC0
FFFFC0
FFFFC0
ENDCHAR
STARTCHAR 2518
ENCODING 9496
SWIDTH 1000 0
DWIDTH 32 0
BBX 17 16 0 12
BITMAP
000080
000080
000080
000080
000080
000080
000080
000080
000080
000080
000080
000080
000080
000080
000080
FFFF80
ENDCHAR
STARTCHAR 251B
ENCODING 9499
SWIDTH 1000 0
DWIDTH 32 0
BBX 18 18 0 10
BITMAP
0003C0
0003C0
0003C0
0003C0
0003C0
0003C0
0003C0
0003C0
0003C0
0003C0
0003C0
0003C0
0003C0
0003C0
FFFFC0
FFFFC0
FFFFC0
FFFFC0
ENDCHAR
STARTCHAR 251C
ENCODING 9500
SWIDTH 1000 0
DWIDTH 32 0
BBX 17 32 15 -4
BITMAP
800000
800000
800000
800000
800000
800000
800000
800000
800000
800000
800000
800000
800000
800000
800000
FFFF80
800000
800000
800000
800000
800000
800000
800000
800000
800000
800000
800000
800000
800000
800000
800000
800000
ENDCHAR
STARTCHAR 251D
ENCODING 9501
SWIDTH 1000 0
DWIDTH 32 0
BBX 17 32 15 -4
BITMAP
800000
800000
800000
800000
800000
800000
800000
800000
800000
800000
800000
800000
800000
800000
FFFF80
FFFF80
FFFF80
FFFF80
800000
800000
800000
800000
800000
800000
800000
800000
800000
800000
800000
800000
800000
800000
ENDCHAR
STARTCHAR 2520
ENCODING 9504
SWIDTH 1000 0
DWIDTH 32 0
BBX 18 32 14 -4
BITMAP
F00000
F00000
F00000
F00000
F00000
F00000
F00000
F00000
F00000
F00000
F00000
F00000
F00000
F00000
F00000
FFFFC0
F00000
F00000
F00000
F00000
F00000
F00000
F00000
F00000
F00000
F00000
F00000
F00000
F00000
F00000
F00000
F00000
ENDCHAR
STARTCHAR 2523
ENCODING 9507
SWIDTH 1000 0
DWIDTH 32 0
BBX 18 32 14 -4
BITMAP
F00000
F00000
F00000
F00000
F00000
F00000
F00000
F00000
F00000
F00000
F00000
F00000
F00000
F00000
FFFFC0
FFFFC0
FFFFC0
FFFFC0
F00000
F00000
F00000
F00000
F00000
F00000
F00000
F00000
F00000
F00000
F00000
F00000
F00000
F00000
ENDCHAR
STARTCHAR 2524
ENCODING 9508
SWIDTH 1000 0
DWIDTH 32 0
BBX 17 32 0 -4
BITMAP
000080
000080
000080
000080
000080
000080
000080
000080
000080
000080
000080
000080
000080
000080
000080
FFFF80
000080
000080
000080
000080
000080
000080
000080
000080
000080
000080
000080
000080
000080
000080
000080
000080
ENDCHAR
STARTCHAR 2525
ENCODING 9509
SWIDTH 1000 0
DWIDTH 32 0
BBX 17 32 0 -4
BITMAP
000080
000080
000080
000080
000080
000080
000080
000080
000080
000080
000080
000080
000080
000080
FFFF80
FFFF80
FFFF80
FFFF80
000080
000080
000080
000080
000080
000080
000080
000080
000080
000080
000080
000080
000080
000080
ENDCHAR
STARTCHAR 2528
ENCODING 9512
SWIDTH 1000 0
DWIDTH 32 0
BBX 18 32 0 -4
BITMAP
0003C0
0003C0
0003C0
0003C0
0003C0
0003C0
0003C0
0003C0
0003C0
0003C0
0003C0
0003C0
0003C0
0003C0
0003C0
FFFFC0
0003C0
0003C0
0003C0
0003C0
0003C0
0003C0
0003C0
0003C0
0003C0
0003C0
0003C0
0003C0
0003C0
0003C0
0003C0
0003C0
ENDCHAR
STARTCHAR 252B
ENCODING 9515
SWIDTH 1000 0
DWIDTH 32 0
BBX 18 32 0 -4
BITMAP
0003C0
0003C0
0003C0
0003C0
0003C0
0003C0
0003C0
0003C0
0003C0
0003C0
0003C0
0003C0
0003C0
0003C0
FFFFC0
FFFFC0
FFFFC0
FFFFC0
0003C0
0003C0
0003C0
0003C0
0003C0
0003C0
0003C0
0003C0
0003C0
0003C0
0003C0
0003C0
0003C0
0003C0
ENDCHAR
STARTCHAR 252C
ENCODING 9516
SWIDTH 1000 0
DWIDTH 32 0
BBX 32 17 0 -4
BITMAP
FFFFFFFF
00010000
00010000
00010000
00010000
00010000
00010000
00010000
00010000
00010000
00010000
00010000
00010000
00010000
00010000
00010000
00010000
ENDCHAR
STARTCHAR 252F
ENCODING 9519
SWIDTH 1000 0
DWIDTH 32 0
BBX 32 18 0 -4
BITMAP
FFFFFFFF
FFFFFFFF
FFFFFFFF
FFFFFFFF
00010000
00010000
00010000
00010000
00010000
00010000
00010000
00010000
00010000
00010000
00010000
00010000
00010000
00010000
ENDCHAR
STARTCHAR 2530
ENCODING 9520
SWIDTH 1000 0
DWIDTH 32 0
BBX 32 17 0 -4
BITMAP
FFFFFFFF
0003C000
0003C000
0003C000
0003C000
0003C000
0003C000
0003C000
0003C000
0003C000
0003C000
0003C000
0003C000
0003C000
0003C000
0003C000
0003C000
ENDCHAR
STARTCHAR 2533
ENCODING 9523
SWIDTH 1000 0
DWIDTH 32 0
BBX 32 18 0 -4
BITMAP
FFFFFFFF
FFFFFFFF
FFFFFFFF
FFFFFFFF
0003C000
0003C000
0003C000
0003C000
0003C000
0003C000
0003C000
0003C000
0003C000
0003C000
0003C000
0003C000
0003C000
0003C000
ENDCHAR
STARTCHAR 2534
ENCODING 9524
SWIDTH 1000 0
DWIDTH 32 0
BBX 32 16 0 12
BITMAP
00010000
00010000
00010000
00010000
00010000
00010000
00010000
00010000
00010000
00010000
00010000
00010000
00010000
00010000
00010000
FFFFFFFF
ENDCHAR
STARTCHAR 2537
ENCODING 9527
SWIDTH 1000 0
DWIDTH 32 0
BBX 32 18 0 10
BITMAP
00010000
00010000
00010000
00010000
00010000
00010000
00010000
00010000
00010000
00010000
00010000
00010000
00010000
00010000
FFFFFFFF
FFFFFFFF
FFFFFFFF
FFFFFFFF
ENDCHAR
STARTCHAR 2538
ENCODING 9528
SWIDTH 1000 0
DWIDTH 32 0
BBX 32 16 0 12
BITMAP
0003C000
0003C000
0003C000
0003C000
0003C000
0003C000
0003C000
0003C000
0003C000
0003C000
0003C000
0003C000
0003C000
0003C000
0003C000
FFFFFFFF
ENDCHAR
STARTCHAR 253B
ENCODING 9531
SWIDTH 1000 0
DWIDTH 32 0
BBX 32 18 0 10
BITMAP
0003C000
0003C000
0003C000
0003C000
0003C000
0003C000
0003C000
0003C000
0003C000
0003C000
0003C000
0003C000
0003C000
0003C000
FFFFFFFF
FFFFFFFF
FFFFFFFF
FFFFFFFF
ENDCHAR
STARTCHAR 253C
ENCODING 9532
SWIDTH 1000 0
DWIDTH 32 0
BBX 32 32 0 -4
BITMAP
00010000
00010000
00010000
00010000
00010000
00010000
00010000
00010000
00010000
00010000
00010000
00010000
00010000
00010000
00010000
FFFFFFFF
00010000
00010000
00010000
00010000
00010000
00010000
00010000
00010000
00010000
00010000
00010000
00010000
00010000
00010000
00010000
00010000
ENDCHAR
STARTCHAR 253F
ENCODING 9535
SWIDTH 1000 0
DWIDTH 32 0
BBX 32 32 0 -4
BITMAP
00010000
00010000
00010000
00010000
00010000
00010000
00010000
00010000
00010000
00010000
00010000
00010000
00010000
00010000
FFFFFFFF
FFFFFFFF
FFFFFFFF
FFFFFFFF
00010000
00010000
00010000
00010000
00010000
00010000
00010000
00010000
00010000
00010000
00010000
00010000
00010000
00010000
ENDCHAR
STARTCHAR 2542
ENCODING 9538
SWIDTH 1000 0
DWIDTH 32 0
BBX 32 32 0 -4
BITMAP
0003C000
0003C000
0003C000
0003C000
0003C000
0003C000
0003C000
0003C000
0003C000
0003C000
0003C000
0003C000
0003C000
0003C000
0003C000
FFFFFFFF
0003C000
0003C000
0003C000
0003C000
0003C000
0003C000
0003C000
0003C000
0003C000
0003C000
0003C000
0003C000
0003C000
0003C000
0003C000
0003C000
ENDCHAR
STARTCHAR 254B
ENCODING 9547
SWIDTH 1000 0
DWIDTH 32 0
BBX 32 32 0 -4
BITMAP
0003C000
0003C000
0003C000
0003C000
0003C000
0003C000
0003C000
0003C000
0003C000
0003C000
0003C000
0003C000
0003C000
0003C000
FFFFFFFF
FFFFFFFF
FFFFFFFF
FFFFFFFF
0003C000
0003C000
0003C000
0003C000
0003C000
0003C000
0003C000
0003C000
0003C000
0003C000
0003C000
0003C000
0003C000
0003C000
ENDCHAR
STARTCHAR 25A0
ENCODING 9632
SWIDTH 1000 0
DWIDTH 32 0
BBX 24 24 4 0
BITMAP
FFFFFF
FFFFFF
FFFFFF
FFFFFF
FFFFFF
FFFFFF
FFFFFF
FFFFFF
FFFFFF
FFFFFF
FFFFFF
FFFFFF
FFFFFF
FFFFFF
FFFFFF
FFFFFF
FFFFFF
FFFFFF
FFFFFF
FFFFFF
FFFFFF
FFFFFF
FFFFFF
FFFFFF
ENDCHAR
STARTCHAR 25A1
ENCODING 9633
SWIDTH 1000 0
DWIDTH 32 0
BBX 24 24 4 0
BITMAP
FFFFFF
800001
800001
800001
800001
800001
800001
800001
800001
800001
800001
800001
800001
800001
800001
800001
800001
800001
800001
800001
800001
800001
800001
FFFFFF
ENDCHAR
STARTCHAR 25B1
ENCODING 9649
SWIDTH 500 0
DWIDTH 16 0
BBX 13 6 2 9
BITMAP
3FF8
2010
4020
4020
8040
FFC0
ENDCHAR
STARTCHAR 25B2
ENCODING 9650
SWIDTH 1000 0
DWIDTH 32 0
BBX 26 25 3 0
BITMAP
00080000
000C0000
000C0000
001E0000
001E0000
003F0000
003F0000
007F8000
007F8000
00FFC000
00FFC000
01FFE000
01FFE000
03FFF000
03FFF000
07FFF800
0FFFFC00
0FFFFC00
1FFFFE00
1FFFFE00
3FFFFF00
3FFFFF00
7FFFFF80
7FFFFF80
FFFFFFC0
ENDCHAR
STARTCHAR 25B3
ENCODING 9651
SWIDTH 1000 0
DWIDTH 32 0
BBX 26 25 3 0
BITMAP
00080000
000C0000
000C0000
001E0000
00120000
00330000
00210000
00618000
00408000
00C0C000
00804000
01806000
01002000
03003000
02001000
06001800
04000800
0C000C00
18000600
18000600
30000300
30000300
60000180
60000180
FFFFFFC0
ENDCHAR
STARTCHAR 25B6
ENCODING 9654
SWIDTH 500 0
DWIDTH 16 0
BBX 13 17 2 4
BITMAP
8000
C000
F000
F800
FE00
FF00
FFC0
FFE0
FFF8
FFF0
FFE0
FF80
FF00
FC00
F800
E000
C000
ENDCHAR
STARTCHAR 25B7
ENCODING 9655
SWIDTH 500 0
DWIDTH 16 0
BBX 13 17 2 4
BITMAP
8000
C000
F000
9800
8E00
8300
8180
8060
8030
8038
80C0
8180
8700
8C00
B800
E000
C000
ENDCHAR
STARTCHAR 25BC
ENCODING 9660
SWIDTH 1000 0
DWIDTH 32 0
BBX 26 25 3 -1
BITMAP
FFFFFFC0
7FFFFF80
7FFFFF80
3FFFFF00
3FFFFF00
1FFFFE00
1FFFFE00
0FFFFC00
0FFFFC00
07FFF800
03FFF800
03FFF000
01FFE000
01FFE000
00FFC000
00FFC000
007F8000
007F8000
003F0000
003F0000
001E0000
001E0000
000C0000
000C0000
00080000
ENDCHAR
STARTCHAR 25BD
ENCODING 9661
SWIDTH 1000 0
DWIDTH 32 0
BBX 26 25 3 -1
BITMAP
FFFFFFC0
60000180
60000180
30000300
30000300
18000600
18000600
0C000C00
04000C00
06001800
02001000
03003000
01002000
01806000
00804000
00C0C000
00408000
00618000
00210000
00330000
00120000
001E0000
000C0000
000C0000
00080000
ENDCHAR
STARTCHAR 25C0
ENCODING 9664
SWIDTH 500 0
DWIDTH 16 0
BBX 13 18 1 4
BITMAP
0008
0018
0078
00F8
03F8
07F8
1FF8
3FF8
FFF8
7FF8
3FF8
0FF8
07F8
01F8
00F8
0038
0018
0008
ENDCHAR
STARTCHAR 25C1
ENCODING 9665
SWIDTH 500 0
DWIDTH 16 0
BBX 13 18 1 4
BITMAP
0008
0018
0078
00C8
0388
0608
0C08
3008
6008
E008
1808
0C08
0708
0188
00E8
0038
0018
0008
ENDCHAR
STARTCHAR 25C6
ENCODING 9670
SWIDTH 1000 0
DWIDTH 32 0
BBX 28 29 2 -3
BITMAP
00040000
00060000
000F0000
001F8000
003FC000
007FE000
00FFF000
01FFF800
03FFFC00
07FFFE00
0FFFFF00
1FFFFF80
3FFFFFC0
7FFFFFE0
FFFFFFF0
FFFFFFF0
7FFFFFE0
3FFFFFC0
1FFFFF80
0FFFFF00
07FFFE00
03FFFC00
01FFF800
00FFF000
007FE000
003FC000
001F8000
000F0000
00060000
ENDCHAR
STARTCHAR 25C7
ENCODING 9671
SWIDTH 1000 0
DWIDTH 32 0
BBX 28 29 2 -3
BITMAP
00040000
00060000
000F0000
00198000
0030C000
00606000
00C03000
01801800
03000C00
06000600
0C000300
18000180
300000C0
60000060
C0000030
C0000030
60000060
300000C0
18000180
0C000300
06000600
03000C00
01801800
00C03000
00606000
0030C000
00198000
000F0000
00060000
ENDCHAR
STARTCHAR 25C9
ENCODING 9673
SWIDTH 500 0
DWIDTH 16 0
BBX 14 14 1 5
BITMAP
0F80
1060
2010
4788
8FCC
9FE4
9FE4
9FE4
9FE4
CFCC
4788
2010
1860
0FC0
ENDCHAR
STARTCHAR 25CB
ENCODING 9675
SWIDTH 1000 0
DWIDTH 32 0
BBX 26 27 3 -1
BITMAP
003F0000
01C0E000
03001000
0C000C00
18000600
30000200
20000100
60000080
40000080
40000080
80000040
80000040
80000040
80000040
80000040
80000040
80000040
40000080
40000080
40000180
20000100
30000200
18000600
0C000C00
02003800
01C0E000
003F8000
ENDCHAR
STARTCHAR 25CE
ENCODING 9678
SWIDTH 1000 0
DWIDTH 32 0
BBX 27 27 3 -1
BITMAP
003F8000
01C06000
03001800
04000400
08000200
10000100
203F0080
60C1C080
41806040
43003040
82001020
84000820
84000820
84000820
84000820
84000820
84000820
42001040
43003040
61806080
20C0C180
303F0100
18000200
0C000C00
06001800
03C0E000
007F8000
ENDCHAR
STARTCHAR 25CF
ENCODING 9679
SWIDTH 1000 0
DWIDTH 32 0
BBX 27 27 3 -1
BITMAP
003F8000
01FFF000
03FFF800
0FFFFC00
1FFFFE00
1FFFFF00
3FFFFF80
7FFFFFC0
7FFFFFC0
7FFFFFC0
FFFFFFE0
FFFFFFE0
FFFFFFE0
FFFFFFE0
FFFFFFE0
FFFFFFE0
FFFFFFE0
7FFFFFC0
7FFFFFC0
7FFFFFC0
3FFFFF80
1FFFFF00
1FFFFE00
0FFFFE00
03FFF800
01FFF000
003F8000
ENDCHAR
STARTCHAR 25D0
ENCODING 9680
SWIDTH 500 0
DWIDTH 16 0
BBX 14 14 1 5
BITMAP
0FC0
1E20
3E10
7E08
FE04
FE04
FE04
FE04
FE04
FE0C
7E08
3E10
1E60
07C0
ENDCHAR
STARTCHAR 25D1
ENCODING 9681
SWIDTH 500 0
DWIDTH 16 0
BBX 14 14 1 5
BITMAP
0F80
11E0
21F0
41F8
81FC
81FC
81FC
81FC
81FC
C1FC
41F8
21F0
19E0
0FC0
ENDCHAR
STARTCHAR 25D2
ENCODING 9682
SWIDTH 500 0
DWIDTH 16 0
BBX 14 14 1 5
BITMAP
0F80
1860
2010
4008
C00C
8004
8004
FFFC
FFFC
FFFC
7FF8
3FF0
1FE0
0FC0
ENDCHAR
STARTCHAR 25D3
ENCODING 9683
SWIDTH 500 0
DWIDTH 16 0
BBX 14 14 1 5
BITMAP
0FC0
1FE0
3FF0
7FF8
FFF8
FFFC
FFFC
8004
8004
C00C
4008
2018
1070
07C0
ENDCHAR
STARTCHAR 25E6
ENCODING 9702
SWIDTH 500 0
DWIDTH 16 0
BBX 8 8 4 8
BITMAP
3C
42
81
81
81
81
42
3C
ENDCHAR
STARTCHAR 25EF
ENCODING 9711
SWIDTH 1000 0
DWIDTH 32 0
BBX 28 29 2 -2
BITMAP
003F8000
00E07000
03000800
06000600
0C000300
18000180
30000080
20000040
60000020
40000020
40000020
80000010
80000010
80000010
80000010
80000010
80000010
80000010
80000020
40000020
40000020
40000040
20000040
10000080
08000100
04000200
03000400
00C03800
003FC000
ENDCHAR
STARTCHAR 2600
ENCODING 9728
SWIDTH 1000 0
DWIDTH 32 0
BBX 30 30 1 -3
BITMAP
00020000
00020000
00020000
00020000
08020080
040201C0
02000300
010FC600
00BFF400
007FF800
00FFFC00
00FFFC00
01FFFE00
01FFFE00
FDFFFEFC
01FFFE00
01FFFE00
01FFFE00
00FFFC00
00FFFC00
007FF800
01BFF400
030FC200
06000100
04020080
080200C0
00020000
00020000
00020000
00020000
ENDCHAR
STARTCHAR 2601
ENCODING 9729
SWIDTH 1000 0
DWIDTH 32 0
BBX 28 22 2 -1
BITMAP
003E0000
00FF0000
01FF8000
01FFC000
03FFE000
03FFE000
03FFF3C0
03FFF7E0
07FFFFF0
07FFFFF0
1FFFFFF0
7FFFFFF0
7FFFFFE0
FFFFFF80
FFFFFFE0
FFFFFFF0
FFFFFFF0
FFF3FFF0
7FF3FFF0
3FC1FFE0
1F00FFC0
00003F00
ENDCHAR
STARTCHAR 2602
ENCODING 9730
SWIDTH 1000 0
DWIDTH 32 0
BBX 29 30 1 -3
BITMAP
00020000
00020000
00020000
003FE000
01FFFC00
07FFFF00
0FFFFF80
1FFFFFC0
3FFFFFE0
7FFFFFE0
7FFFFFF0
47CF9F10
83870E18
81020408
81020408
00020000
00020000
00020000
00020000
00020000
00020000
00020000
00020000
00020000
00020000
00020000
00220000
00220000
00260000
003C0000
ENDCHAR
STARTCHAR 2603
ENCODING 9731
SWIDTH 1000 0
DWIDTH 32 0
BBX 30 29 1 -2
BITMAP
C00E1018
400A2818
81842418
02804200
01008100
000100C0
30020080
303E0100
00C10130
0100E230
03001E00
021CE100
021CE100
721CE100
52000100
21084200
0087841C
0300030C
C4000080
C8000040
08038040
10038020
10038020
10000020
10038020
18038060
08038040
06000180
01FFFE00
ENDCHAR
STARTCHAR 2605
ENCODING 9733
SWIDTH 1000 0
DWIDTH 32 0
BBX 30 30 1 -2
BITMAP
00020000
00020000
00030000
00030000
00030000
00078000
00078000
00078000
000FC000
000FC000
000FC000
FFFFFFFC
3FFFFFF0
1FFFFFE0
07FFFF80
03FFFF00
01FFFE00
007FF800
007FF800
00FFFC00
00FFFC00
00FFFC00
01FCFE00
01F87E00
01F03E00
03C00F00
03800700
03000300
04000080
08000080
ENDCHAR
STARTCHAR 2606
ENCODING 9734
SWIDTH 1000 0
DWIDTH 32 0
BBX 30 29 1 -2
BITMAP
00020000
00020000
00030000
00030000
00030000
00048000
00048000
00048000
000C4000
00084000
00084000
FFF87FFC
30000030
18000060
06000180
03000300
00C00C00
00601800
00400800
00C00C00
00820400
00830400
018CC600
01186200
01303200
03C00F00
03800700
03000300
04000080
ENDCHAR
STARTCHAR 260E
ENCODING 9742
SWIDTH 1000 0
DWIDTH 32 0
BBX 30 24 1 0
BITMAP
07FFFF80
1FFFFFE0
3FFFFFF0
7FFFFFF8
7F703BF8
FC7038FC
F870387C
F87FF87C
00FFFC00
01FFFE00
03F87F00
03E01F00
03C00F00
07800780
07800780
0F8007C0
1F8007E0
3F8007E0
3FC00FF0
3FE01FF0
7FF07FF8
7FFFFFF8
7FFFFFF8
7FFFFFF8
ENDCHAR
STARTCHAR 2616
ENCODING 9750
SWIDTH 1000 0
DWIDTH 32 0
BBX 26 26 3 0
BITMAP
00080000
001E0000
00330000
00C0C000
03807000
0E001C00
18000600
30000300
30000300
30000300
20000100
20000100
20000100
20000100
20000100
60000180
60000180
60000180
60000180
40000080
40000080
40000080
40000080
C00000C0
C00000C0
FFFFFFC0
ENDCHAR
STARTCHAR 2617
ENCODING 9751
SWIDTH 1000 0
DWIDTH 32 0
BBX 26 26 3 0
BITMAP
000C0000
001E0000
007F8000
01FFE000
03FFF000
0FFFFC00
3FFFFF00
3FFFFF00
3FFFFF00
3FFFFF00
3FFFFF00
3FFFFF00
3FFFFF00
3FFFFF00
3FFFFF00
7FFFFF80
7FFFFF80
7FFFFF80
7FFFFF80
7FFFFF80
7FFFFF80
7FFFFF80
7FFFFF80
FFFFFF80
FFFFFFC0
FFFFFFC0
ENDCHAR
STARTCHAR 261E
ENCODING 9758
SWIDTH 1000 0
DWIDTH 32 0
BBX 28 13 2 6
BITMAP
783E3FC0
44E1C030
87804010
86006030
84049FC0
841BA800
87E0C600
88036200
88029C00
84058400
8B054400
8AC23800
8439F000
ENDCHAR
STARTCHAR 2640
ENCODING 9792
SWIDTH 1000 0
DWIDTH 32 0
BBX 20 28 6 -2
BITMAP
01F000
030C00
040200
080100
100080
100080
100080
100080
100080
180180
0C0300
060E00
03FC00
00F000
006000
006000
006000
006000
FFFFF0
006000
006000
006000
006000
006000
006000
006000
006000
006000
ENDCHAR
STARTCHAR 2642
ENCODING 9794
SWIDTH 1000 0
DWIDTH 32 0
BBX 25 25 3 0
BITMAP
0003FF80
00000380
00000780
00000D80
00001980
00003180
00006180
0000C180
00018180
00030180
00060180
0F8C0000
18780000
20100000
40080000
80080000
80040000
80040000
80040000
80040000
C0040000
40080000
20100000
18600000
0FC00000
ENDCHAR
STARTCHAR 2660
ENCODING 9824
SWIDTH 500 0
DWIDTH 16 0
BBX 14 19 1 3
BITMAP
0200
0300
0780
0FC0
1FC0
1FE0
3FF0
7FF8
7FF8
FFFC
FFFC
FFFC
FFFC
FFFC
7FF8
0780
0780
0780
0FC0
ENDCHAR
STARTCHAR 2661
ENCODING 9825
SWIDTH 500 0
DWIDTH 16 0
BBX 14 18 1 3
BITMAP
3870
4488
8304
8304
8204
8004
8004
C00C
4008
4018
2010
2030
1020
1860
08C0
0480
0300
0200
ENDCHAR
STARTCHAR 2662
ENCODING 9826
SWIDTH 500 0
DWIDTH 16 0
BBX 14 21 1 1
BITMAP
0200
0300
0300
0480
0CC0
0840
1860
3020
2010
6018
4008
C00C
6018
2010
1020
1860
0840
0480
0780
0300
0200
ENDCHAR
STARTCHAR 2663
ENCODING 9827
SWIDTH 500 0
DWIDTH 16 0
BBX 14 18 1 3
BITMAP
0780
0FC0
1FE0
1FE0
1FE0
1FC0
7FF0
FFF8
FFFC
FFFC
FFFC
FFFC
FFFC
7FF8
0780
0780
0780
0FC0
ENDCHAR
STARTCHAR 2664
ENCODING 9828
SWIDTH 500 0
DWIDTH 16 0
BBX 14 19 1 3
BITMAP
0200
0300
0780
0CC0
1840
1020
2010
4008
4008
8004
8004
8004
8484
C48C
7CF8
0480
0480
0480
0FC0
ENDCHAR
STARTCHAR 2665
ENCODING 9829
SWIDTH 500 0
DWIDTH 16 0
BBX 14 18 1 3
BITMAP
3870
7CF8
FFFC
FFFC
FFFC
FFFC
FFFC
FFFC
7FF8
7FF8
3FF0
3FF0
1FE0
1FE0
0FC0
0780
0300
0200
ENDCHAR
STARTCHAR 2666
ENCODING 9830
SWIDTH 500 0
DWIDTH 16 0
BBX 14 21 1 1
BITMAP
0200
0300
0300
0780
0FC0
0FC0
1FE0
3FE0
3FF0
7FF8
7FF8
FFFC
7FF8
3FF0
1FE0
1FE0
0FC0
0780
0780
0300
0200
ENDCHAR
STARTCHAR 2667
ENCODING 9831
SWIDTH 500 0
DWIDTH 16 0
BBX 14 19 1 3
BITMAP
0780
0840
1020
1020
1020
1020
0840
7CF0
C008
8004
8004
8004
8484
CCCC
7CF8
0480
0480
0480
0FC0
ENDCHAR
STARTCHAR 2668
ENCODING 9832
SWIDTH 1000 0
DWIDTH 32 0
BBX 26 25 3 1
BITMAP
00080000
00080000
02103000
04302000
0C306000
0C306000
0C306000
0C306000
0E186000
06183000
070C3000
030C3800
03861800
01861800
21861900
41861880
C10618C0
C30410C0
C20420C0
E40840C0
60100180
78000380
3F001E00
0FFFFC00
01FFC000
ENDCHAR
STARTCHAR 2669
ENCODING 9833
SWIDTH 500 0
DWIDTH 16 0
BBX 6 18 3 3
BITMAP
04
04
04
04
04
04
04
04
04
04
04
04
04
04
7C
FC
FC
78
ENDCHAR
STARTCHAR 266A
ENCODING 9834
SWIDTH 1000 0
DWIDTH 32 0
BBX 21 27 6 -1
BITMAP
008000
008000
00C000
00E000
00F000
00BC00
009E00
008F00
0087C0
0081E0
0080F0
008070
008038
008018
008018
008010
008030
008060
008080
008100
008000
3E8000
7F8000
FF8000
FF0000
FF0000
7C0000
ENDCHAR
STARTCHAR 266B
ENCODING 9835
SWIDTH 500 0
DWIDTH 16 0
BBX 14 18 1 4
BITMAP
001C
01FC
0FFC
0F84
0804
0804
0804
0804
0804
0804
0804
0804
0804
083C
787C
F878
F800
F000
ENDCHAR
STARTCHAR 266C
ENCODING 9836
SWIDTH 500 0
DWIDTH 16 0
BBX 14 18 1 4
BITMAP
001C
01FC
0FF4
0E04
08FC
0FFC
0F84
0804
0804
0804
0804
0804
0804
083C
787C
F878
F800
F000
ENDCHAR
STARTCHAR 266D
ENCODING 9837
SWIDTH 1000 0
DWIDTH 32 0
BBX 11 27 11 -1
BITMAP
8000
8000
8000
8000
8000
8000
8000
8000
8000
8F00
B1C0
C1C0
80E0
80E0
80E0
80E0
80E0
81C0
81C0
8380
8380
8700
8E00
9C00
B000
E000
8000
ENDCHAR
STARTCHAR 266E
ENCODING 9838
SWIDTH 500 0
DWIDTH 16 0
BBX 6 18 5 3
BITMAP
80
80
80
84
BC
FC
C4
84
84
84
84
BC
FC
C4
04
04
04
04
ENDCHAR
STARTCHAR 266F
ENCODING 9839
SWIDTH 1000 0
DWIDTH 32 0
BBX 18 27 7 -1
BITMAP
000800
040800
040800
040800
040800
040800
040BC0
043FC0
07FE00
7FC800
FC0800
840800
040800
040800
040800
040840
040FC0
04FF80
1FF800
FF0800
F40800
040800
040800
040800
040800
040800
040000
ENDCHAR
STARTCHAR 2713
ENCODING 10003
SWIDTH 1000 0
DWIDTH 32 0
BBX 21 21 7 3
BITMAP
000008
000010
000030
000020
000040
000080
000180
000300
000600
000C00
000800
001800
403000
E06000
E0C000
718000
738000
3F0000
3E0000
1C0000
180000
ENDCHAR
STARTCHAR 2756
ENCODING 10070
SWIDTH 1000 0
DWIDTH 32 0
BBX 28 29 2 -3
BITMAP
00040000
00060000
000F0000
001F8000
003FC000
007FE000
00FFF000
00FFF000
047FE400
063FC600
0F1F8F00
1F8F1F80
3FC63FC0
7FE07FE0
FFF0FFF0
FFF0FFF0
7FE47FE0
3FC63FC0
1F8F1F80
0F1F8F00
063FC600
007FE000
00FFF000
00FFF000
007FE000
003FC000
001F8000
000F0000
00060000
ENDCHAR
STARTCHAR 2776
ENCODING 10102
SWIDTH 1000 0
DWIDTH 32 0
BBX 29 29 1 -2
BITMAP
001FC000
00FFF800
01FFFE00
07FFFF00
0FFFFF80
1FF8FFC0
3FE0FFE0
3FFCFFE0
7FFCFFF0
7FFCFFF0
7FFCFFF0
FFFCFFF8
FFFCFFF8
FFFCFFF8
FFFCFFF8
FFFCFFF8
FFFCFFF8
FFFCFFF8
7FFCFFF0
7FFCFFF0
7FFCFFF0
3FFCFFE0
3FFCFFC0
1FE01FC0
0FFFFF80
07FFFF00
01FFFE00
00FFF800
001FC000
ENDCHAR
STARTCHAR 2777
ENCODING 10103
SWIDTH 1000 0
DWIDTH 32 0
BBX 29 28 2 -2
BITMAP
001FC000
00FFF800
03FFFE00
07FFFF00
0FF07F80
1FCF1FC0
3F9F8FE0
7F1FC7E0
7F3FC7F0
7F1FC7F0
FF1FC7F8
FFFF8FF8
FFFF8FF8
FFFF1FF8
FFFE3FF8
FFFC7FF8
FFFCFFF8
FFF3FFF8
7FE7F7F0
7FCFF7F0
3FDFF7E0
3FBFE7E0
1F0007C0
0FFFFF80
07FFFF00
03FFFE00
00FFF800
001FC000
ENDCHAR
STARTCHAR 2778
ENCODING 10104
SWIDTH 1000 0
DWIDTH 32 0
BBX 29 28 2 -2
BITMAP
001FE000
00FFF800
03FFFE00
07FFFF00
0FF03F80
1FCF1FC0
3FDF8FE0
7F9FC7E0
7F8FC7F0
7F8FC7F0
FFFFC7F8
FFFF8FF8
FFFF1FF8
FFF0FFF8
FFFF9FF8
FFFFCFF8
FFFFE7F8
FFFFE7F8
7F1FE7F0
7F1FE7F0
3F1FE7E0
3FBFCFE0
1F8F9FC0
0FE07F80
07FFFF00
03FFFE00
00FFF800
001FC000
ENDCHAR
STARTCHAR 2779
ENCODING 10105
SWIDTH 1000 0
DWIDTH 32 0
BBX 28 29 2 -2
BITMAP
001F8000
00FFF000
01FFF800
03FFFE00
0FFFFF00
1FFE7F80
1FFC7F80
3FFE7FC0
7FFA7FE0
7FF67FE0
7FE67FE0
FFCE7FF0
FFDE7FF0
FFBE7FF0
FF7E7FF0
FE7E7FF0
FEFE7FF0
FC0007F0
7C0007E0
7FFE7FE0
7FFE7FE0
3FFE7FC0
3FFE7FC0
1FF00F80
0FFFFF00
07FFFE00
03FFFC00
00FFF000
003FC000
ENDCHAR
STARTCHAR 277A
ENCODING 10106
SWIDTH 1000 0
DWIDTH 32 0
BBX 28 29 2 -2
BITMAP
003F8000
00FFF000
03FFFC00
07FFFE00
0FFFFF00
1F801F80
3F801FC0
3FBFFFC0
7FBFFFE0
7FBFFFE0
FFBFFFE0
FFBFFFF0
FFB07FF0
FFCF1FF0
FFBF8FF0
FFBFCFF0
FFFFC7F0
FFFFC7F0
7FFFC7E0
7F1FC7E0
7F1FC7E0
3F3F8FC0
3FBF8FC0
1F9F1F80
0FE07F00
07FFFE00
03FFFC00
00FFF000
003FC000
ENDCHAR
STARTCHAR 277B
ENCODING 10107
SWIDTH 1000 0
DWIDTH 32 0
BBX 28 29 2 -2
BITMAP
003F8000
00FFF000
03FFF800
07FFFE00
0FFFFF00
1FF07F80
3FE79F80
3FCF8FC0
7F9F8FE0
7F1F8FE0
7F3FFFE0
FF3FFFF0
FE307FF0
FE2F3FF0
FE5F9FF0
FE3FCFF0
FE3FCFF0
FE3FCFF0
7E3FCFE0
7E3FCFE0
7F3FCFE0
3F1F9FC0
3F9F9FC0
1FCF3F80
0FE0FF00
07FFFE00
03FFFC00
00FFF000
003FC000
ENDCHAR
STARTCHAR 277C
ENCODING 10108
SWIDTH 1000 0
DWIDTH 32 0
BBX 30 28 1 -2
BITMAP
001FE000
00FFFC00
03FFFF00
07FFFF80
0FFFFFC0
1F8003E0
3F9FF7F0
3FBFE7F0
7FBFEFF8
7FBFCFF8
FFBFDFFC
FFFF9FFC
FFFFBFFC
FFFF3FFC
FFFF3FFC
FFFF7FFC
FFFE7FFC
FFFE7FFC
7FFE7FF8
7FFCFFF8
3FFCFFF0
3FFCFFF0
1FFCFFE0
0FFCFFC0
07FFFF80
01FFFE00
00FFFC00
001FE000
ENDCHAR
STARTCHAR 277D
ENCODING 10109
SWIDTH 1000 0
DWIDTH 32 0
BBX 28 29 2 -2
BITMAP
003F8000
00FFF000
03FFF800
07FFFE00
0FFFFF00
1FE07F80
3F8F1F80
3F9F9FC0
7F3FCFE0
7F3FCFE0
7F3FCFE0
FF9FDFF0
FF8FBFF0
FFE67FF0
FFF1FFF0
FFCE3FF0
FF9F9FF0
FF3FCFF0
7E7FE7E0
7E7FE7E0
7E7FE7E0
3E7FC7C0
3F3F8FC0
1F8F1F80
0FE07F00
07FFFE00
03FFFC00
00FFF000
003FC000
ENDCHAR
STARTCHAR 277E
ENCODING 10110
SWIDTH 1000 0
DWIDTH 32 0
BBX 28 29 2 -2
BITMAP
003F8000
00FFF000
03FFF800
07FFFE00
0FFFFF00
1FF07F80
3FCE3F80
3F9F9FC0
7F9F8FE0
7F3F8FE0
7F3FC7E0
FF3FC7F0
FF3FC7F0
FF3FC7F0
FF9F87F0
FFCF47F0
FFE0C7F0
FFFFC7F0
7FFFC7E0
7F1FCFE0
7F1F8FE0
3F1F9FC0
3FBF1FC0
1F9E3F80
0FE0FF00
07FFFE00
03FFFC00
00FFF000
003FC000
ENDCHAR
STARTCHAR 277F
ENCODING 10111
SWIDTH 1000 0
DWIDTH 32 0
BBX 29 29 2 -2
BITMAP
001FC000
00FFF000
03FFFC00
07FFFE00
0FFFFF00
1F7F0F80
387E77C0
3E7C73E0
7E7CF3E0
7E7CFBF0
7E78F9F0
FE78F9F8
FE78F9F8
FE78F9F8
FE78F9F8
FE78F9F8
FE78F9F8
FE78F9F8
7E78F9F0
7E7CF9F0
7E7C73F0
3E7C73E0
3E7E77E0
181F0FC0
0FFFFF80
07FFFF00
03FFFE00
00FFF800
001FC000
ENDCHAR
STARTCHAR 2934
ENCODING 10548
SWIDTH 500 0
DWIDTH 16 0
BBX 12 24 2 1
BITMAP
0200
0300
0780
0FC0
1B60
3330
2310
4310
0300
0300
0300
0300
0300
0300
0300
0300
0300
0300
0300
0300
0300
0600
0C00
F800
ENDCHAR
STARTCHAR 2935
ENCODING 10549
SWIDTH 500 0
DWIDTH 16 0
BBX 12 24 2 0
BITMAP
F800
0C00
0600
0300
0300
0300
0300
0300
0300
0300
0300
0300
0300
0300
0300
0300
4310
2310
3330
1B60
0FC0
0780
0300
0200
ENDCHAR
STARTCHAR 29BF
ENCODING 10687
SWIDTH 1000 0
DWIDTH 32 0
BBX 27 27 3 -1
BITMAP
003F8000
01C06000
03001800
04000400
08000200
10000100
20000080
60000080
40000040
400E0040
803F8020
807F8020
807FC020
807FC020
807FC020
807FC020
803F8020
401F0040
40000040
60000080
20000180
30000100
18000200
0C000C00
06001800
03C0E000
007F8000
ENDCHAR
STARTCHAR 29FA
ENCODING 10746
SWIDTH 500 0
DWIDTH 16 0
BBX 12 18 2 3
BITMAP
1980
1980
1980
1980
1980
1980
1980
1980
FFF0
1980
1980
1980
1980
1980
1980
1980
1980
1980
ENDCHAR
STARTCHAR 29FB
ENCODING 10747
SWIDTH 500 0
DWIDTH 16 0
BBX 12 18 2 3
BITMAP
36C0
36C0
36C0
36C0
36C0
36C0
36C0
36C0
FFF0
36C0
36C0
36C0
36C0
36C0
36C0
36C0
36C0
36C0
ENDCHAR
STARTCHAR 3000
ENCODING 12288
SWIDTH 1000 0
DWIDTH 32 0
BBX 0 0 0 0
BITMAP
ENDCHAR
STARTCHAR 3001
ENCODING 12289
SWIDTH 1000 0
DWIDTH 32 0
BBX 6 6 2 -1
BITMAP
C0
70
38
1C
1C
0C
ENDCHAR
STARTCHAR 3002
ENCODING 12290
SWIDTH 1000 0
DWIDTH 32 0
BBX 8 8 1 -3
BITMAP
3E
42
81
81
81
81
42
3C
ENDCHAR
STARTCHAR 3003
ENCODING 12291
SWIDTH 1000 0
DWIDTH 32 0
BBX 14 14 8 5
BITMAP
071C
061C
0E18
0E38
0C30
0C30
1830
1860
1060
3040
20C0
6080
4100
8100
ENDCHAR
STARTCHAR 3005
ENCODING 12293
SWIDTH 1000 0
DWIDTH 32 0
BBX 21 19 4 5
BITMAP
004000
007000
007000
006000
00E000
00C030
01C7F8
01F838
030060
0600E0
0E00C0
0C0180
180300
21C200
407400
801C00
000F00
000780
000380
ENDCHAR
STARTCHAR 3006
ENCODING 12294
SWIDTH 1000 0
DWIDTH 32 0
BBX 22 24 5 0
BITMAP
000060
000018
00001C
000038
000060
0000C0
000180
038300
046600
0C3C00
081800
183C00
106C00
10C600
308700
210300
230300
660000
6C0000
680000
580000
F00000
E00000
600000
ENDCHAR
STARTCHAR 3007
ENCODING 12295
SWIDTH 1000 0
DWIDTH 32 0
BBX 26 25 3 0
BITMAP
007F8000
01C0E000
06001800
0C000C00
18000200
30000300
20000100
40000080
40000080
80000040
80000040
80000040
80000040
80000040
80000040
80000040
40000080
40000080
20000100
30000300
10000200
0C000C00
06001800
0180E000
007F8000
ENDCHAR
STARTCHAR 3008
ENCODING 12296
SWIDTH 1000 0
DWIDTH 32 0
BBX 12 29 18 -2
BITMAP
0030
0060
0040
00C0
0180
0300
0200
0600
0C00
1800
1000
3000
6000
C000
8000
C000
6000
3000
1000
1800
0C00
0600
0200
0300
0180
00C0
0040
0060
0030
ENDCHAR
STARTCHAR 3009
ENCODING 12297
SWIDTH 1000 0
DWIDTH 32 0
BBX 12 29 2 -2
BITMAP
C000
6000
2000
3000
1800
0C00
0400
0600
0300
0180
0080
00C0
0060
0030
0010
0030
0060
00C0
0080
0180
0300
0600
0400
0C00
1800
3000
2000
6000
C000
ENDCHAR
STARTCHAR 300A
ENCODING 12298
SWIDTH 1000 0
DWIDTH 32 0
BBX 14 29 17 -2
BITMAP
00CC
0188
0110
0330
0220
0660
0440
0CC0
0880
1100
3300
2200
6600
4400
CC00
4400
6600
2200
3300
1100
0880
0CC0
0440
0660
0220
0330
0110
0088
00CC
ENDCHAR
STARTCHAR 300B
ENCODING 12299
SWIDTH 1000 0
DWIDTH 32 0
BBX 14 29 1 -2
BITMAP
CC00
4400
2200
3300
1100
1980
0880
0C40
0440
0220
0330
0110
0198
0088
00CC
0088
0198
0110
0330
0220
0440
0CC0
0880
1980
1100
3300
2200
4600
CC00
ENDCHAR
STARTCHAR 300C
ENCODING 12300
SWIDTH 1000 0
DWIDTH 32 0
BBX 8 23 21 3
BITMAP
FF
80
80
80
80
80
80
80
80
80
80
80
80
80
80
80
80
80
80
80
80
80
80
ENDCHAR
STARTCHAR 300D
ENCODING 12301
SWIDTH 1000 0
DWIDTH 32 0
BBX 8 23 3 -2
BITMAP
01
01
01
01
01
01
01
01
01
01
01
01
01
01
01
01
01
01
01
01
01
01
FF
ENDCHAR
STARTCHAR 300E
ENCODING 12302
SWIDTH 1000 0
DWIDTH 32 0
BBX 10 23 19 3
BITMAP
FFC0
8040
8040
9FC0
9000
9000
9000
9000
9000
9000
9000
9000
9000
9000
9000
9000
9000
9000
9000
9000
9000
9000
F000
ENDCHAR
STARTCHAR 300F
ENCODING 12303
SWIDTH 1000 0
DWIDTH 32 0
BBX 10 23 3 -2
BITMAP
03C0
0240
0240
0240
0240
0240
0240
0240
0240
0240
0240
0240
0240
0240
0240
0240
0240
0240
FE40
8040
8040
8040
FFC0
ENDCHAR
STARTCHAR 3010
ENCODING 12304
SWIDTH 1000 0
DWIDTH 32 0
BBX 7 29 23 -2
BITMAP
FE
F8
F0
F0
E0
E0
C0
C0
C0
80
80
80
80
80
80
80
80
80
80
80
C0
C0
C0
E0
E0
F0
F0
F8
FC
ENDCHAR
STARTCHAR 3011
ENCODING 12305
SWIDTH 1000 0
DWIDTH 32 0
BBX 7 29 2 -2
BITMAP
FE
3E
3E
1E
0E
0E
06
06
06
06
02
02
02
02
02
02
02
02
02
06
06
06
06
0E
0E
1E
1E
3E
7E
ENDCHAR
STARTCHAR 3012
ENCODING 12306
SWIDTH 1000 0
DWIDTH 32 0
BBX 22 26 5 -2
BITMAP
FFFFFC
FFFFFC
FFFFFC
000000
000000
000000
000000
000000
FFFFFC
FFFFFC
FFFFFC
007000
007000
007000
007000
007000
007000
007000
007000
007000
007000
007000
007000
007000
007000
007000
ENDCHAR
STARTCHAR 3013
ENCODING 12307
SWIDTH 1000 0
DWIDTH 32 0
BBX 22 14 5 5
BITMAP
FFFFFC
FFFFFC
FFFFFC
FFFFFC
000000
000000
000000
000000
000000
FFFFFC
FFFFFC
FFFFFC
FFFFFC
FFFFFC
ENDCHAR
STARTCHAR 3014
ENCODING 12308
SWIDTH 1000 0
DWIDTH 32 0
BBX 6 30 23 -3
BITMAP
04
0C
30
E0
80
80
80
80
80
80
80
80
80
80
80
80
80
80
80
80
80
80
80
80
80
80
60
38
0C
04
ENDCHAR
STARTCHAR 3015
ENCODING 12309
SWIDTH 1000 0
DWIDTH 32 0
BBX 6 29 3 -3
BITMAP
80
C0
30
1C
04
04
04
04
04
04
04
04
04
04
04
04
04
04
04
04
04
04
04
04
04
04
18
70
C0
ENDCHAR
STARTCHAR 3016
ENCODING 12310
SWIDTH 1000 0
DWIDTH 32 0
BBX 9 29 20 -2
BITMAP
FF80
8200
8200
8400
8800
8800
9000
9000
9000
9000
A000
A000
A000
A000
A000
A000
A000
A000
A000
A000
9000
9000
9000
8800
8800
8400
8200
8200
FF00
ENDCHAR
STARTCHAR 3017
ENCODING 12311
SWIDTH 1000 0
DWIDTH 32 0
BBX 9 29 3 -2
BITMAP
FF80
2080
2080
1080
0880
0880
0480
0480
0480
0480
0280
0280
0280
0280
0280
0280
0280
0280
0280
0480
0480
0480
0480
0880
0880
1080
2080
2080
7F80
ENDCHAR
STARTCHAR 3018
ENCODING 12312
SWIDTH 1000 0
DWIDTH 32 0
BBX 9 30 20 -3
BITMAP
0080
0380
0C80
3080
C080
8180
8600
8800
8800
8800
8800
8800
8800
8800
8800
8800
8800
8800
8800
8800
8800
8800
8800
8600
8180
6080
1880
0680
0180
0080
ENDCHAR
STARTCHAR 3019
ENCODING 12313
SWIDTH 1000 0
DWIDTH 32 0
BBX 9 29 3 -3
BITMAP
8000
E000
9800
8600
8180
C080
3080
0880
0880
0880
0880
0880
0880
0880
0880
0880
0880
0880
0880
0880
0880
0880
0880
3080
C080
8300
8C00
B000
C000
ENDCHAR
STARTCHAR 301C
ENCODING 12316
SWIDTH 1000 0
DWIDTH 32 0
BBX 26 7 3 9
BITMAP
07800000
1FE00000
38780040
601C0080
C0070300
8003FE00
0000F800
ENDCHAR
STARTCHAR 301D
ENCODING 12317
SWIDTH 1000 0
DWIDTH 32 0
BBX 9 13 21 14
BITMAP
8000
6000
F000
1800
0C00
0200
4180
E000
3000
1C00
0600
0100
0080
ENDCHAR
STARTCHAR 301F
ENCODING 12319
SWIDTH 1000 0
DWIDTH 32 0
BBX 9 12 2 -2
BITMAP
8000
6000
1800
0C00
0700
8380
4100
3000
1800
0E00
0380
0100
ENDCHAR
STARTCHAR 3020
ENCODING 12320
SWIDTH 1000 0
DWIDTH 32 0
BBX 30 21 1 1
BITMAP
1FFFFFE0
1FFFFFE0
1FFFFFE0
00000000
00000000
1FFFFFE0
1FFFFFE0
1FFFFFE0
00038000
73438D38
87E38F84
82438904
83C38604
40038008
30838430
10400820
08201040
04186080
03078300
01E01E00
003FF000
ENDCHAR
STARTCHAR 3033
ENCODING 12339
SWIDTH 1000 0
DWIDTH 32 0
BBX 10 27 9 -3
BITMAP
0100
0180
01C0
01C0
01C0
01C0
03C0
0380
0380
0700
0700
0E00
0E00
0C00
1C00
1800
1800
3000
3000
2000
6000
6000
4000
C000
C000
8000
8000
ENDCHAR
STARTCHAR 3034
ENCODING 12340
SWIDTH 1000 0
DWIDTH 32 0
BBX 17 27 9 -3
BITMAP
010000
018000
01C000
01C000
01C000
01C000
03C000
038000
038000
070000
070000
0E0000
0E0000
0C0000
1C0600
180300
183180
301980
300C00
200C00
600000
600000
400000
C00000
C00000
800000
800000
ENDCHAR
STARTCHAR 3035
ENCODING 12341
SWIDTH 1000 0
DWIDTH 32 0
BBX 13 28 9 0
BITMAP
8000
8000
8000
C000
4000
6000
2000
3000
1800
1800
0C00
0E00
0600
0700
0300
0380
01C0
01C0
00E0
00E0
0070
0070
0070
0038
0038
0038
0038
0010
ENDCHAR
STARTCHAR 303B
ENCODING 12347
SWIDTH 1000 0
DWIDTH 32 0
BBX 13 20 9 3
BITMAP
0800
0C00
0600
0300
01C0
00E0
03E0
0400
0800
0800
0C00
0600
0300
01E0
00F8
01F8
0700
1800
6000
8000
ENDCHAR
STARTCHAR 303C
ENCODING 12348
SWIDTH 1000 0
DWIDTH 32 0
BBX 28 27 2 -1
BITMAP
FFFFFFF0
FFFFFFF0
C00000F0
C00001B0
C0000330
C0000630
C0000C30
C0001830
C0003030
C0006030
C000C030
C0018030
C0030030
C0060030
C00C0030
C0180030
C0300030
C0600030
C0C00030
C1800030
C3000030
C6000030
CC000030
D8000030
F0000030
FFFFFFF0
FFFFFFF0
ENDCHAR
STARTCHAR 303D
ENCODING 12349
SWIDTH 1000 0
DWIDTH 32 0
BBX 24 28 5 -2
BITMAP
0C0000
140000
E21C00
632600
03E200
01C200
000300
000100
000100
000180
000180
000080
000080
0000C0
0000C0
000040
000060
000060
000020
000030
000030
000018
000018
00001C
00000C
00000E
000007
000004
ENDCHAR
STARTCHAR 3041
ENCODING 12353
SWIDTH 1000 0
DWIDTH 32 0
BBX 21 23 6 -1
BITMAP
018000
00C000
00C000
008700
309F00
0FF800
018000
019800
018C00
01FFC0
030C60
0D0830
191818
313018
612018
614018
C18018
C18030
C38070
CD80E0
7181C0
000F00
003000
ENDCHAR
STARTCHAR 3042
ENCODING 12354
SWIDTH 1000 0
DWIDTH 32 0
BBX 25 27 4 -2
BITMAP
00800000
00E00000
00600000
00600000
0061C000
20678000
18FE0000
07C00000
00440000
00430000
0047C000
00F9F800
01C30C00
07C30600
0CC60300
18C60180
30CC0180
60D80180
60D80180
C0F00180
C0E00300
C1C00300
C7E00600
FE600C00
78603800
0040E000
000F0000
ENDCHAR
STARTCHAR 3043
ENCODING 12355
SWIDTH 1000 0
DWIDTH 32 0
BBX 23 18 5 0
BITMAP
800000
600100
7000C0
700060
600030
600018
60001C
60000C
60800E
60800E
210006
210004
330000
360000
1E0000
1E0000
0E0000
060000
ENDCHAR
STARTCHAR 3044
ENCODING 12356
SWIDTH 1000 0
DWIDTH 32 0
BBX 26 20 3 2
BITMAP
E0004000
70002000
70001800
70000C00
70000600
60000700
60000300
60000380
60000180
604001C0
604001C0
208000C0
218000C0
31800000
33000000
1B000000
1F000000
0F000000
07000000
03000000
ENDCHAR
STARTCHAR 3045
ENCODING 12357
SWIDTH 1000 0
DWIDTH 32 0
BBX 15 23 8 -3
BITMAP
0800
0E00
03F0
03F0
0E00
0000
0000
01F0
9E18
F80C
E006
0006
0006
0006
0006
0006
000C
000C
0018
0030
00E0
0380
1C00
ENDCHAR
STARTCHAR 3046
ENCODING 12358
SWIDTH 1000 0
DWIDTH 32 0
BBX 19 27 6 -1
BITMAP
040000
020000
01F800
007E00
018600
020000
000000
000000
00FE00
8FC300
7E0080
7800C0
600060
000060
000060
000060
000060
000060
0000C0
0000C0
000180
000380
000700
000C00
003800
01C000
0E0000
ENDCHAR
STARTCHAR 3047
ENCODING 12359
SWIDTH 1000 0
DWIDTH 32 0
BBX 21 22 6 0
BITMAP
020000
038000
00FC00
00FC00
018000
000000
000600
10FF00
1F8E00
1C1C00
003800
006000
00C000
018000
037000
079800
0E0800
1C0C00
780C00
F00600
E007E0
C003F8
ENDCHAR
STARTCHAR 3048
ENCODING 12360
SWIDTH 1000 0
DWIDTH 32 0
BBX 24 26 5 0
BITMAP
020000
010000
00F000
003F00
004300
018000
000000
000180
000FC0
10F9C0
1F8300
1C0600
000C00
001800
003000
004000
008000
013C00
03C600
0F0200
1E0200
380200
700300
E00380
C001FE
C0007F
ENDCHAR
STARTCHAR 3049
ENCODING 12361
SWIDTH 1000 0
DWIDTH 32 0
BBX 22 21 6 0
BITMAP
1C0000
060100
0600E0
060070
067038
86F01C
8FC00C
7E0000
060000
060000
063F80
07C0C0
0F0060
1E0030
660030
C60030
860030
C60060
6640C0
3E3F80
1C0000
ENDCHAR
STARTCHAR 304A
ENCODING 12362
SWIDTH 1000 0
DWIDTH 32 0
BBX 25 25 4 0
BITMAP
0C000000
07800000
03806000
03801800
03000E00
03000700
031C0380
83F80180
C7C00180
3F000000
03000000
03000000
0307F000
03381C00
03C00E00
07000600
1F000300
33000300
43000300
83000300
83000200
C3000600
67100C00
3F081800
0E07E000
ENDCHAR
STARTCHAR 304B
ENCODING 12363
SWIDTH 1000 0
DWIDTH 32 0
BBX 27 25 3 0
BITMAP
01800000
00E00000
00600000
00600000
00406000
00401000
00C00C00
81FC0600
8F860300
FD820180
618301C0
010300C0
030300E0
020300E0
06030FE0
060300E0
0C030060
0C060000
18060000
190E0000
30CC0000
707C0000
E0780000
C0300000
C0200000
ENDCHAR
STARTCHAR 304C
ENCODING 12364
SWIDTH 1000 0
DWIDTH 32 0
BBX 28 27 3 1
BITMAP
000000C0
00000060
01800630
00E00330
00600180
00600180
00406000
00401000
00C00C00
81FC0600
8F860300
FD820180
618301C0
010300C0
030300E0
020300E0
06030FE0
060300E0
0C030060
0C060000
18060000
190E0000
30CC0000
707C0000
E0780000
C0300000
C0200000
ENDCHAR
STARTCHAR 304D
ENCODING 12365
SWIDTH 1000 0
DWIDTH 32 0
BBX 21 27 6 -1
BITMAP
078000
00C000
00C000
006380
006F00
003C00
61F000
1F1000
001838
000870
800FE0
C00F00
607E00
1FC300
000300
000180
001180
000FC0
0001C0
2000C0
200000
300000
100000
180000
0E0300
07FF80
01FF00
ENDCHAR
STARTCHAR 304E
ENCODING 12366
SWIDTH 1000 0
DWIDTH 32 0
BBX 25 29 6 -1
BITMAP
00000800
00000600
07804380
00C03180
00C01980
00638C00
006F0C00
003C0000
61F00000
1F100000
00183800
00087000
800FE000
C00F0000
607E0000
1FC30000
00030000
00018000
00118000
000FC000
0001C000
2000C000
20000000
30000000
10000000
18000000
0E030000
07FF8000
01FF0000
ENDCHAR
STARTCHAR 304F
ENCODING 12367
SWIDTH 1000 0
DWIDTH 32 0
BBX 16 27 7 -1
BITMAP
0018
000E
000E
001C
0078
00E0
0380
0700
0C00
3800
6000
C000
8000
C000
6000
3800
0E00
0700
01C0
00E0
0070
0038
001C
000E
0007
0007
0003
ENDCHAR
STARTCHAR 3050
ENCODING 12368
SWIDTH 1000 0
DWIDTH 32 0
BBX 21 27 7 -1
BITMAP
001800
000E00
000E00
001C00
007800
00E000
038040
070030
0C0218
380398
6001C0
C000C0
8000C0
C00000
600000
380000
0E0000
070000
01C000
00E000
007000
003800
001C00
000E00
000700
000700
000300
ENDCHAR
STARTCHAR 3051
ENCODING 12369
SWIDTH 1000 0
DWIDTH 32 0
BBX 24 28 5 -3
BITMAP
000180
4002C0
2000C0
300060
300060
300060
200060
600066
63007F
40C1FC
407F60
400060
C00060
800060
800060
800060
880060
880060
900060
9000C0
F000C0
F000C0
600180
600380
200300
200600
001800
003000
ENDCHAR
STARTCHAR 3052
ENCODING 12370
SWIDTH 1000 0
DWIDTH 32 0
BBX 27 29 5 -2
BITMAP
00000300
000180C0
4002D8E0
2000CE60
30006700
30006300
30006000
20006000
60006600
63007F00
40C1FC00
407F6000
40006000
C0006000
80006000
80006000
80006000
88006000
88006000
90006000
9000C000
F000C000
F000C000
60018000
60038000
20030000
20060000
00180000
00300000
ENDCHAR
STARTCHAR 3053
ENCODING 12371
SWIDTH 1000 0
DWIDTH 32 0
BBX 21 22 5 1
BITMAP
080380
0C1FC0
03FFC0
001C00
003000
004000
000000
000000
000000
000000
000000
000000
000000
000000
800000
800000
400000
600000
300000
3C0078
0FFFF8
01FFC0
ENDCHAR
STARTCHAR 3054
ENCODING 12372
SWIDTH 1000 0
DWIDTH 32 0
BBX 26 26 5 2
BITMAP
00000300
00000180
000038C0
00000CC0
08038E00
0C1FC600
03FFC000
001C0000
00300000
00400000
00000000
00000000
00000000
00000000
00000000
00000000
00000000
00000000
80000000
80000000
40000000
60000000
30000000
3C007800
0FFFF800
01FFC000
ENDCHAR
STARTCHAR 3055
ENCODING 12373
SWIDTH 1000 0
DWIDTH 32 0
BBX 22 25 4 0
BITMAP
00E000
013000
003000
00181C
00187C
0009F0
800FC0
401E00
307600
0FC300
000300
000180
0001C0
0000C0
0000E0
000770
0000F0
080030
080000
080000
0C0000
060000
038000
01FFE0
003FE0
ENDCHAR
STARTCHAR 3056
ENCODING 12374
SWIDTH 1000 0
DWIDTH 32 0
BBX 28 27 4 1
BITMAP
000001C0
00000060
00E00E70
01300330
00300380
00181D80
00187C00
0009F000
800FC000
401E0000
30760000
0FC30000
00030000
00018000
0001C000
0000C000
0000E000
00077000
0000F000
08003000
08000000
08000000
0C000000
06000000
03800000
01FFE000
003FE000
ENDCHAR
STARTCHAR 3057
ENCODING 12375
SWIDTH 1000 0
DWIDTH 32 0
BBX 20 25 7 1
BITMAP
E00000
700000
700000
700000
700000
700000
700000
600000
600000
600000
600000
600000
600000
600000
600010
600010
600030
600020
600040
6000C0
300180
380300
1C0E00
0FFC00
07E000
ENDCHAR
STARTCHAR 3058
ENCODING 12376
SWIDTH 1000 0
DWIDTH 32 0
BBX 20 25 7 1
BITMAP
E00000
700000
700000
700300
700180
7010C0
700CC0
600600
600600
600000
600000
600000
600000
600000
600010
600010
600030
600020
600040
6000C0
300180
380300
1C0E00
0FFC00
07E000
ENDCHAR
STARTCHAR 3059
ENCODING 12377
SWIDTH 1000 0
DWIDTH 32 0
BBX 27 29 3 -2
BITMAP
000F0000
00030000
00030000
00030000
00030000
00033FC0
80FFFFE0
FFE30000
78030000
00030000
00030000
003F0000
00630000
00E10000
00C18000
00C18000
00C18000
00C38000
00638000
003D8000
00018000
00010000
00030000
00030000
00060000
00040000
00080000
00100000
00200000
ENDCHAR
STARTCHAR 305A
ENCODING 12378
SWIDTH 1000 0
DWIDTH 32 0
BBX 28 31 3 -3
BITMAP
00000080
00000060
000F0630
00030330
00030180
00030180
00030000
00033FC0
80FFFFE0
FFE30000
78030000
00030000
00030000
003F0000
00630000
00E10000
00C18000
00C18000
00C18000
00C38000
00638000
003D8000
00018000
00010000
00030000
00030000
00060000
00040000
00080000
00100000
00200000
ENDCHAR
STARTCHAR 305B
ENCODING 12379
SWIDTH 1000 0
DWIDTH 32 0
BBX 30 25 1 1
BITMAP
00001C00
00000E00
03C00E00
00C00E00
00C00C00
00C00C00
00C00C00
00C00FF8
80CFFFFC
83FC0C00
FFC00C00
70C00800
00C00800
00C19800
00C0F800
00C07800
00C03000
00C03000
00C00000
00C00000
00400000
00600000
00380380
001FFFC0
0007FF00
ENDCHAR
STARTCHAR 305C
ENCODING 12380
SWIDTH 1000 0
DWIDTH 32 0
BBX 31 27 1 1
BITMAP
00000038
0000000C
00001DCE
00000E66
03C00E70
00C00E30
00C00C00
00C00C00
00C00C00
00C00FF8
80CFFFFC
83FC0C00
FFC00C00
70C00800
00C00800
00C19800
00C0F800
00C07800
00C03000
00C03000
00C00000
00C00000
00400000
00600000
00380380
001FFFC0
0007FF00
ENDCHAR
STARTCHAR 305D
ENCODING 12381
SWIDTH 1000 0
DWIDTH 32 0
BBX 25 25 3 0
BITMAP
00006000
020FF000
03FC7000
01C1C000
00038000
00060000
001C0000
00300000
00600000
00803F00
833FC380
87F20000
7F0C0000
70180000
00300000
00200000
00600000
00600000
00600000
00600000
00700000
00300000
001C0000
000FF000
0003F800
ENDCHAR
STARTCHAR 305E
ENCODING 12382
SWIDTH 1000 0
DWIDTH 32 0
BBX 28 28 3 0
BITMAP
00000080
000000E0
00000870
00006630
020FF3B0
03FC7180
01C1C180
00038000
00060000
001C0000
00300000
00600000
00803F00
833FC380
87F20000
7F0C0000
70180000
00300000
00200000
00600000
00600000
00600000
00600000
00700000
00300000
001C0000
000FF000
0003F800
ENDCHAR
STARTCHAR 305F
ENCODING 12383
SWIDTH 1000 0
DWIDTH 32 0
BBX 26 26 3 0
BITMAP
00400000
00F00000
00300000
00300000
00200000
00600000
40670000
20FF0000
1FF80000
00800000
01807F00
0181FF00
03063800
03006000
06004000
06000000
0C000000
0C000000
1C000000
18000000
38100000
30080000
700C0000
E0060380
E003FFC0
C0007F80
ENDCHAR
STARTCHAR 3060
ENCODING 12384
SWIDTH 1000 0
DWIDTH 32 0
BBX 26 26 3 1
BITMAP
00400700
00F00180
003031C0
00300CC0
00200E00
00600600
40670000
20FF0000
1FF80000
00800000
01807F00
0181FF00
03063800
03006000
06004000
06000000
0C000000
0C000000
1C000000
18000000
38100000
30080000
700C0000
E0060380
E003FFC0
C0007F80
ENDCHAR
STARTCHAR 3061
ENCODING 12385
SWIDTH 1000 0
DWIDTH 32 0
BBX 23 27 4 -1
BITMAP
020000
078000
018000
018000
018000
030700
833F00
C3F800
3F0000
020000
060000
060000
060000
0607F0
063C1C
06E00C
07C006
078006
070006
060006
00000C
00001C
000038
000070
0003C0
003E00
004000
ENDCHAR
STARTCHAR 3062
ENCODING 12386
SWIDTH 1000 0
DWIDTH 32 0
BBX 23 28 4 -1
BITMAP
000018
02000C
078086
018066
018030
018030
030730
833F00
C3F800
3F0000
020000
060000
060000
060000
0607F0
063C1C
06E00C
07C006
078006
070006
060006
00000C
00001C
000038
000070
0003C0
003E00
004000
ENDCHAR
STARTCHAR 3063
ENCODING 12387
SWIDTH 1000 0
DWIDTH 32 0
BBX 22 15 5 1
BITMAP
001FC0
01F070
8F8018
FC0018
70000C
00000C
00000C
00000C
00001C
000018
000030
0000E0
000380
001E00
01E000
ENDCHAR
STARTCHAR 3064
ENCODING 12388
SWIDTH 1000 0
DWIDTH 32 0
BBX 25 18 3 2
BITMAP
0007F000
007C0C00
01C00600
8F000300
FC000180
70000180
00000180
00000180
00000180
00000180
00000300
00000700
00000E00
00001C00
00007000
0001E000
001F0000
00E00000
ENDCHAR
STARTCHAR 3065
ENCODING 12389
SWIDTH 1000 0
DWIDTH 32 0
BBX 28 26 3 2
BITMAP
00000080
000000E0
00000870
00000630
000003B0
00000180
00000180
00000000
0007F000
007C0C00
01C00600
8F000300
FC000180
70000180
00000180
00000180
00000180
00000180
00000300
00000700
00000E00
00001C00
00007000
0001E000
001F0000
00E00000
ENDCHAR
STARTCHAR 3066
ENCODING 12390
SWIDTH 1000 0
DWIDTH 32 0
BBX 25 23 3 0
BITMAP
00001F00
000FFF80
83F1C000
FF030000
70060000
000C0000
00180000
00300000
00300000
00300000
00600000
00600000
00600000
00600000
00600000
00600000
00600000
00700000
00300000
00380000
001C1800
000FFC00
0001F800
ENDCHAR
STARTCHAR 3067
ENCODING 12391
SWIDTH 1000 0
DWIDTH 32 0
BBX 27 23 3 0
BITMAP
00001F00
000FFF80
83F1C000
FF030000
70060000
000C0380
001800C0
00301C60
00300660
00300700
00600300
00600000
00600000
00600000
00600000
00600000
00600000
00700000
00300000
00380000
001C1800
000FFC00
0001F800
ENDCHAR
STARTCHAR 3068
ENCODING 12392
SWIDTH 1000 0
DWIDTH 32 0
BBX 19 25 7 0
BITMAP
380000
1C0000
0C0000
0C0000
0C0000
0C0300
0C0380
040780
041F00
063C00
06F000
03C000
070000
0C0000
180000
200000
400000
C00000
800000
800000
800000
C00000
7003E0
3FFFE0
07FF00
ENDCHAR
STARTCHAR 3069
ENCODING 12393
SWIDTH 1000 0
DWIDTH 32 0
BBX 23 27 7 0
BITMAP
000020
000018
38010E
1C00C6
0C0066
0C0030
0C0030
0C0300
0C0380
040780
041F00
063C00
06F000
03C000
070000
0C0000
180000
200000
400000
C00000
800000
800000
800000
C00000
7003E0
3FFFE0
07FF00
ENDCHAR
STARTCHAR 306A
ENCODING 12394
SWIDTH 1000 0
DWIDTH 32 0
BBX 24 26 4 0
BITMAP
018000
00C000
00C000
008000
019C80
41FC70
3FE01C
03000E
03007F
060007
060003
0C0100
0C0100
180100
180100
300180
700180
E00180
C07F80
C183C0
0301F0
0201BC
02018E
030387
01FF03
007E00
ENDCHAR
STARTCHAR 306B
ENCODING 12395
SWIDTH 1000 0
DWIDTH 32 0
BBX 23 24 5 1
BITMAP
600000
200000
304038
3021F8
301FC0
600300
600400
400800
400000
C00000
C00000
800000
800000
800000
880000
880000
908000
B04000
F06000
F0381C
601FFE
6007FC
600000
200000
ENDCHAR
STARTCHAR 306C
ENCODING 12396
SWIDTH 1000 0
DWIDTH 32 0
BBX 27 24 3 2
BITMAP
001C0000
00060000
08060000
0C060000
0C040000
041FE000
047C3800
078C0C00
06080600
0E180300
1E180300
1E100180
32100180
22300180
63200180
43600180
C1400180
C1C0F980
C1810F00
C1C20380
C3E207C0
E66306E0
7C611CE0
7800F060
ENDCHAR
STARTCHAR 306D
ENCODING 12397
SWIDTH 1000 0
DWIDTH 32 0
BBX 28 26 3 0
BITMAP
03000000
01C00000
00C00000
00C00000
00C00000
00800000
0080F800
41C30C00
46E60600
7DC80200
31900300
01A00100
01C00180
03800180
07800180
0D800180
0D800180
19800180
3180F980
79830F00
ED840700
C58403C0
C38406E0
03820C70
03831C70
0180F030
ENDCHAR
STARTCHAR 306E
ENCODING 12398
SWIDTH 1000 0
DWIDTH 32 0
BBX 26 23 3 0
BITMAP
003FC000
00F87000
03981C00
06180600
0C180300
18180180
30180180
301801C0
603000C0
603000C0
C03000C0
C03000C0
C06000C0
C06000C0
C0C001C0
C0C00180
C1800180
E3000300
66000600
3C001C00
18007800
0007C000
00080000
ENDCHAR
STARTCHAR 306F
ENCODING 12399
SWIDTH 1000 0
DWIDTH 32 0
BBX 26 25 4 1
BITMAP
40038000
2000C000
3000C000
3000C000
3000C000
3000C000
6100C700
6080FF00
60C3F800
603EC000
6000C000
4000C000
C000C000
C0004000
C0004000
C8004000
D8004000
D0004000
F03FE000
F0C07C00
E1007F00
E1006380
E180E1C0
60FFC0C0
603F8000
ENDCHAR
ENDFONT
